<?xml version="1.0" encoding="UTF-8" standalone="no"?><!DOCTYPE svg PUBLIC "-//W3C//DTD SVG 1.1//EN" "http://www.w3.org/Graphics/SVG/1.1/DTD/svg11.dtd"><svg width="100%" height="100%" viewBox="0 0 45 45" version="1.1" xmlns="http://www.w3.org/2000/svg" xmlns:xlink="http://www.w3.org/1999/xlink" xml:space="preserve" xmlns:serif="http://www.serif.com/" style="fill-rule:evenodd;clip-rule:evenodd;stroke-linejoin:round;stroke-miterlimit:2;"><rect x="16.751" y="27.919" width="1.396" height="11.725" style="fill:#e6eef1;"/><rect x="20.938" y="27.919" width="1.396" height="16.751" style="fill:#e6eef1;"/><rect x="8.375" y="27.919" width="1.396" height="11.725" style="fill:#e6eef1;"/><rect x="12.563" y="27.919" width="1.396" height="16.751" style="fill:#e6eef1;"/><rect x="1.06" y="22.335" width="1.396" height="17.309" style="fill:#e6eef1;"/><rect x="5.248" y="26.013" width="1.396" height="18.656" style="fill:#e6eef1;"/><rect x="25.126" y="27.919" width="1.396" height="11.725" style="fill:#e6eef1;"/><rect x="29.314" y="27.919" width="1.396" height="16.751" style="fill:#e6eef1;"/><rect x="33.503" y="27.919" width="1.396" height="11.725" style="fill:#e6eef1;"/><rect x="36.913" y="24.542" width="1.396" height="20.127" style="fill:#e6eef1;"/><rect x="41.101" y="24.542" width="1.396" height="15.101" style="fill:#e6eef1;"/><path d="M37.853,10.842c0.036,-0.288 0.054,-0.577 0.054,-0.863c0,-4.04 -3.346,-7.328 -7.459,-7.328c-1.314,0 -2.589,0.338 -3.718,0.978c-2.18,-2.313 -5.227,-3.629 -8.452,-3.629c-6.196,-0 -11.263,4.827 -11.508,10.852c-3.958,0.915 -6.77,4.365 -6.77,8.411c-0,4.772 3.952,8.656 8.812,8.656l27.045,-0c4.859,-0 8.812,-3.884 8.812,-8.656c0,-4.017 -2.883,-7.519 -6.816,-8.421Z" style="fill:#32c4ec;fill-rule:nonzero;"/></svg>