<?xml version="1.0" encoding="UTF-8" standalone="no"?><!DOCTYPE svg PUBLIC "-//W3C//DTD SVG 1.1//EN" "http://www.w3.org/Graphics/SVG/1.1/DTD/svg11.dtd"><svg width="100%" height="100%" viewBox="0 0 45 45" version="1.1" xmlns="http://www.w3.org/2000/svg" xmlns:xlink="http://www.w3.org/1999/xlink" xml:space="preserve" xmlns:serif="http://www.serif.com/" style="fill-rule:evenodd;clip-rule:evenodd;stroke-linejoin:round;stroke-miterlimit:2;"><path d="M16.751,6.281c-5.774,0 -10.47,4.698 -10.47,10.47c0,5.773 4.696,10.469 10.47,10.469c5.773,-0 10.469,-4.696 10.469,-10.469c-0,-5.772 -4.696,-10.47 -10.469,-10.47Z" style="fill:#fabb41;fill-rule:nonzero;"/><rect x="16.053" y="0" width="1.396" height="4.885" style="fill:#fabb41;fill-rule:nonzero;"/><rect x="16.053" y="28.616" width="1.396" height="4.885" style="fill:#fabb41;"/><rect x="0" y="16.053" width="4.885" height="1.396" style="fill:#fabb41;fill-rule:nonzero;"/><rect x="28.616" y="16.053" width="4.885" height="1.396" style="fill:#fabb41;"/><path d="M11.423,6.125l-0.611,-1.057l-1.832,-3.173l-1.21,0.698l2.444,4.231l1.209,-0.699Z" style="fill:#fabb41;fill-rule:nonzero;"/><path d="M22.078,27.375l2.443,4.231l1.21,-0.698l-2.444,-4.231l-1.209,0.698Z" style="fill:#fabb41;fill-rule:nonzero;"/><path d="M5.068,22.689l-3.174,1.832l0.699,1.21l3.172,-1.832l1.059,-0.611l-0.699,-1.21l-1.057,0.611Z" style="fill:#fabb41;fill-rule:nonzero;"/><path d="M31.607,8.98l-0.699,-1.21l-4.231,2.444l0.698,1.209l4.232,-2.443Z" style="fill:#fabb41;fill-rule:nonzero;"/><path d="M6.125,11.423l0.699,-1.209l-1.059,-0.612l-3.172,-1.832l-0.699,1.21l3.174,1.832l1.057,0.611Z" style="fill:#fabb41;fill-rule:nonzero;"/><path d="M26.677,23.287l4.231,2.444l0.699,-1.21l-4.232,-2.443l-0.698,1.21Z" style="fill:#fabb41;fill-rule:nonzero;"/><path d="M7.77,30.908l1.21,0.698l1.832,-3.173l0.611,-1.058l-1.209,-0.698l-2.444,4.231Z" style="fill:#fabb41;fill-rule:nonzero;"/><path d="M25.731,2.593l-1.21,-0.698l-2.443,4.23l1.209,0.699l2.444,-4.231Z" style="fill:#fabb41;fill-rule:nonzero;"/><path d="M41.612,37.101c0.014,-0.122 0.022,-0.245 0.022,-0.365c0,-1.794 -1.506,-3.252 -3.358,-3.252c-0.59,-0 -1.16,0.148 -1.667,0.43c-0.98,-1.02 -2.348,-1.6 -3.795,-1.6c-2.782,-0 -5.057,2.13 -5.175,4.791c-1.777,0.409 -3.04,1.936 -3.04,3.727c0,2.115 1.779,3.837 3.965,3.837l12.14,0c2.186,0 3.965,-1.722 3.965,-3.837c0,-1.777 -1.293,-3.327 -3.057,-3.731Z" style="fill:#32c4ec;fill-rule:nonzero;"/><path d="M20.183,23.375c0.018,-0.144 0.027,-0.289 0.027,-0.432c0,-2.117 -1.788,-3.841 -3.985,-3.841c-0.699,0 -1.376,0.175 -1.979,0.509c-1.162,-1.206 -2.784,-1.89 -4.501,-1.89c-3.299,-0 -5.999,2.516 -6.14,5.658c-2.107,0.483 -3.605,2.287 -3.605,4.403c-0,2.499 2.11,4.532 4.704,4.532l14.401,-0c2.594,-0 4.705,-2.033 4.705,-4.532c0,-2.1 -1.534,-3.931 -3.628,-4.407Z" style="fill:#32c4ec;fill-rule:nonzero;"/><path d="M41.612,4.632c0.014,-0.119 0.022,-0.238 0.022,-0.354c0,-1.734 -1.506,-3.146 -3.358,-3.146c-0.59,-0 -1.16,0.144 -1.667,0.417c-0.98,-0.988 -2.348,-1.549 -3.795,-1.549c-2.782,0 -5.057,2.061 -5.175,4.635c-1.777,0.396 -3.04,1.873 -3.04,3.607c0,2.046 1.779,3.711 3.965,3.711l12.14,-0c2.186,-0 3.965,-1.665 3.965,-3.711c0,-1.721 -1.293,-3.221 -3.057,-3.61Z" style="fill:#32c4ec;fill-rule:nonzero;"/></svg>