<?xml version="1.0" encoding="UTF-8" standalone="no"?><!DOCTYPE svg PUBLIC "-//W3C//DTD SVG 1.1//EN" "http://www.w3.org/Graphics/SVG/1.1/DTD/svg11.dtd"><svg width="100%" height="100%" viewBox="0 0 45 45" version="1.1" xmlns="http://www.w3.org/2000/svg" xmlns:xlink="http://www.w3.org/1999/xlink" xml:space="preserve" xmlns:serif="http://www.serif.com/" style="fill-rule:evenodd;clip-rule:evenodd;stroke-linejoin:round;stroke-miterlimit:2;"><path d="M3.49,25.976l-2.998,5.895c-0.005,0.009 -0.492,0.865 -0.492,1.83c-0,0.954 0.36,1.85 1.014,2.527c0.66,0.683 1.539,1.058 2.476,1.058c0.936,0 1.815,-0.375 2.475,-1.058c0.654,-0.677 1.014,-1.573 1.014,-2.526c-0,-0.922 -0.473,-1.796 -0.475,-1.8l-3.014,-5.926Z" style="fill:#fff;fill-rule:nonzero;"/><path d="M12.057,33.358l-2.997,5.895c-0.004,0.008 -0.491,0.864 -0.491,1.831c-0,0.953 0.358,1.85 1.013,2.526c0.659,0.682 1.54,1.059 2.475,1.059c0.936,0 1.816,-0.377 2.475,-1.059c0.655,-0.676 1.015,-1.573 1.015,-2.525c0,-0.923 -0.473,-1.796 -0.475,-1.8l-3.015,-5.927Z" style="fill:#fff;fill-rule:nonzero;"/><path d="M41.179,33.358l-2.998,5.895c-0.004,0.008 -0.491,0.864 -0.491,1.831c0,0.953 0.359,1.85 1.014,2.526c0.659,0.682 1.539,1.059 2.475,1.059c0.936,0 1.816,-0.377 2.475,-1.059c0.655,-0.676 1.015,-1.573 1.015,-2.525c0,-0.923 -0.474,-1.796 -0.475,-1.8l-3.015,-5.927Z" style="fill:#fff;fill-rule:nonzero;"/><path d="M31.741,27.919l-2.997,5.895c-0.005,0.007 -0.492,0.864 -0.492,1.83c0,0.953 0.359,1.85 1.014,2.527c0.659,0.681 1.539,1.058 2.475,1.058c0.937,0 1.816,-0.377 2.475,-1.058c0.655,-0.677 1.015,-1.574 1.015,-2.527c0,-0.921 -0.472,-1.795 -0.475,-1.799l-3.015,-5.926Z" style="fill:#fff;fill-rule:nonzero;"/><path d="M37.853,10.842c0.036,-0.29 0.054,-0.577 0.054,-0.863c0,-4.039 -3.346,-7.328 -7.459,-7.328c-1.314,0 -2.589,0.338 -3.718,0.978c-2.18,-2.313 -5.227,-3.629 -8.452,-3.629c-6.196,-0 -11.263,4.827 -11.508,10.852c-3.958,0.915 -6.77,4.365 -6.77,8.411c-0,4.772 3.952,8.656 8.812,8.656l27.045,-0c4.859,-0 8.812,-3.884 8.812,-8.656c0,-4.017 -2.883,-7.521 -6.816,-8.421Z" style="fill:#32c4ec;fill-rule:nonzero;"/><path d="M29.663,23.032l-6.156,0l5.458,-10.469l-11.168,-0l-2.791,18.844l4.188,0l-1.397,13.262l11.866,-21.637Z" style="fill:#fff;fill-rule:nonzero;"/></svg>