<?xml version="1.0" encoding="UTF-8" standalone="no"?><!DOCTYPE svg PUBLIC "-//W3C//DTD SVG 1.1//EN" "http://www.w3.org/Graphics/SVG/1.1/DTD/svg11.dtd"><svg width="100%" height="100%" viewBox="0 0 45 45" version="1.1" xmlns="http://www.w3.org/2000/svg" xmlns:xlink="http://www.w3.org/1999/xlink" xml:space="preserve" xmlns:serif="http://www.serif.com/" style="fill-rule:evenodd;clip-rule:evenodd;stroke-linejoin:round;stroke-miterlimit:2;"><path d="M33.6,29.19c-10.199,0 -18.496,-8.503 -18.496,-18.955c0,-3.06 0.732,-6.106 2.119,-8.807l0.733,-1.428l-1.526,0.405c-9.673,2.566 -16.43,11.52 -16.43,21.773c-0,12.402 9.844,22.491 21.947,22.491c10.006,0 18.742,-6.925 21.248,-16.838l0.394,-1.563l-1.395,0.752c-2.635,1.42 -5.608,2.17 -8.594,2.17Z" style="fill:#fabb41;fill-rule:nonzero;"/><path d="M34.212,18.896l2.732,5.118l2.73,-5.118l4.995,-2.799l-4.995,-2.8l-2.73,-5.118l-2.732,5.118l-4.995,2.8l4.995,2.799Z" style="fill:#fff;fill-rule:nonzero;"/><path d="M25.093,14.014l2.239,-4.195l4.094,-2.293l-4.094,-2.295l-2.239,-4.195l-2.238,4.195l-4.094,2.295l4.094,2.293l2.238,4.195Z" style="fill:#fff;fill-rule:nonzero;"/></svg>