<?xml version="1.0" encoding="UTF-8" standalone="no"?><!DOCTYPE svg PUBLIC "-//W3C//DTD SVG 1.1//EN" "http://www.w3.org/Graphics/SVG/1.1/DTD/svg11.dtd"><svg width="100%" height="100%" viewBox="0 0 100 80" version="1.1" xmlns="http://www.w3.org/2000/svg" xmlns:xlink="http://www.w3.org/1999/xlink" xml:space="preserve" xmlns:serif="http://www.serif.com/" style="fill-rule:evenodd;clip-rule:evenodd;stroke-linejoin:round;stroke-miterlimit:2;"><path d="M78.155,47.074l0,32.82c5.001,-0.051 9.334,-2.362 11.537,-5.74c0.406,0.202 0.876,0.336 1.404,0.336l0.557,-0c0.964,0 1.765,-0.429 2.247,-0.96c0.491,-0.537 0.749,-1.201 0.755,-1.914l0,-31.312l-1.492,-0c-0.807,-0 -1.458,-0.541 -1.448,-1.201c0.003,-0.13 0.003,-0.265 0.003,-0.397c0,-18.798 -18.68,-34.035 -41.723,-34.035c-23.043,0 -41.724,15.237 -41.724,34.035c-0,0.132 -0,0.267 0.004,0.397c0.01,0.66 -0.64,1.201 -1.451,1.201l-1.486,-0l-0,31.312c0.002,0.713 0.255,1.377 0.751,1.914c0.482,0.531 1.284,0.96 2.247,0.96l0.559,-0c0.483,0 0.925,-0.108 1.308,-0.282c2.212,3.35 6.533,5.635 11.515,5.686l-0,-32.82c-3.926,0.04 -7.426,1.474 -9.825,3.714l0,-9.331c1.22,-0.192 2.132,-1.029 2.25,-2.046l0.028,-0.109l-0.003,-0.361c0,-8.074 4.008,-15.371 10.494,-20.663c6.486,-5.29 15.436,-8.559 25.333,-8.56c9.894,0.001 18.84,3.27 25.329,8.56c6.487,5.292 10.492,12.592 10.492,20.665l-0,0.255c0.002,1.112 0.968,2.052 2.277,2.259l0,9.442c-2.395,-2.306 -5.955,-3.785 -9.938,-3.825Z" style="fill:#dcdcdc;fill-rule:nonzero;"/><path d="M93.163,40.304l2.819,0c0.791,0 1.443,-0.518 1.456,-1.166c0.004,-0.144 0.004,-0.287 0.004,-0.432c-0,-21.377 -21.246,-38.706 -47.447,-38.706c-26.204,0 -47.451,17.329 -47.451,38.706c0,0.145 0.004,0.288 0.008,0.432c0.013,0.648 0.659,1.166 1.453,1.166l2.819,0c0.811,0 1.461,-0.541 1.451,-1.201c-0.004,-0.13 -0.004,-0.265 -0.004,-0.397c-0,-18.798 18.681,-34.035 41.724,-34.035c23.043,0 41.723,15.237 41.723,34.035c0,0.132 0,0.267 -0.003,0.397c-0.01,0.66 0.641,1.201 1.448,1.201Z" style="fill:#fff;fill-rule:nonzero;"/><path d="M0,65.534c0,2.164 2.135,3.922 4.785,3.948l0,-11.995c-2.65,0.027 -4.785,1.783 -4.785,3.949l0,4.098Z" style="fill:#fff;fill-rule:nonzero;"/><path d="M95.215,69.482c2.648,-0.026 4.785,-1.784 4.785,-3.948l0,-4.098c0,-2.166 -2.137,-3.922 -4.785,-3.949l0,11.995Z" style="fill:#fff;fill-rule:nonzero;"/><path d="M22.575,47.069l0,32.931l4.876,0c0.765,0 1.381,-0.505 1.381,-1.126l-0,-30.68c-0,-0.622 -0.616,-1.125 -1.381,-1.125l-4.876,-0Z" style="fill:#f7f9ff;fill-rule:nonzero;"/><path d="M70.953,48.194l0,30.68c0,0.621 0.616,1.126 1.379,1.126l4.88,0l-0,-32.931l-4.88,-0c-0.763,-0 -1.379,0.503 -1.379,1.125Z" style="fill:#fff;fill-rule:nonzero;"/></svg>