<?xml version="1.0" encoding="UTF-8" standalone="no"?><!DOCTYPE svg PUBLIC "-//W3C//DTD SVG 1.1//EN" "http://www.w3.org/Graphics/SVG/1.1/DTD/svg11.dtd"><svg width="100%" height="100%" viewBox="0 0 75 75" version="1.1" xmlns="http://www.w3.org/2000/svg" xmlns:xlink="http://www.w3.org/1999/xlink" xml:space="preserve" xmlns:serif="http://www.serif.com/" style="fill-rule:evenodd;clip-rule:evenodd;stroke-linejoin:round;stroke-miterlimit:2;"><path d="M58.616,44.132l-0,30.768c3.751,-0.047 7.001,-2.214 8.653,-5.381c0.305,0.19 0.657,0.316 1.053,0.315l0.418,0c0.723,0.001 1.324,-0.402 1.685,-0.9c0.368,-0.503 0.562,-1.126 0.566,-1.794l-0,-29.355l-1.119,-0c-0.605,-0 -1.093,-0.507 -1.086,-1.126c0.003,-0.122 0.003,-0.249 0.003,-0.372c0,-17.623 -14.011,-31.908 -31.293,-31.908c-17.282,-0 -31.293,14.285 -31.293,31.908c0,0.123 0,0.25 0.003,0.372c0.008,0.619 -0.48,1.126 -1.088,1.126l-1.115,-0l0,29.355c0.002,0.668 0.192,1.291 0.564,1.794c0.361,0.498 0.963,0.901 1.685,0.9l0.419,0c0.363,0.001 0.694,-0.101 0.981,-0.264c1.659,3.14 4.9,5.283 8.636,5.33l-0,-30.768c-2.944,0.037 -5.569,1.382 -7.368,3.482l0,-8.748c0.915,-0.18 1.599,-0.965 1.687,-1.918l0.021,-0.103l-0.002,-0.338c-0,-7.569 3.006,-14.41 7.87,-19.371c4.865,-4.96 11.577,-8.024 19,-8.025c7.421,0.001 14.13,3.065 18.997,8.025c4.865,4.961 7.869,11.804 7.869,19.373l-0,0.239c0.002,1.042 0.726,1.924 1.708,2.118l-0,8.852c-1.797,-2.162 -4.466,-3.549 -7.454,-3.586Z" style="fill:#616e7d;fill-rule:nonzero;"/><path d="M69.872,37.785l2.114,-0c0.594,-0 1.083,-0.486 1.093,-1.093c0.002,-0.135 0.002,-0.269 0.002,-0.405c0,-20.041 -15.934,-36.287 -35.585,-36.287c-19.653,-0 -35.588,16.246 -35.588,36.287c0,0.136 0.003,0.27 0.006,0.405c0.01,0.607 0.494,1.093 1.09,1.093l2.114,-0c0.608,-0 1.096,-0.507 1.088,-1.126c-0.003,-0.122 -0.003,-0.249 -0.003,-0.372c0,-17.623 14.011,-31.908 31.293,-31.908c17.282,-0 31.293,14.285 31.293,31.908c0,0.123 0,0.25 -0.003,0.372c-0.007,0.619 0.481,1.126 1.086,1.126Z" style="fill:#fff;fill-rule:nonzero;"/><path d="M0,61.438c0,2.029 1.601,3.677 3.589,3.701l-0,-11.245c-1.988,0.025 -3.589,1.671 -3.589,3.702l0,3.842Z" style="fill:#616e7d;fill-rule:nonzero;"/><path d="M71.411,65.139c1.986,-0.024 3.589,-1.672 3.589,-3.701l0,-3.842c0,-2.031 -1.603,-3.677 -3.589,-3.702l0,11.245Z" style="fill:#616e7d;fill-rule:nonzero;"/><path d="M16.931,44.127l-0,30.873l3.657,0c0.574,0 1.036,-0.473 1.036,-1.055l0,-28.763c0,-0.583 -0.462,-1.055 -1.036,-1.055l-3.657,0Z" style="fill:#f7f9ff;fill-rule:nonzero;"/><path d="M53.215,45.182l0,28.763c0,0.582 0.462,1.055 1.034,1.055l3.66,-0l-0,-30.873l-3.66,0c-0.572,0 -1.034,0.472 -1.034,1.055Z" style="fill:#fff;fill-rule:nonzero;"/></svg>