<?xml version="1.0" encoding="UTF-8" standalone="no"?><!DOCTYPE svg PUBLIC "-//W3C//DTD SVG 1.1//EN" "http://www.w3.org/Graphics/SVG/1.1/DTD/svg11.dtd"><svg width="100%" height="100%" viewBox="0 0 45 45" version="1.1" xmlns="http://www.w3.org/2000/svg" xmlns:xlink="http://www.w3.org/1999/xlink" xml:space="preserve" xmlns:serif="http://www.serif.com/" style="fill-rule:evenodd;clip-rule:evenodd;stroke-linejoin:round;stroke-miterlimit:2;"><path d="M12.359,35.126l-2.692,5.121c-0.004,0.008 -0.449,0.757 -0.449,1.612c0,0.839 0.326,1.63 0.92,2.221c0.593,0.594 1.382,0.92 2.221,0.92c0.839,0 1.628,-0.326 2.221,-0.92c0.594,-0.591 0.92,-1.38 0.92,-2.219c-0,-0.812 -0.425,-1.573 -0.43,-1.581l-2.711,-5.154Z" style="fill:#fff;fill-rule:nonzero;"/><path d="M25.641,32.747l-2.694,5.121c-0.004,0.007 -0.447,0.757 -0.447,1.612c-0,0.839 0.326,1.629 0.919,2.22c0.594,0.595 1.381,0.92 2.222,0.92c0.839,0 1.626,-0.325 2.221,-0.92c0.593,-0.591 0.919,-1.38 0.919,-2.219c0,-0.811 -0.424,-1.572 -0.43,-1.58l-2.71,-5.154Z" style="fill:#fff;fill-rule:nonzero;"/><path d="M41.52,40.28l-2.71,-5.154l-2.692,5.121c-0.004,0.008 -0.449,0.757 -0.449,1.612c0,0.839 0.326,1.63 0.92,2.221c0.593,0.594 1.382,0.92 2.221,0.92c0.839,-0 1.628,-0.326 2.221,-0.92c0.593,-0.591 0.92,-1.38 0.92,-2.219c-0,-0.812 -0.425,-1.573 -0.431,-1.581Z" style="fill:#fff;fill-rule:nonzero;"/><ellipse cx="10.932" cy="9.76" rx="10.932" ry="9.76" style="fill:#fabb41;"/><path d="M40.597,4.402l-2.408,-4.402l-2.408,4.402l-4.402,2.409l4.402,2.407l2.408,4.403l2.408,-4.403l4.403,-2.407l-4.403,-2.409Z" style="fill:#fff;fill-rule:nonzero;"/><path d="M40.132,18.242c-0.702,-5.146 -5.446,-9.115 -11.001,-9.115c-2.868,-0 -5.634,1.062 -7.698,2.938c-1.263,-1.005 -2.84,-1.551 -4.51,-1.551c-3.586,0 -6.535,2.506 -6.968,5.805c-3.928,0.92 -6.72,4.251 -6.72,8.114c-0,4.615 3.982,8.371 8.878,8.371c0.167,-0 24.787,-0.019 24.821,-0.019c4.337,-0.2 7.735,-3.565 7.735,-7.658c0,-2.939 -1.766,-5.595 -4.537,-6.885Z" style="fill:#32c4ec;fill-rule:nonzero;"/></svg>