<?xml version="1.0" encoding="UTF-8" standalone="no"?><!DOCTYPE svg PUBLIC "-//W3C//DTD SVG 1.1//EN" "http://www.w3.org/Graphics/SVG/1.1/DTD/svg11.dtd"><svg width="100%" height="100%" viewBox="0 0 75 60" version="1.1" xmlns="http://www.w3.org/2000/svg" xmlns:xlink="http://www.w3.org/1999/xlink" xml:space="preserve" xmlns:serif="http://www.serif.com/" style="fill-rule:evenodd;clip-rule:evenodd;stroke-linejoin:round;stroke-miterlimit:2;"><path d="M12.095,26.051l24.163,0l-0,1.926l-24.163,-0l0,-1.926Zm0,-7.141l45.638,-0l-0,1.925l-45.638,0l0,-1.925Zm0,-7.141l45.638,-0l-0,1.925l-45.638,-0l0,-1.925Zm-10.758,25.473l-1.337,0.862l19.456,1.879c2.826,0.874 5.774,1.498 8.813,1.879c1.021,-7.681 11.535,-13.741 24.324,-13.741c5.182,0 9.987,0.998 13.943,2.692c2.473,-2.895 3.878,-6.178 3.878,-9.658c0,-11.665 -15.704,-21.155 -35.009,-21.155c-19.305,0 -35.01,9.49 -35.01,21.155c-0,4.188 2.023,8.221 5.854,11.701l-0.031,0.018l0.375,0.308c-0.431,0.679 -2.964,2.579 -5.256,4.06Z" style="fill:#4099ff;fill-rule:nonzero;"/><path d="M30.183,43.09c0,7.396 10.055,13.413 22.41,13.413c2.731,-0 5.418,-0.3 7.984,-0.888l0.546,-0.125l6.283,4.51l-0,-6.863l0.418,-0.233c4.56,-2.538 7.176,-6.116 7.176,-9.814c-0,-7.396 -10.055,-13.413 -22.407,-13.413c-12.355,0 -22.41,6.017 -22.41,13.413Z" style="fill:#63b669;fill-rule:nonzero;"/><rect x="41.599" y="46.529" width="17.196" height="1.925" style="fill:#fff;fill-rule:nonzero;"/><rect x="12.095" y="11.769" width="45.637" height="1.925" style="fill:#fff;fill-rule:nonzero;"/><rect x="12.095" y="18.91" width="45.637" height="1.926" style="fill:#fff;fill-rule:nonzero;"/><rect x="12.095" y="26.051" width="24.162" height="1.925" style="fill:#fff;fill-rule:nonzero;"/><rect x="37.5" y="36.353" width="29.894" height="1.926" style="fill:#fff;fill-rule:nonzero;"/><rect x="50.198" y="42.035" width="17.196" height="1.925" style="fill:#fff;fill-rule:nonzero;"/></svg>