<?xml version="1.0" encoding="UTF-8" standalone="no"?><!DOCTYPE svg PUBLIC "-//W3C//DTD SVG 1.1//EN" "http://www.w3.org/Graphics/SVG/1.1/DTD/svg11.dtd"><svg width="100%" height="100%" viewBox="0 0 140 120" version="1.1" xmlns="http://www.w3.org/2000/svg" xmlns:xlink="http://www.w3.org/1999/xlink" xml:space="preserve" xmlns:serif="http://www.serif.com/" style="fill-rule:evenodd;clip-rule:evenodd;stroke-linejoin:round;stroke-miterlimit:2;"><path d="M10.2,52.734c-1.103,-0.56 -2.204,-1.12 -3.307,-1.68c-2.514,-1.278 -5.25,-2.801 -6.174,-5.491c-0.842,-2.446 0.085,-5.118 1.05,-7.518c3.249,-8.091 7.025,-15.976 11.508,-23.44c1.224,-2.04 2.678,-4.189 4.926,-4.911c2.067,-0.662 4.293,0.053 6.347,0.764c1.865,0.644 3.73,1.289 5.595,1.936l-3.063,5.747c-2.156,-1.584 -4.718,-3.253 -7.294,-2.56c-2.064,0.553 -3.448,2.47 -4.553,4.318c-2.075,3.467 -3.78,7.144 -5.482,10.813c-0.88,1.901 -1.762,3.803 -2.644,5.704c-0.999,2.154 -2.021,4.558 -1.346,6.838c0.833,2.815 3.849,4.242 6.545,5.33l-2.108,4.15Z" style="fill:#fff;fill-rule:nonzero;"/><path d="M10.2,52.734l0.174,-0.353c-1.101,-0.56 -2.204,-1.12 -3.306,-1.679c-1.252,-0.636 -2.543,-1.328 -3.619,-2.176c-1.077,-0.848 -1.932,-1.843 -2.362,-3.092c-0.214,-0.626 -0.306,-1.269 -0.306,-1.927c-0.003,-1.739 0.652,-3.584 1.349,-5.313c3.244,-8.076 7.01,-15.943 11.48,-23.384c0.608,-1.013 1.267,-2.04 2.034,-2.888c0.769,-0.85 1.638,-1.517 2.677,-1.85c0.535,-0.173 1.086,-0.246 1.648,-0.246c1.448,-0.002 2.982,0.492 4.455,1.004c1.865,0.645 3.728,1.292 5.594,1.936l0.127,-0.372l-0.344,-0.188l-3.061,5.748l0.342,0.187l0.23,-0.319c-0.913,-0.67 -1.905,-1.363 -2.958,-1.894c-1.053,-0.531 -2.172,-0.902 -3.334,-0.904c-0.44,0 -0.886,0.054 -1.333,0.174c-1.12,0.301 -2.042,0.97 -2.815,1.783c-0.775,0.814 -1.411,1.779 -1.971,2.713c-2.088,3.492 -3.799,7.181 -5.501,10.85c-0.88,1.901 -1.762,3.803 -2.644,5.704c-0.775,1.678 -1.596,3.542 -1.601,5.458c0,0.553 0.072,1.11 0.235,1.662c0.448,1.518 1.486,2.648 2.722,3.522c1.242,0.876 2.694,1.513 4.051,2.06l0.145,-0.366l-0.347,-0.179l-2.11,4.149l0.349,0.18l0.174,-0.353l-0.174,0.353l0.347,0.181l2.305,-4.536l-0.4,-0.161c-1.339,-0.541 -2.742,-1.162 -3.892,-1.975c-1.152,-0.816 -2.041,-1.806 -2.423,-3.102c-0.14,-0.472 -0.201,-0.949 -0.201,-1.435c-0.003,-1.68 0.751,-3.46 1.528,-5.122c0.88,-1.902 1.762,-3.803 2.644,-5.704c1.7,-3.67 3.4,-7.334 5.462,-10.778c0.544,-0.912 1.154,-1.83 1.863,-2.574c0.711,-0.746 1.512,-1.314 2.455,-1.566c0.378,-0.103 0.756,-0.148 1.132,-0.149c0.993,-0 1.999,0.323 2.985,0.821c0.987,0.497 1.948,1.166 2.849,1.827l0.36,0.265l3.493,-6.556l-0.436,-0.151c-1.865,-0.645 -3.73,-1.289 -5.595,-1.936c-1.483,-0.512 -3.086,-1.045 -4.707,-1.046c-0.629,-0 -1.262,0.081 -1.884,0.281c-1.209,0.388 -2.19,1.156 -3.016,2.071c-0.828,0.917 -1.509,1.984 -2.125,3.009c-4.496,7.487 -8.28,15.391 -11.536,23.498c-0.702,1.75 -1.406,3.674 -1.408,5.611c0,0.733 0.103,1.467 0.35,2.186c0.495,1.44 1.47,2.552 2.62,3.457c1.152,0.906 2.485,1.615 3.748,2.256c1.102,0.56 2.205,1.12 3.306,1.68l0.345,0.176l0.178,-0.347l-0.347,-0.181Z" style="fill:#014263;fill-rule:nonzero;"/><path d="M70.905,23.914c-7.984,17.875 -16.431,36.467 -23.927,54.558c-0.864,2.082 -1.744,4.205 -3.206,5.91c-1.464,1.704 -3.645,2.978 -5.858,2.695c-19.588,-2.509 -32.736,-15.895 -32.736,-15.895c-3.041,-3.555 -0.78,-8.361 1.114,-12.156c12.146,-24.333 12.337,-26.045 25.995,-53.863c0,0 4.815,5.701 18.757,12.224c13.942,6.523 19.861,6.527 19.861,6.527Z" style="fill:#fff;fill-rule:nonzero;"/><path d="M70.905,23.914l-0.267,-0.122c-7.983,17.874 -16.432,36.469 -23.931,54.565c-0.862,2.083 -1.734,4.176 -3.156,5.83c-0.643,0.747 -1.427,1.41 -2.285,1.88c-0.859,0.472 -1.789,0.754 -2.727,0.754c-0.196,-0 -0.392,-0.013 -0.59,-0.039c-9.736,-1.246 -17.882,-5.2 -23.591,-8.843c-2.856,-1.822 -5.101,-3.566 -6.632,-4.853c-0.765,-0.643 -1.351,-1.172 -1.745,-1.54c-0.197,-0.184 -0.347,-0.328 -0.446,-0.426c-0.05,-0.048 -0.087,-0.085 -0.112,-0.109l-0.036,-0.037l-0.209,0.208l0.223,-0.193c-1.027,-1.203 -1.416,-2.533 -1.417,-3.949c-0.005,-2.584 1.344,-5.434 2.57,-7.882c12.148,-24.337 12.34,-26.051 25.994,-53.864l-0.261,-0.131l-0.222,0.192c0.026,0.032 4.878,5.76 18.856,12.301c13.971,6.536 19.93,6.554 19.984,6.554l0,-0.296l-0.267,-0.122l0.267,0.122l0,-0.296l-0.012,-0c-0.31,-0.007 -6.247,-0.192 -19.726,-6.5c-6.953,-3.252 -11.625,-6.299 -14.554,-8.526c-1.465,-1.114 -2.495,-2.024 -3.156,-2.653c-0.33,-0.313 -0.569,-0.558 -0.725,-0.723c-0.078,-0.082 -0.134,-0.146 -0.171,-0.186l-0.041,-0.046l-0.01,-0.014l-0.288,-0.34l-0.198,0.4c-13.661,27.826 -13.85,29.536 -25.993,53.863c-1.223,2.457 -2.629,5.358 -2.632,8.147c-0.003,1.526 0.434,3.024 1.559,4.336l0.007,0.008l0.007,0.008c0.023,0.019 13.203,13.45 32.904,15.978c0.221,0.028 0.442,0.043 0.663,0.043c1.055,-0 2.078,-0.315 3.007,-0.824c0.927,-0.511 1.762,-1.216 2.447,-2.013c1.504,-1.754 2.391,-3.909 3.254,-5.99c7.495,-18.084 15.94,-36.674 23.924,-54.551l0.187,-0.417l-0.453,-0l0,0.296Z" style="fill:#014263;fill-rule:nonzero;"/><path d="M66.1,24.851c-6.493,14.535 -15.008,33.271 -21.104,47.981c-0.702,1.693 -1.417,3.419 -2.606,4.805c-1.191,1.387 -2.963,2.422 -4.764,2.192c-15.926,-2.04 -26.616,-12.923 -26.616,-12.923c-2.473,-2.892 -0.634,-6.799 0.906,-9.885c9.876,-19.786 12.201,-26.528 23.306,-49.147c0,-0 4.485,4.209 15.822,9.513c11.337,5.304 15.056,7.464 15.056,7.464Z" style="fill:#faa931;fill-rule:nonzero;"/><path d="M38.138,79.861c1.619,-0.002 3.174,-0.968 4.252,-2.224c1.189,-1.386 1.904,-3.112 2.606,-4.805c1.136,-2.739 2.354,-5.616 3.626,-8.579c-1.272,2.963 -2.49,5.84 -3.626,8.579c-0.702,1.693 -1.417,3.419 -2.606,4.805c-1.078,1.256 -2.633,2.222 -4.252,2.224Zm-0.512,-0.032c-15.926,-2.04 -26.616,-12.923 -26.616,-12.923c-0.001,-0.004 -0.004,-0.005 -0.006,-0.008c0.002,0.003 0.005,0.004 0.006,0.008c0,-0 10.69,10.883 26.616,12.923Zm-26.625,-12.935c-0.002,-0.001 -0.002,-0.003 -0.003,-0.003c0.001,0 0.001,0.002 0.003,0.003Zm-0.008,-0.009c0,-0 -0.001,-0 -0.001,-0.002c-0,0.002 0.001,0.002 0.001,0.002Zm-1.12,-2.418c0,-0.003 0,-0.005 -0.001,-0.006c0.001,0.001 0.001,0.003 0.001,0.006Zm-0.001,-0.008c-0,-0.003 -0,-0.006 -0.002,-0.008c0.002,0.002 0.002,0.005 0.002,0.008Zm-0.002,-0.009c-0.076,-0.484 -0.087,-0.98 -0.045,-1.48c-0.042,0.5 -0.031,0.996 0.045,1.48Zm56.23,-39.599l-0.001,0l0.001,0Zm-0.001,0c-0.03,-0.017 -1.806,-1.046 -6.574,-3.4c4.768,2.354 6.544,3.383 6.574,3.4Z" style="fill:#ffd48f;fill-rule:nonzero;"/><path d="M38.138,79.861l-0.004,-0c-0.169,-0 -0.339,-0.011 -0.508,-0.032c-15.926,-2.04 -26.616,-12.923 -26.616,-12.923c-0.001,-0.004 -0.004,-0.005 -0.006,-0.008c-0.002,-0.002 -0.002,-0.004 -0.003,-0.004c-0.002,-0.001 -0.002,-0.003 -0.003,-0.003c-0.002,-0.001 -0.003,-0.003 -0.005,-0.006c0,-0 -0.001,-0 -0.001,-0.002c-0.63,-0.745 -0.977,-1.558 -1.117,-2.406c-0,-0.003 -0.002,-0.007 -0.002,-0.01c0,-0.003 0,-0.005 -0.001,-0.006l-0,-0.002c-0,-0.003 -0,-0.006 -0.002,-0.008l0,-0.001c-0.076,-0.484 -0.087,-0.98 -0.045,-1.48c3.543,1.108 6.866,1.609 9.982,1.609c28.873,0 39.696,-43.04 39.718,-43.128c4.768,2.354 6.544,3.383 6.574,3.4l0.001,0c-3.96,8.866 -8.674,19.295 -13.13,29.419c-1.606,0.517 -3.208,1.042 -4.805,1.575l-0.324,0.107l0.009,0.328c0.072,2.672 0.329,5.339 0.772,7.973c-1.272,2.963 -2.49,5.84 -3.626,8.579c-0.702,1.693 -1.417,3.419 -2.606,4.805c-1.078,1.256 -2.633,2.222 -4.252,2.224Z" style="fill:#f7922f;fill-rule:nonzero;"/><path d="M35.605,0.459c-1.986,0.824 -3.458,2.951 -3.335,5.127c0.051,0.892 0.348,1.753 0.756,2.54c1.509,2.916 4.404,4.781 7.311,6.22c2.906,1.436 5.998,2.611 8.486,4.708c0.645,0.543 1.26,1.168 1.575,1.96c0.313,0.781 0.307,1.668 0.158,2.503c-0.775,4.312 -5.151,7.71 -4.706,12.056c0.134,1.297 0.798,2.608 1.957,3.152c1.219,0.573 2.722,0.166 3.799,-0.677c1.074,-0.843 1.804,-2.058 2.47,-3.262c0.793,-1.439 1.529,-2.908 2.207,-4.404c0.742,-1.633 1.651,-3.51 3.368,-3.904c1.232,-0.281 2.459,0.322 3.685,0.604c2.019,0.464 4.233,0.016 5.944,-1.202c1.709,-1.219 2.892,-3.19 3.17,-5.291c0.347,-2.611 -1.111,-5.651 -3.66,-6.007c-0.369,-0.052 -0.764,-0.052 -1.077,-0.254c-0.345,-0.221 -0.513,-0.634 -0.673,-1.016c-1.59,-3.806 -4.818,-7.326 -8.886,-7.462c-0.924,-0.031 -1.855,0.115 -2.772,-0.007c-0.992,-0.133 -1.913,-0.574 -2.817,-1.009c-0.823,-0.397 -1.655,-0.799 -2.367,-1.378c-1.29,-1.046 -2.232,-2.685 -3.839,-3.083c-1.903,-0.474 -3.514,1.096 -5.297,0.531c-1.902,-0.603 -3.432,-1.285 -5.457,-0.445Z" style="fill:#fff;fill-rule:nonzero;"/><path d="M35.586,0.41c0.638,-0.266 1.33,-0.424 2.027,-0.408c0.697,0.003 1.383,0.156 2.046,0.345l0.989,0.293c0.335,0.098 0.649,0.21 0.972,0.224c0.652,0.051 1.302,-0.155 1.95,-0.366c0.647,-0.213 1.328,-0.442 2.068,-0.458c0.366,0.003 0.739,0.051 1.094,0.168c0.353,0.12 0.68,0.299 0.98,0.506c0.604,0.416 1.087,0.936 1.565,1.432c0.479,0.496 0.946,0.971 1.482,1.345c0.542,0.378 1.144,0.683 1.758,0.984c0.618,0.303 1.227,0.602 1.85,0.824c0.625,0.231 1.258,0.339 1.93,0.336c0.669,0.01 1.364,-0.062 2.072,0.008c0.708,0.039 1.395,0.224 2.061,0.447c0.655,0.256 1.284,0.574 1.867,0.961c1.168,0.773 2.162,1.786 2.991,2.906c0.842,1.109 1.523,2.358 2.054,3.629c0.144,0.297 0.331,0.552 0.598,0.652c0.271,0.112 0.61,0.098 0.97,0.16c0.718,0.104 1.4,0.439 1.952,0.912c1.106,0.959 1.744,2.37 1.904,3.808c0.084,0.722 0.039,1.469 -0.117,2.173c-0.143,0.709 -0.401,1.392 -0.734,2.031c-0.672,1.273 -1.671,2.384 -2.909,3.121c-1.23,0.739 -2.66,1.12 -4.083,1.106c-0.711,-0.007 -1.43,-0.123 -2.102,-0.323c-0.67,-0.194 -1.31,-0.429 -1.955,-0.53c-0.644,-0.109 -1.294,-0.042 -1.854,0.272c-0.567,0.298 -1.024,0.798 -1.41,1.346c-0.765,1.11 -1.26,2.427 -1.901,3.657c-0.62,1.242 -1.278,2.459 -1.974,3.664c-0.353,0.6 -0.748,1.179 -1.207,1.712c-0.457,0.53 -0.997,1.007 -1.632,1.331c-0.628,0.325 -1.334,0.536 -2.065,0.506c-0.73,-0.022 -1.469,-0.328 -2.002,-0.851c-0.542,-0.515 -0.907,-1.187 -1.106,-1.895c-0.098,-0.353 -0.176,-0.721 -0.181,-1.086l-0.025,-0.547c0.003,-0.181 0.024,-0.362 0.038,-0.544c0.126,-1.467 0.787,-2.776 1.474,-3.983c0.7,-1.211 1.494,-2.344 2.128,-3.563c0.652,-1.201 1.123,-2.517 1.217,-3.843c0.032,-0.659 -0.059,-1.317 -0.338,-1.87c-0.283,-0.557 -0.729,-1.032 -1.23,-1.463c-1.016,-0.869 -2.144,-1.624 -3.329,-2.286c-1.176,-0.683 -2.41,-1.285 -3.637,-1.907c-1.235,-0.607 -2.47,-1.234 -3.665,-1.941c-1.184,-0.72 -2.341,-1.514 -3.34,-2.503c-0.499,-0.494 -0.967,-1.024 -1.367,-1.609c-0.392,-0.587 -0.742,-1.207 -1,-1.875c-0.244,-0.671 -0.402,-1.388 -0.38,-2.112c0.013,-0.725 0.223,-1.428 0.528,-2.064c0.625,-1.276 1.703,-2.284 2.978,-2.832Zm0.039,0.099c-0.625,0.267 -1.201,0.656 -1.677,1.144c-0.471,0.493 -0.858,1.065 -1.118,1.691c-0.535,1.258 -0.482,2.675 0.047,3.909c0.502,1.251 1.305,2.373 2.257,3.334c0.952,0.967 2.064,1.775 3.237,2.467c2.35,1.402 4.97,2.272 7.443,3.552c1.228,0.655 2.428,1.4 3.486,2.354c0.526,0.482 1.033,1.048 1.335,1.755c0.305,0.711 0.353,1.482 0.274,2.202c-0.201,1.438 -0.749,2.761 -1.414,3.985c-0.66,1.231 -1.389,2.413 -2.019,3.631c-0.313,0.609 -0.602,1.227 -0.83,1.861c-0.122,0.313 -0.202,0.638 -0.297,0.956c-0.059,0.327 -0.157,0.648 -0.168,0.978c-0.012,0.163 -0.039,0.328 -0.045,0.493l0.011,0.493c-0.005,0.331 0.058,0.649 0.134,0.966c0.168,0.626 0.457,1.226 0.894,1.69c0.433,0.467 1.032,0.756 1.673,0.812c0.64,0.058 1.311,-0.083 1.907,-0.376c0.6,-0.286 1.126,-0.723 1.583,-1.225c0.459,-0.501 0.834,-1.079 1.187,-1.667c0.697,-1.189 1.318,-2.429 1.91,-3.676c0.609,-1.236 1.058,-2.556 1.837,-3.753c0.391,-0.587 0.876,-1.155 1.526,-1.515c0.321,-0.181 0.676,-0.309 1.043,-0.367c0.367,-0.057 0.737,-0.045 1.093,0.003c0.716,0.098 1.377,0.33 2.029,0.501c0.647,0.178 1.299,0.269 1.96,0.263c1.317,-0.016 2.636,-0.384 3.753,-1.082c1.12,-0.691 2.043,-1.701 2.657,-2.878c0.601,-1.176 0.965,-2.512 0.829,-3.826c-0.132,-1.306 -0.65,-2.622 -1.614,-3.51c-0.478,-0.44 -1.068,-0.754 -1.704,-0.872c-0.311,-0.071 -0.68,-0.06 -1.048,-0.221c-0.384,-0.162 -0.613,-0.528 -0.755,-0.85c-0.519,-1.293 -1.159,-2.499 -1.972,-3.608c-0.825,-1.089 -1.809,-2.062 -2.948,-2.797c-0.565,-0.374 -1.185,-0.648 -1.815,-0.875c-0.641,-0.19 -1.298,-0.345 -1.965,-0.36c-0.661,-0.045 -1.339,0.045 -2.041,0.059c-0.7,0.028 -1.443,-0.075 -2.115,-0.302c-0.679,-0.222 -1.305,-0.534 -1.926,-0.829c-0.621,-0.297 -1.254,-0.608 -1.847,-1.016c-1.21,-0.827 -1.975,-2.051 -3.022,-2.825c-0.261,-0.194 -0.538,-0.352 -0.832,-0.468c-0.294,-0.112 -0.607,-0.164 -0.924,-0.184c-0.641,-0.017 -1.294,0.16 -1.954,0.346c-0.658,0.181 -1.364,0.376 -2.088,0.285c-0.365,-0.035 -0.7,-0.173 -1.018,-0.282c-0.324,-0.115 -0.648,-0.23 -0.973,-0.336c-0.648,-0.206 -1.313,-0.379 -1.991,-0.4c-0.676,-0.025 -1.353,0.119 -1.985,0.37Z" style="fill:#014263;fill-rule:nonzero;"/><path d="M40.012,75.877c-1.828,-1.853 -3.831,-3.525 -5.934,-5.047c-2.116,-1.504 -4.364,-2.819 -6.716,-3.883l-1.778,-0.76c-0.602,-0.23 -1.21,-0.443 -1.814,-0.664l-1.837,-0.579c-0.62,-0.165 -1.246,-0.314 -1.866,-0.472c-2.505,-0.562 -5.056,-0.851 -7.641,-0.914c-0.092,-0.001 -0.164,-0.078 -0.162,-0.171c0.002,-0.085 0.065,-0.153 0.145,-0.163c2.604,-0.32 5.267,-0.102 7.826,0.485c0.636,0.168 1.274,0.326 1.905,0.504c0.624,0.208 1.252,0.398 1.87,0.619c0.61,0.246 1.221,0.483 1.825,0.739c0.594,0.279 1.193,0.546 1.781,0.835c2.339,1.184 4.561,2.583 6.665,4.138c2.116,1.539 4.084,3.272 5.963,5.094c0.065,0.064 0.067,0.172 0.004,0.237c-0.063,0.067 -0.168,0.069 -0.233,0.005l-0.003,-0.003Z" style="fill:#014263;fill-rule:nonzero;"/><path d="M31.475,10.701l-3.655,7.869c-0.606,1.313 -1.217,2.624 -1.836,3.929c-0.627,1.303 -1.249,2.607 -1.938,3.879c-0.022,0.04 -0.072,0.056 -0.112,0.033c-0.038,-0.021 -0.053,-0.065 -0.038,-0.104c0.512,-1.357 1.122,-2.669 1.74,-3.977c0.623,-1.306 1.266,-2.6 1.916,-3.892l1.93,-3.883c0.624,-1.304 1.254,-2.605 1.844,-3.925c0.018,-0.041 0.067,-0.06 0.109,-0.041c0.04,0.019 0.06,0.069 0.04,0.11l0,0.002Z" style="fill:#014263;fill-rule:nonzero;"/><path d="M27.359,22.334c-0.513,1.047 -0.997,2.108 -1.495,3.16l-1.443,3.184c-0.478,1.064 -0.96,2.125 -1.458,3.178c-0.505,1.051 -1.011,2.101 -1.599,3.11c-0.023,0.042 -0.073,0.056 -0.114,0.032c-0.035,-0.019 -0.049,-0.064 -0.035,-0.102c0.41,-1.094 0.903,-2.15 1.397,-3.205c0.502,-1.053 1.017,-2.097 1.54,-3.139l1.554,-3.133c0.5,-1.051 1.017,-2.097 1.502,-3.155l0.002,-0.003c0.02,-0.042 0.068,-0.059 0.11,-0.04c0.041,0.019 0.059,0.069 0.041,0.11l-0.002,0.003Z" style="fill:#014263;fill-rule:nonzero;"/><path d="M19.245,37.598c-0.9,1.784 -1.765,3.586 -2.636,5.386c-0.861,1.805 -1.699,3.619 -2.537,5.434l-2.505,5.451c-0.845,1.811 -1.683,3.625 -2.595,5.406c-0.021,0.04 -0.071,0.056 -0.112,0.035c-0.038,-0.019 -0.054,-0.065 -0.038,-0.105c0.734,-1.863 1.56,-3.685 2.395,-5.503c0.843,-1.814 1.707,-3.617 2.587,-5.414l5.294,-10.765c0.02,-0.041 0.07,-0.057 0.11,-0.038c0.042,0.021 0.058,0.07 0.039,0.112l-0.002,0.001Z" style="fill:#014263;fill-rule:nonzero;"/><path d="M66.225,29.87c-0.747,1.7 -1.466,3.41 -2.198,5.116l-2.145,5.137c-0.711,1.715 -1.43,3.426 -2.161,5.131c-0.739,1.703 -1.479,3.404 -2.304,5.069c-0.02,0.04 -0.07,0.058 -0.11,0.037c-0.039,-0.019 -0.056,-0.066 -0.041,-0.104c0.644,-1.744 1.372,-3.451 2.1,-5.158c0.736,-1.703 1.486,-3.4 2.243,-5.095l2.257,-5.088c0.736,-1.704 1.488,-3.401 2.208,-5.11c0.017,-0.043 0.065,-0.063 0.107,-0.045c0.042,0.018 0.062,0.067 0.044,0.11Z" style="fill:#014263;fill-rule:nonzero;"/><path d="M52.976,60.206c-0.535,1.21 -1.041,2.432 -1.559,3.65l-1.498,3.677c-0.494,1.227 -1.001,2.451 -1.527,3.665c-0.534,1.212 -1.07,2.421 -1.693,3.592c-0.021,0.04 -0.071,0.056 -0.112,0.034c-0.037,-0.021 -0.053,-0.064 -0.039,-0.102c0.444,-1.252 0.968,-2.466 1.489,-3.682c0.529,-1.211 1.069,-2.419 1.61,-3.626l1.61,-3.628c0.521,-1.216 1.058,-2.424 1.568,-3.647c0.019,-0.041 0.065,-0.062 0.109,-0.043c0.042,0.018 0.061,0.066 0.044,0.109l-0.002,0.001Z" style="fill:#014263;fill-rule:nonzero;"/><path d="M7.344,62.654c-0.335,0.704 -0.594,1.442 -0.815,2.189c-0.209,0.749 -0.375,1.52 -0.451,2.285c-0.091,0.765 0.073,1.494 0.427,2.17c0.343,0.678 0.78,1.3 1.271,1.9c0.03,0.036 0.025,0.088 -0.011,0.119l-0.102,0.003c-0.637,-0.475 -1.147,-1.125 -1.503,-1.846c-0.176,-0.364 -0.324,-0.749 -0.392,-1.16c-0.065,-0.412 -0.045,-0.828 0.017,-1.223c0.135,-0.789 0.342,-1.545 0.576,-2.299c0.228,-0.755 0.522,-1.485 0.833,-2.208c0.018,-0.042 0.067,-0.061 0.109,-0.043c0.042,0.019 0.061,0.069 0.042,0.11l-0.001,0.003Z" style="fill:#014263;fill-rule:nonzero;"/><path d="M10.715,73.464c1.544,1.291 3.207,2.434 4.911,3.499c1.712,1.055 3.484,2.005 5.29,2.88c1.809,0.872 3.651,1.667 5.519,2.391c1.868,0.731 3.765,1.376 5.672,2.001c0.045,0.015 0.068,0.063 0.054,0.106c-0.014,0.041 -0.056,0.065 -0.096,0.056c-1.968,-0.437 -3.886,-1.074 -5.767,-1.797c-1.879,-0.733 -3.718,-1.566 -5.513,-2.486c-1.796,-0.917 -3.548,-1.92 -5.251,-3c-1.708,-1.072 -3.354,-2.247 -4.924,-3.52c-0.035,-0.029 -0.042,-0.082 -0.012,-0.119c0.028,-0.035 0.081,-0.041 0.117,-0.013l-0,0.002Z" style="fill:#014263;fill-rule:nonzero;"/><path d="M44.777,81.304c-0.43,0.776 -0.834,1.574 -1.366,2.296c-0.523,0.725 -1.161,1.389 -1.957,1.84c-0.397,0.226 -0.835,0.379 -1.285,0.466c-0.449,0.081 -0.908,0.094 -1.358,0.065c-0.904,-0.067 -1.769,-0.312 -2.593,-0.629c-0.044,-0.016 -0.065,-0.065 -0.048,-0.108c0.014,-0.037 0.053,-0.06 0.09,-0.053c0.874,0.136 1.724,0.331 2.578,0.4c0.85,0.067 1.715,-0.027 2.481,-0.407c0.77,-0.372 1.423,-0.984 1.952,-1.68c0.524,-0.704 0.957,-1.48 1.359,-2.27c0.022,-0.04 0.072,-0.056 0.112,-0.035c0.041,0.021 0.056,0.072 0.036,0.112l-0.001,0.003Z" style="fill:#014263;fill-rule:nonzero;"/><path d="M8.218,69.248c1.025,0.96 2.111,1.85 3.222,2.706c1.118,0.846 2.278,1.632 3.465,2.374c1.189,0.738 2.404,1.432 3.639,2.085c1.23,0.662 2.486,1.27 3.733,1.912c0.042,0.021 0.058,0.072 0.037,0.113c-0.02,0.037 -0.062,0.055 -0.101,0.04c-1.33,-0.46 -2.605,-1.062 -3.85,-1.718c-1.243,-0.664 -2.448,-1.394 -3.618,-2.178c-1.171,-0.78 -2.305,-1.617 -3.411,-2.488c-1.114,-0.86 -2.18,-1.782 -3.228,-2.723c-0.034,-0.03 -0.037,-0.083 -0.006,-0.118l0.116,-0.007l0.002,0.002Z" style="fill:#014263;fill-rule:nonzero;"/><path d="M25.524,79.747c1.126,0.488 2.264,0.946 3.411,1.381c1.149,0.424 2.313,0.813 3.487,1.146c1.178,0.329 2.368,0.598 3.569,0.774c1.201,0.184 2.416,0.242 3.638,0.326c0.045,0.004 0.081,0.044 0.078,0.09c-0.003,0.042 -0.036,0.075 -0.076,0.078c-1.226,0.112 -2.47,0.069 -3.696,-0.107c-1.224,-0.184 -2.425,-0.493 -3.597,-0.873c-1.174,-0.375 -2.322,-0.818 -3.465,-1.269c-1.148,-0.439 -2.275,-0.93 -3.413,-1.391c-0.044,-0.017 -0.064,-0.065 -0.047,-0.108c0.017,-0.044 0.065,-0.064 0.107,-0.047l0.004,0Z" style="fill:#014263;fill-rule:nonzero;"/><path d="M26.581,13.01c-1.146,-0.613 -2.381,-1.05 -3.644,-1.34c-0.632,-0.14 -1.277,-0.236 -1.918,-0.283c-0.641,-0.048 -1.277,0.019 -1.872,0.242c-0.594,0.216 -1.146,0.549 -1.647,0.947c-0.506,0.392 -0.969,0.842 -1.381,1.336c-0.84,0.978 -1.492,2.109 -2.114,3.261c-0.022,0.041 -0.072,0.057 -0.112,0.035c-0.038,-0.021 -0.052,-0.064 -0.039,-0.102c0.449,-1.247 1.109,-2.428 1.972,-3.45c0.868,-1.008 1.943,-1.885 3.226,-2.312c0.638,-0.216 1.33,-0.262 1.985,-0.192c0.658,0.067 1.299,0.198 1.939,0.346c1.278,0.297 2.51,0.769 3.682,1.363c0.04,0.021 0.057,0.07 0.037,0.112c-0.022,0.041 -0.072,0.057 -0.112,0.037l-0.002,-0Z" style="fill:#014263;fill-rule:nonzero;"/><path d="M12.434,19.285c-0.616,1.134 -1.197,2.288 -1.782,3.438c-0.575,1.155 -1.129,2.322 -1.683,3.488l-1.647,3.506c-0.56,1.163 -1.112,2.328 -1.739,3.461c-0.023,0.04 -0.073,0.054 -0.114,0.032c-0.035,-0.021 -0.051,-0.064 -0.037,-0.103c0.451,-1.216 0.991,-2.39 1.542,-3.56c0.556,-1.166 1.135,-2.321 1.731,-3.47l3.582,-6.872c0.021,-0.04 0.072,-0.056 0.112,-0.035c0.041,0.02 0.056,0.072 0.035,0.113l-0,0.002Z" style="fill:#014263;fill-rule:nonzero;"/><path d="M11.922,23.168c-0.268,0.494 -0.506,1.005 -0.758,1.507c-0.244,0.507 -0.479,1.019 -0.709,1.535c-0.23,0.513 -0.47,1.024 -0.722,1.526c-0.252,0.504 -0.523,0.997 -0.86,1.454c-0.028,0.039 -0.079,0.047 -0.117,0.018l-0.031,-0.093c0.171,-0.545 0.408,-1.056 0.664,-1.557c0.257,-0.5 0.526,-0.995 0.803,-1.484c0.278,-0.49 0.551,-0.983 0.815,-1.479c0.257,-0.501 0.526,-0.995 0.767,-1.504c0.02,-0.041 0.068,-0.059 0.11,-0.038c0.041,0.019 0.06,0.069 0.039,0.11l-0.001,0.005Z" style="fill:#014263;fill-rule:nonzero;"/><path d="M4.533,35.971c-0.588,1.226 -1.148,2.469 -1.515,3.775c-0.355,1.3 -0.465,2.686 -0.165,3.987c0.283,1.31 1.076,2.435 2.125,3.237c1.04,0.822 2.266,1.39 3.461,2.024c0.04,0.02 0.056,0.072 0.034,0.113c-0.019,0.037 -0.062,0.053 -0.101,0.04c-1.271,-0.454 -2.532,-1.016 -3.632,-1.869c-0.538,-0.435 -1.041,-0.936 -1.414,-1.534c-0.38,-0.592 -0.63,-1.262 -0.764,-1.947c-0.274,-1.375 -0.096,-2.789 0.289,-4.101c0.374,-1.323 0.971,-2.558 1.533,-3.797c0.018,-0.041 0.068,-0.059 0.108,-0.041c0.042,0.02 0.061,0.07 0.041,0.112l-0,0.001Z" style="fill:#014263;fill-rule:nonzero;"/><path d="M6.756,33.682c-0.389,0.768 -0.728,1.561 -1.055,2.36c-0.317,0.801 -0.6,1.616 -0.854,2.441c-0.246,0.826 -0.51,1.648 -0.656,2.479c-0.143,0.828 -0.17,1.67 0.107,2.472c0.016,0.043 -0.006,0.091 -0.05,0.107c-0.037,0.013 -0.078,-0.002 -0.098,-0.035c-0.476,-0.775 -0.501,-1.754 -0.34,-2.613c0.16,-0.875 0.46,-1.695 0.759,-2.507c0.306,-0.813 0.63,-1.616 0.972,-2.412c0.33,-0.8 0.701,-1.582 1.067,-2.366c0.019,-0.043 0.068,-0.061 0.109,-0.04c0.042,0.019 0.059,0.069 0.04,0.11l-0.001,0.004Z" style="fill:#014263;fill-rule:nonzero;"/><path d="M40.815,13.394l2.002,0.689c0.667,0.232 1.333,0.469 1.994,0.731c0.659,0.263 1.305,0.567 1.923,0.928c0.617,0.36 1.204,0.788 1.692,1.317l-0.005,0.119l-0.101,0.009c-0.599,-0.374 -1.18,-0.75 -1.781,-1.107c-0.599,-0.355 -1.218,-0.683 -1.846,-0.992c-0.63,-0.31 -1.279,-0.586 -1.935,-0.838c-0.662,-0.244 -1.323,-0.485 -1.995,-0.698c-0.043,-0.013 -0.068,-0.059 -0.054,-0.104c0.014,-0.043 0.059,-0.069 0.103,-0.054l0.003,-0Z" style="fill:#014263;fill-rule:nonzero;"/><path d="M52.978,33.336c-0.26,0.643 -0.534,1.283 -0.862,1.894c-0.319,0.618 -0.671,1.218 -1.056,1.799c-0.386,0.579 -0.844,1.144 -1.46,1.537c-0.603,0.388 -1.404,0.572 -2.087,0.288c-0.042,-0.017 -0.062,-0.067 -0.045,-0.11c0.014,-0.035 0.053,-0.056 0.088,-0.051c0.658,0.073 1.29,-0.123 1.839,-0.459c0.551,-0.344 1.008,-0.847 1.427,-1.381c0.421,-0.536 0.804,-1.107 1.14,-1.707c0.326,-0.602 0.63,-1.223 0.862,-1.871c0.015,-0.043 0.062,-0.065 0.105,-0.049c0.044,0.016 0.066,0.064 0.05,0.107l-0.001,0.003Z" style="fill:#014263;fill-rule:nonzero;"/><path d="M51.238,34.55c-0.252,0.62 -0.57,1.208 -0.973,1.754c-0.204,0.269 -0.433,0.523 -0.699,0.733c-0.264,0.213 -0.564,0.385 -0.902,0.457c-0.045,0.01 -0.092,-0.02 -0.101,-0.067l0.025,-0.081c0.239,-0.234 0.49,-0.421 0.737,-0.618c0.244,-0.197 0.492,-0.397 0.719,-0.622c0.462,-0.444 0.834,-0.999 1.039,-1.615c0.014,-0.043 0.062,-0.067 0.104,-0.053c0.044,0.016 0.067,0.064 0.053,0.108l-0.002,0.004Z" style="fill:#014263;fill-rule:nonzero;"/><path d="M70.812,20.654c-0.246,0.792 -0.611,1.548 -1.108,2.21c-0.488,0.667 -1.087,1.256 -1.778,1.725c-0.689,0.467 -1.473,0.793 -2.291,0.958c-0.815,0.167 -1.674,0.16 -2.47,-0.072c-0.044,-0.013 -0.069,-0.059 -0.056,-0.104c0.011,-0.038 0.047,-0.062 0.084,-0.061c0.804,0.042 1.593,0.005 2.367,-0.147c0.774,-0.152 1.525,-0.427 2.211,-0.829c0.687,-0.4 1.3,-0.94 1.793,-1.577c0.486,-0.642 0.876,-1.368 1.089,-2.149c0.013,-0.045 0.058,-0.07 0.103,-0.059c0.044,0.013 0.07,0.059 0.058,0.104l-0.002,0.001Z" style="fill:#014263;fill-rule:nonzero;"/><path d="M68.717,21.875c-0.325,0.562 -0.742,1.066 -1.248,1.487c-0.255,0.208 -0.537,0.388 -0.845,0.51c-0.306,0.123 -0.639,0.192 -0.972,0.141c-0.046,-0.007 -0.079,-0.051 -0.073,-0.098l0.051,-0.067c0.291,-0.136 0.571,-0.232 0.851,-0.342c0.279,-0.114 0.557,-0.234 0.822,-0.389c0.53,-0.303 0.992,-0.762 1.269,-1.322c0.02,-0.04 0.07,-0.057 0.11,-0.037c0.042,0.021 0.058,0.071 0.038,0.112l-0.003,0.005Z" style="fill:#014263;fill-rule:nonzero;"/><path d="M65.105,13.059c-0.252,-0.694 -0.632,-1.336 -1.072,-1.921c-0.448,-0.583 -0.979,-1.096 -1.565,-1.528c-0.585,-0.432 -1.215,-0.797 -1.876,-1.087c-0.661,-0.288 -1.346,-0.509 -2.053,-0.704c-0.045,-0.013 -0.072,-0.059 -0.059,-0.104c0.009,-0.037 0.045,-0.062 0.08,-0.062c0.753,0.009 1.498,0.205 2.188,0.512c0.689,0.307 1.331,0.718 1.904,1.209c0.57,0.492 1.082,1.048 1.521,1.656c0.448,0.604 0.801,1.272 1.086,1.968c0.017,0.042 -0.003,0.092 -0.045,0.109c-0.042,0.018 -0.091,-0.003 -0.108,-0.045l-0.001,-0.003Z" style="fill:#014263;fill-rule:nonzero;"/><path d="M63.138,12.024c-0.413,-0.554 -0.93,-1.027 -1.499,-1.411c-0.282,-0.197 -0.573,-0.373 -0.859,-0.557c-0.288,-0.182 -0.574,-0.362 -0.841,-0.598c-0.036,-0.031 -0.041,-0.087 -0.01,-0.122l0.081,-0.029c0.356,0.067 0.678,0.226 0.977,0.416c0.3,0.187 0.576,0.416 0.835,0.655c0.518,0.486 0.991,1.004 1.446,1.542c0.029,0.035 0.024,0.088 -0.01,0.117c-0.034,0.03 -0.087,0.027 -0.116,-0.008l-0.004,-0.005Z" style="fill:#014263;fill-rule:nonzero;"/><path d="M43.476,5.266c1.59,0.681 3.006,1.723 4.21,2.96c1.222,1.22 2.294,2.58 3.347,3.942c0.526,0.682 1.052,1.363 1.59,2.029c0.537,0.665 1.097,1.309 1.736,1.853c0.635,0.548 1.347,1.001 2.139,1.252c0.782,0.264 1.636,0.332 2.445,0.114c0.044,-0.013 0.09,0.013 0.103,0.058c0.011,0.041 -0.013,0.084 -0.05,0.1c-0.409,0.162 -0.851,0.24 -1.291,0.248c-0.443,-0.001 -0.884,-0.062 -1.308,-0.184c-0.85,-0.248 -1.627,-0.715 -2.289,-1.289c-1.328,-1.165 -2.282,-2.626 -3.311,-3.999c-1.019,-1.384 -2.041,-2.769 -3.234,-4c-1.189,-1.227 -2.572,-2.284 -4.147,-2.929c-0.044,-0.016 -0.064,-0.064 -0.049,-0.107c0.017,-0.044 0.066,-0.066 0.108,-0.048l0.001,-0Z" style="fill:#014263;fill-rule:nonzero;"/><path d="M53.083,12.258c0.31,0.401 0.587,0.822 0.873,1.228c0.291,0.404 0.63,0.764 1.011,1.069c0.381,0.306 0.789,0.57 1.215,0.795c0.429,0.224 0.868,0.415 1.321,0.626c0.042,0.019 0.06,0.07 0.042,0.112l-0.081,0.051c-0.514,-0.03 -1.01,-0.2 -1.462,-0.443c-0.452,-0.245 -0.867,-0.555 -1.231,-0.918c-0.362,-0.362 -0.681,-0.765 -0.958,-1.189c-0.286,-0.415 -0.532,-0.853 -0.857,-1.226c-0.03,-0.033 -0.027,-0.086 0.008,-0.117c0.034,-0.032 0.085,-0.027 0.116,0.007l0.003,0.005Z" style="fill:#014263;fill-rule:nonzero;"/><path d="M58.803,35.71l-3.372,7.736l-3.32,7.759l-3.337,7.75c-1.127,2.576 -2.261,5.151 -3.476,7.69c-0.019,0.041 -0.067,0.059 -0.109,0.04c-0.041,-0.019 -0.058,-0.067 -0.042,-0.107c1.036,-2.616 2.153,-5.199 3.276,-7.778l3.416,-7.717l3.433,-7.709l3.38,-7.732c0.019,-0.042 0.067,-0.061 0.109,-0.042c0.042,0.019 0.061,0.069 0.042,0.11Z" style="fill:#014263;fill-rule:nonzero;"/><path d="M20.325,72.334c4.989,3.269 10.669,5.448 16.546,6.349c0.106,0.016 0.206,-0.059 0.223,-0.166c0.015,-0.107 -0.058,-0.208 -0.165,-0.226c-5.821,-0.889 -11.451,-3.049 -16.393,-6.288c-0.09,-0.059 -0.211,-0.033 -0.27,0.058c-0.058,0.093 -0.031,0.214 0.059,0.273Z" style="fill:#014263;fill-rule:nonzero;"/><path d="M25.69,73.666c2.361,1.232 4.869,2.176 7.451,2.804c0.104,0.026 0.21,-0.04 0.235,-0.145c0.025,-0.106 -0.039,-0.213 -0.143,-0.239c-2.553,-0.622 -5.031,-1.553 -7.364,-2.771c-0.095,-0.049 -0.213,-0.011 -0.263,0.085c-0.048,0.098 -0.011,0.216 0.084,0.266Z" style="fill:#014263;fill-rule:nonzero;"/><path d="M32.082,23.957c-5.151,10.128 -10.332,20.333 -13.871,31.097c-0.352,1.069 -0.688,2.268 -0.317,3.194c0.486,1.21 2.025,1.342 3.198,0.653c1.171,-0.688 2.045,-1.959 2.834,-3.199c5.575,-8.761 9.57,-18.515 13.428,-28.209c0.906,-2.275 2,-5.786 0.211,-7.442c-2.103,-1.942 -4.408,1.794 -5.483,3.906Z" style="fill:#fcda28;fill-rule:nonzero;"/><path d="M14.411,64.792c-0.403,0.115 -0.836,0.309 -0.991,0.701c-0.145,0.366 0.009,0.801 0.281,1.083c0.274,0.283 0.643,0.445 1.007,0.589c1.594,0.632 3.271,1.053 4.973,1.249c0.365,0.042 0.737,0.074 1.095,-0.008c0.358,-0.083 0.703,-0.296 0.862,-0.63c0.166,-0.352 0.099,-0.781 -0.094,-1.118c-0.192,-0.336 -0.496,-0.592 -0.813,-0.813c-1.728,-1.21 -4.293,-1.631 -6.32,-1.053Z" style="fill:#fcda28;fill-rule:nonzero;"/><path d="M27.138,68.098c-3.111,-1.572 -6.5,-2.578 -9.958,-2.954c-0.108,-0.011 -0.204,0.067 -0.215,0.176c-0.011,0.107 0.065,0.205 0.173,0.216c3.411,0.371 6.757,1.365 9.826,2.915c0.096,0.048 0.213,0.01 0.261,-0.088c0.049,-0.097 0.01,-0.217 -0.087,-0.265Z" style="fill:#014263;fill-rule:nonzero;"/><path d="M40.84,19.742c0.093,-0.324 0.289,-0.641 0.594,-0.849c0.298,-0.21 0.711,-0.287 1.084,-0.155c0.378,0.118 0.678,0.433 0.815,0.779c0.137,0.349 0.149,0.725 0.055,1.067c-0.049,0.171 -0.131,0.35 -0.265,0.493c-0.129,0.139 -0.288,0.233 -0.449,0.297c-0.327,0.125 -0.683,0.111 -0.996,-0.003c-0.646,-0.219 -1.019,-0.966 -0.838,-1.629Zm0.259,0.087c-0.091,0.245 -0.07,0.542 0.058,0.782c0.127,0.242 0.356,0.411 0.611,0.487c0.512,0.158 1.131,-0.135 1.142,-0.621c0.075,-0.506 -0.204,-1.005 -0.593,-1.12c-0.196,-0.061 -0.423,-0.064 -0.659,-0.008c-0.115,0.033 -0.229,0.088 -0.333,0.165c-0.097,0.084 -0.173,0.192 -0.226,0.315Z" style="fill:#014263;fill-rule:nonzero;"/><path d="M43.318,24.592c-0.218,-0.096 -0.444,-0.254 -0.578,-0.498c-0.136,-0.238 -0.166,-0.548 -0.054,-0.814c0.05,-0.133 0.126,-0.261 0.229,-0.365c0.096,-0.101 0.219,-0.193 0.378,-0.246c0.309,-0.099 0.592,-0.011 0.81,0.117c0.221,0.132 0.4,0.329 0.492,0.584c0.046,0.124 0.046,0.281 0.026,0.398c-0.02,0.107 -0.045,0.219 -0.089,0.333c-0.085,0.232 -0.289,0.419 -0.511,0.496c-0.221,0.08 -0.473,0.093 -0.703,-0.005Zm0.118,-0.25c0.143,0.084 0.337,0.098 0.501,0.031c0.168,-0.067 0.284,-0.202 0.328,-0.368c0.025,-0.083 0.033,-0.178 0.039,-0.279c0.001,-0.088 -0.006,-0.147 -0.047,-0.214c-0.073,-0.131 -0.219,-0.232 -0.367,-0.282c-0.333,-0.102 -0.496,0.029 -0.604,0.282c-0.037,0.123 -0.07,0.258 -0.071,0.413c-0,0.153 0.07,0.328 0.221,0.417Z" style="fill:#014263;fill-rule:nonzero;"/><path d="M40.264,22.946c-0.227,0.051 -0.367,0.371 -0.268,0.571c0.084,0.216 0.396,0.291 0.52,0.179c0.146,-0.101 0.187,-0.314 0.14,-0.397c-0.056,-0.105 -0.162,-0.259 -0.401,-0.344l-0.045,-0.014c-0.075,-0.027 -0.116,-0.111 -0.089,-0.186l0.037,-0.057c0.157,-0.151 0.409,-0.176 0.615,-0.104c0.205,0.073 0.393,0.233 0.482,0.467c0.093,0.24 0.054,0.507 -0.059,0.701c-0.114,0.195 -0.296,0.34 -0.512,0.398c-0.454,0.106 -0.842,-0.181 -0.958,-0.546c-0.109,-0.385 0.098,-0.774 0.448,-0.929l0.004,-0.002c0.07,-0.032 0.151,0 0.182,0.071c0.03,0.07 -0.001,0.153 -0.071,0.184l-0.025,0.008Z" style="fill:#014263;fill-rule:nonzero;"/><path d="M26.808,48.304c-0.141,-0.36 -0.185,-0.787 -0.054,-1.194c0.128,-0.401 0.446,-0.766 0.876,-0.91c0.424,-0.162 0.916,-0.091 1.278,0.123c0.368,0.218 0.643,0.547 0.795,0.927c0.077,0.187 0.128,0.409 0.106,0.632c-0.02,0.219 -0.098,0.417 -0.202,0.59c-0.213,0.342 -0.538,0.587 -0.902,0.706c-0.739,0.26 -1.596,-0.148 -1.897,-0.874Zm0.296,-0.109c0.089,0.288 0.316,0.541 0.599,0.666c0.283,0.129 0.608,0.121 0.893,0.006c0.283,-0.113 0.524,-0.334 0.644,-0.6c0.06,-0.133 0.092,-0.273 0.082,-0.401c-0.006,-0.127 -0.053,-0.248 -0.124,-0.373c-0.285,-0.511 -0.887,-0.763 -1.319,-0.591c-0.221,0.085 -0.428,0.244 -0.604,0.463c-0.081,0.112 -0.146,0.241 -0.185,0.385c-0.03,0.146 -0.023,0.298 0.014,0.445Z" style="fill:#014263;fill-rule:nonzero;"/><path d="M28.524,51.608c-0.169,0.208 -0.071,0.597 0.157,0.707c0.227,0.135 0.562,-0.019 0.596,-0.209c0.062,-0.196 -0.05,-0.416 -0.149,-0.456c-0.126,-0.058 -0.33,-0.12 -0.605,-0.026l-0.052,0.018c-0.087,0.028 -0.18,-0.018 -0.21,-0.104l-0.006,-0.08c0.037,-0.248 0.251,-0.45 0.485,-0.53c0.237,-0.085 0.518,-0.069 0.761,0.077c0.251,0.149 0.405,0.419 0.437,0.675c0.034,0.258 -0.029,0.52 -0.185,0.726c-0.157,0.212 -0.398,0.319 -0.617,0.343c-0.223,0.024 -0.447,-0.024 -0.63,-0.152c-0.369,-0.271 -0.453,-0.77 -0.245,-1.16l0.002,-0.007c0.042,-0.076 0.138,-0.105 0.215,-0.064c0.076,0.042 0.105,0.14 0.063,0.216l-0.017,0.026Z" style="fill:#014263;fill-rule:nonzero;"/><path d="M39.331,62.301c0.269,-0.306 0.644,-0.562 1.084,-0.631c0.435,-0.08 0.911,0.037 1.268,0.33c0.18,0.142 0.337,0.318 0.448,0.525c0.06,0.101 0.101,0.211 0.138,0.32c0.033,0.113 0.069,0.248 0.064,0.369c0.005,0.512 -0.246,0.925 -0.548,1.22c-0.308,0.296 -0.701,0.5 -1.14,0.529c-0.216,0.021 -0.449,-0.049 -0.631,-0.136c-0.17,-0.086 -0.343,-0.181 -0.504,-0.305c-0.335,-0.248 -0.534,-0.671 -0.546,-1.074c-0.021,-0.405 0.093,-0.826 0.367,-1.147Zm0.228,0.217c-0.227,0.228 -0.351,0.575 -0.325,0.911c0.024,0.341 0.198,0.641 0.468,0.825c0.137,0.096 0.296,0.167 0.462,0.236c0.154,0.056 0.288,0.083 0.442,0.052c0.297,-0.051 0.577,-0.251 0.77,-0.496c0.195,-0.241 0.311,-0.548 0.271,-0.79c-0.005,-0.062 -0.025,-0.11 -0.045,-0.174c-0.028,-0.064 -0.055,-0.128 -0.095,-0.184c-0.072,-0.119 -0.165,-0.224 -0.277,-0.308c-0.222,-0.169 -0.493,-0.288 -0.792,-0.336c-0.298,-0.051 -0.638,0.029 -0.879,0.264Z" style="fill:#014263;fill-rule:nonzero;"/><path d="M44.008,56.314c0.139,-0.162 0.33,-0.312 0.568,-0.365c0.235,-0.056 0.501,0.001 0.697,0.165c0.098,0.078 0.187,0.176 0.246,0.291c0.06,0.109 0.105,0.238 0.109,0.389c-0.002,0.289 -0.145,0.51 -0.31,0.665c-0.17,0.154 -0.381,0.256 -0.618,0.267c-0.116,0.01 -0.247,-0.032 -0.34,-0.08c-0.086,-0.044 -0.173,-0.096 -0.257,-0.161c-0.176,-0.131 -0.278,-0.359 -0.283,-0.568c-0.009,-0.211 0.045,-0.431 0.188,-0.603Zm0.178,0.168c-0.108,0.1 -0.17,0.262 -0.156,0.42c0.012,0.162 0.095,0.295 0.222,0.376c0.064,0.045 0.142,0.077 0.223,0.108c0.075,0.024 0.126,0.032 0.194,0.014c0.129,-0.027 0.252,-0.126 0.332,-0.242c0.179,-0.257 0.104,-0.433 -0.078,-0.588c-0.092,-0.068 -0.199,-0.127 -0.328,-0.168c-0.129,-0.042 -0.294,-0.028 -0.409,0.08Z" style="fill:#014263;fill-rule:nonzero;"/><path d="M39.412,58.134c-0.324,0.679 -0.041,1.493 0.631,1.82c0.671,0.326 1.476,0.04 1.798,-0.639c0.324,-0.68 0.041,-1.494 -0.631,-1.821c-0.671,-0.324 -1.476,-0.04 -1.798,0.64Z" style="fill:#fff;fill-rule:nonzero;"/><path d="M42.837,62.126c-0.191,0.402 -0.023,0.885 0.375,1.079c0.398,0.192 0.874,0.022 1.065,-0.379c0.192,-0.404 0.024,-0.885 -0.375,-1.079c-0.396,-0.193 -0.874,-0.024 -1.065,0.379Z" style="fill:#fff;fill-rule:nonzero;"/><path d="M39.693,67.858c-0.14,0.297 -0.017,0.654 0.277,0.796c0.294,0.143 0.647,0.018 0.789,-0.28c0.14,-0.297 0.017,-0.654 -0.277,-0.796c-0.294,-0.143 -0.647,-0.018 -0.789,0.28Z" style="fill:#fff;fill-rule:nonzero;"/><path d="M40.378,27.912c-0.263,0.552 -0.033,1.214 0.513,1.478c0.544,0.266 1.199,0.032 1.462,-0.518c0.261,-0.552 0.031,-1.214 -0.513,-1.48c-0.546,-0.264 -1.201,-0.032 -1.462,0.52Z" style="fill:#fff;fill-rule:nonzero;"/><path d="M63.493,36.291c-0.127,0.269 -0.015,0.589 0.249,0.719c0.266,0.128 0.583,0.016 0.711,-0.253c0.126,-0.267 0.015,-0.589 -0.251,-0.717c-0.264,-0.13 -0.581,-0.016 -0.709,0.251Z" style="fill:#fff;fill-rule:nonzero;"/><path d="M30.486,21.95c-1.186,2.551 -2.329,5.12 -3.494,7.682l-3.416,7.715l-1.705,3.861l-1.733,3.846c-1.174,2.557 -2.35,5.112 -3.649,7.607c-0.033,0.062 -0.107,0.086 -0.168,0.053c-0.056,-0.029 -0.079,-0.1 -0.056,-0.159c1.033,-2.622 2.189,-5.185 3.347,-7.747l1.766,-3.83l1.794,-3.818l3.582,-7.638c1.168,-2.559 2.358,-5.106 3.506,-7.676c0.027,-0.062 0.1,-0.091 0.162,-0.064c0.064,0.028 0.092,0.101 0.065,0.165l-0.001,0.003Z" style="fill:#014263;fill-rule:nonzero;"/><path d="M51.932,10.83c-0.14,-0.15 -0.247,-0.353 -0.26,-0.58c-0.015,-0.224 0.069,-0.471 0.256,-0.628c0.178,-0.164 0.437,-0.227 0.658,-0.193c0.225,0.035 0.424,0.144 0.574,0.301c0.076,0.078 0.144,0.177 0.177,0.292c0.031,0.112 0.033,0.226 0.015,0.333c-0.035,0.213 -0.154,0.399 -0.309,0.53c-0.316,0.277 -0.82,0.245 -1.111,-0.055Zm0.125,-0.113c0.101,0.125 0.263,0.205 0.427,0.211c0.167,0.006 0.326,-0.062 0.444,-0.176c0.242,-0.224 0.28,-0.645 0.029,-0.8c-0.241,-0.197 -0.588,-0.203 -0.768,-0.03c-0.093,0.086 -0.167,0.204 -0.21,0.348c-0.039,0.143 -0.025,0.317 0.078,0.447Z" style="fill:#014263;fill-rule:nonzero;"/><path d="M50.347,9.331c-0.042,0.136 0.081,0.311 0.216,0.32c0.137,0.016 0.274,-0.121 0.254,-0.222c-0.003,-0.111 -0.107,-0.197 -0.163,-0.199c-0.074,-0.003 -0.186,0.007 -0.304,0.109l-0.026,0.021c-0.036,0.032 -0.09,0.027 -0.12,-0.01l-0.02,-0.04c-0.05,-0.276 0.236,-0.523 0.53,-0.473c0.322,0.057 0.47,0.385 0.398,0.645c-0.085,0.273 -0.354,0.396 -0.581,0.344c-0.235,-0.063 -0.375,-0.293 -0.349,-0.527l0.002,-0.005c0.004,-0.046 0.046,-0.08 0.093,-0.073c0.045,0.005 0.079,0.046 0.073,0.094l-0.003,0.016Z" style="fill:#014263;fill-rule:nonzero;"/><path d="M67.422,16.718c0.038,-0.203 0.136,-0.409 0.31,-0.555c0.168,-0.145 0.414,-0.222 0.65,-0.165c0.237,0.05 0.439,0.223 0.545,0.423c0.104,0.205 0.135,0.432 0.099,0.646c-0.018,0.107 -0.056,0.223 -0.129,0.317c-0.07,0.093 -0.16,0.162 -0.253,0.211c-0.193,0.098 -0.411,0.111 -0.607,0.061c-0.408,-0.093 -0.681,-0.523 -0.615,-0.938Zm0.165,0.036c-0.04,0.155 -0.009,0.334 0.084,0.473c0.092,0.139 0.243,0.227 0.403,0.258c0.321,0.064 0.68,-0.154 0.655,-0.451c0.014,-0.312 -0.188,-0.6 -0.431,-0.645c-0.123,-0.024 -0.263,-0.015 -0.403,0.037c-0.137,0.052 -0.267,0.168 -0.308,0.328Z" style="fill:#014263;fill-rule:nonzero;"/><path d="M69.238,19.514c-0.137,-0.045 -0.285,-0.127 -0.381,-0.266c-0.098,-0.136 -0.136,-0.322 -0.086,-0.491c0.048,-0.173 0.146,-0.322 0.33,-0.413c0.183,-0.077 0.361,-0.045 0.502,0.019c0.143,0.067 0.263,0.176 0.336,0.323c0.038,0.072 0.049,0.168 0.042,0.242c-0.006,0.067 -0.015,0.136 -0.032,0.208c-0.084,0.31 -0.423,0.458 -0.711,0.378Zm0.057,-0.159c0.19,0.096 0.464,-0.049 0.483,-0.259c0.01,-0.053 0.009,-0.112 0.006,-0.173c-0.006,-0.053 -0.016,-0.088 -0.044,-0.128c-0.05,-0.075 -0.146,-0.126 -0.239,-0.147c-0.21,-0.045 -0.301,0.051 -0.349,0.21c-0.017,0.076 -0.026,0.161 -0.017,0.256c0.009,0.094 0.062,0.195 0.16,0.241Z" style="fill:#014263;fill-rule:nonzero;"/><path d="M67.24,18.63c-0.16,0.077 -0.244,0.287 -0.18,0.455c0.064,0.169 0.264,0.27 0.436,0.217c0.169,-0.051 0.283,-0.246 0.244,-0.422c-0.048,-0.213 -0.314,-0.339 -0.506,-0.243" style="fill:#014263;fill-rule:nonzero;"/><path d="M67.276,18.707c-0.135,0.045 -0.199,0.248 -0.126,0.365c0.067,0.122 0.258,0.152 0.327,0.075c0.085,-0.067 0.093,-0.205 0.061,-0.249c-0.041,-0.063 -0.116,-0.149 -0.266,-0.184l-0.033,-0.008c-0.045,-0.012 -0.075,-0.058 -0.064,-0.106l0.022,-0.038c0.19,-0.205 0.557,-0.119 0.691,0.152c0.144,0.296 -0.03,0.611 -0.279,0.705c-0.269,0.093 -0.526,-0.053 -0.617,-0.27c-0.091,-0.227 0.009,-0.479 0.213,-0.595l0.003,-0.002c0.04,-0.024 0.092,-0.01 0.115,0.032c0.022,0.04 0.008,0.093 -0.033,0.115l-0.014,0.008Z" style="fill:#014263;fill-rule:nonzero;"/><path d="M61.11,24.619c-0.16,0.079 -0.244,0.288 -0.18,0.456c0.063,0.168 0.264,0.269 0.434,0.218c0.171,-0.051 0.284,-0.248 0.245,-0.423c-0.048,-0.212 -0.314,-0.339 -0.505,-0.243" style="fill:#014263;fill-rule:nonzero;"/><path d="M61.146,24.698c-0.136,0.044 -0.199,0.248 -0.126,0.363c0.067,0.123 0.258,0.153 0.326,0.077c0.086,-0.069 0.094,-0.205 0.061,-0.25c-0.04,-0.062 -0.115,-0.149 -0.266,-0.184l-0.033,-0.008c-0.046,-0.011 -0.074,-0.059 -0.063,-0.106l0.021,-0.038c0.19,-0.205 0.557,-0.118 0.691,0.152c0.145,0.294 -0.029,0.611 -0.278,0.706c-0.269,0.092 -0.526,-0.055 -0.618,-0.272c-0.09,-0.228 0.009,-0.477 0.213,-0.594l0.003,-0.002c0.041,-0.024 0.092,-0.009 0.115,0.032c0.022,0.04 0.008,0.093 -0.031,0.116l-0.015,0.008Z" style="fill:#014263;fill-rule:nonzero;"/><path d="M46.365,34.09c-0.011,-0.207 0.037,-0.431 0.174,-0.613c0.132,-0.181 0.353,-0.311 0.596,-0.309c0.243,-0.008 0.479,0.114 0.625,0.285c0.15,0.174 0.232,0.389 0.244,0.606c0.007,0.107 -0.004,0.229 -0.054,0.338c-0.047,0.107 -0.12,0.193 -0.201,0.264c-0.163,0.139 -0.373,0.203 -0.575,0.2c-0.419,0.003 -0.781,-0.352 -0.809,-0.771Zm0.166,-0.004c-0.003,0.16 0.069,0.328 0.19,0.44c0.121,0.116 0.288,0.167 0.45,0.159c0.328,-0.011 0.628,-0.307 0.536,-0.591c-0.057,-0.307 -0.319,-0.54 -0.564,-0.528c-0.126,0.005 -0.26,0.047 -0.385,0.128c-0.121,0.084 -0.222,0.226 -0.227,0.392Z" style="fill:#014263;fill-rule:nonzero;"/><path d="M46.671,36.059c-0.121,0.075 -0.138,0.288 -0.04,0.384c0.093,0.104 0.286,0.09 0.336,-0.001c0.067,-0.087 0.043,-0.221 0.001,-0.258c-0.052,-0.051 -0.144,-0.117 -0.3,-0.117l-0.034,-0.001c-0.047,-0 -0.086,-0.039 -0.084,-0.087l0.011,-0.043c0.138,-0.243 0.515,-0.243 0.706,-0.011c0.209,0.253 0.111,0.601 -0.11,0.752c-0.241,0.152 -0.525,0.069 -0.663,-0.122c-0.138,-0.201 -0.098,-0.467 0.073,-0.629l0.002,-0.001c0.035,-0.032 0.088,-0.031 0.119,0.003c0.032,0.035 0.03,0.09 -0.004,0.122l-0.013,0.009Z" style="fill:#014263;fill-rule:nonzero;"/><path d="M61.028,23.592c-0.145,0 -0.31,-0.032 -0.444,-0.136c-0.135,-0.098 -0.227,-0.264 -0.23,-0.44c-0.006,-0.181 0.044,-0.352 0.19,-0.494c0.151,-0.132 0.33,-0.156 0.484,-0.138c0.155,0.019 0.303,0.086 0.418,0.205c0.058,0.056 0.096,0.144 0.112,0.216c0.016,0.065 0.028,0.134 0.031,0.209c0.014,0.322 -0.264,0.567 -0.561,0.578Zm0.007,-0.17c0.209,0.034 0.425,-0.188 0.38,-0.395c-0.005,-0.053 -0.025,-0.107 -0.047,-0.165c-0.022,-0.049 -0.04,-0.08 -0.079,-0.108c-0.07,-0.056 -0.177,-0.076 -0.272,-0.068c-0.215,0.023 -0.271,0.141 -0.269,0.309c0.007,0.079 0.023,0.162 0.06,0.248c0.038,0.087 0.118,0.167 0.227,0.179Z" style="fill:#014263;fill-rule:nonzero;"/><path d="M59.022,24.357c-0.113,0.085 -0.113,0.297 -0.009,0.385c0.101,0.096 0.293,0.068 0.335,-0.028c0.06,-0.092 0.026,-0.223 -0.019,-0.256c-0.058,-0.048 -0.154,-0.106 -0.308,-0.093l-0.034,0.001c-0.047,0.004 -0.087,-0.032 -0.092,-0.08l0.009,-0.043c0.118,-0.253 0.493,-0.285 0.703,-0.069c0.227,0.237 0.156,0.591 -0.053,0.759c-0.227,0.171 -0.516,0.11 -0.668,-0.069c-0.156,-0.189 -0.136,-0.458 0.023,-0.632l0.001,-0.002c0.033,-0.035 0.086,-0.036 0.12,-0.006c0.034,0.032 0.036,0.086 0.005,0.122l-0.013,0.011Z" style="fill:#014263;fill-rule:nonzero;"/><path d="M45.25,54.522c-0.005,0.713 0.192,1.427 0.536,2.043c0.165,0.31 0.36,0.6 0.548,0.889c0.194,0.29 0.389,0.568 0.55,0.909c0.028,0.056 0.005,0.125 -0.051,0.154l-0.101,-0.002c-0.347,-0.174 -0.61,-0.459 -0.817,-0.774c-0.213,-0.315 -0.364,-0.666 -0.482,-1.023c-0.224,-0.721 -0.351,-1.451 -0.398,-2.19c-0.003,-0.061 0.042,-0.112 0.101,-0.117c0.059,-0.003 0.11,0.042 0.114,0.103l-0,0.008Z" style="fill:#014263;fill-rule:nonzero;"/><g><path d="M109.399,51.464c3.389,-1.478 6.748,-3.091 9.941,-5.019c1.796,-1.085 3.795,-2.287 5.247,-3.949c-0.338,-0.547 -3.182,-0.036 -3.498,0.012c-2.371,0.36 -4.729,0.905 -7.068,1.555c-0.522,1.568 -1.056,3.198 -1.807,4.596c-0.538,1.002 -1.434,1.638 -2.504,1.24c-0.133,-0.05 -0.173,-0.247 -0.122,-0.371c0.622,-1.543 1.178,-3.19 1.885,-4.716c-3.024,0.935 -6.015,2.005 -8.957,3.061c-4.235,1.522 -8.461,3.089 -12.594,4.912c-3.822,1.686 -8.045,3.41 -11.22,6.354c0.049,0.037 0.098,0.073 0.147,0.11c2.607,0.438 5.387,-0.022 7.937,-0.485c7.736,-1.407 15.36,-4.135 22.613,-7.3Z" style="fill:#f8f8f8;"/><path d="M111.032,51.899c-0.448,2.34 -1.478,4.62 -2.332,6.807c-0.296,0.757 -0.602,1.509 -0.91,2.26c0.031,0.001 0.065,0.01 0.099,0.035c2.322,1.767 3.417,5.371 2.224,8.19c-2.22,5.242 -9.476,4.152 -11.586,-0.69c-2.174,-4.99 2.322,-10.356 7.048,-8.985c0.145,0.042 0.108,0.276 -0.043,0.251c-2.744,-0.458 -5.692,0.992 -6.7,3.899c-1.014,2.927 0.266,6.012 2.717,7.545c2.422,1.515 5.672,1.233 7.494,-1.175c0.885,-1.17 1.246,-2.722 1.062,-4.23c-0.23,-1.887 -1.254,-3.208 -2.429,-4.528c-0.004,-0.005 -0.005,-0.01 -0.009,-0.015c-0.116,0.281 -0.231,0.563 -0.346,0.843c-0.205,0.498 -0.32,1.033 -0.867,1.109c-0.41,0.057 -1.058,-0.222 -1.262,-0.63c-0.315,-0.628 0.162,-1.454 0.37,-2.015c0.885,-2.387 1.638,-4.98 2.821,-7.208c0.037,-0.071 0.152,-0.041 0.132,0.047c-0.383,1.695 -1.088,3.317 -1.675,4.935c-0.331,0.913 -0.815,1.882 -1.039,2.833c-0.13,0.547 -0.398,1.62 0.465,1.541c0.485,-0.045 0.604,-0.604 0.77,-0.99c0.697,-1.619 1.341,-3.268 1.962,-4.925c0.616,-1.646 1.097,-3.397 1.86,-4.967c0.048,-0.097 0.196,-0.052 0.174,0.063Zm7.512,-4.416c-7.082,4.059 -14.78,7.049 -22.476,9.432c-3.508,1.086 -7.078,2.051 -10.697,2.616c-1.805,0.281 -3.919,0.642 -5.807,0.252c2.725,2.036 5.465,4.053 8.331,5.884c4.914,3.139 9.977,6.096 14.692,9.605c1.159,0.602 2.302,1.251 3.458,1.843c1.583,0.812 3.507,2.072 5.303,1.439c1.751,-0.617 2.441,-3.243 3.121,-4.916c0.688,-1.69 1.274,-3.424 1.91,-5.137c1.537,-5.351 3.489,-10.568 5.257,-15.818c1.023,-3.034 1.877,-6.116 2.7,-9.205c-1.675,1.674 -3.863,2.899 -5.792,4.005Z" style="fill:#e0e5dc;"/><path d="M123.037,12.307c0.105,-1.479 -0.724,-1.43 -1.271,-0.866c-0.364,0.376 -0.515,1.097 -0.656,1.583c-0.587,2.016 -1.142,4.043 -1.717,6.063c-2.122,7.446 -4.059,15.003 -6.435,22.358c0.371,-0.174 0.741,-0.349 1.111,-0.527c1.37,-4.398 2.741,-8.796 4.113,-13.193c1.219,-3.911 2.438,-7.823 3.662,-11.732c0.322,-1.028 0.646,-2.055 0.988,-3.075c0.058,-0.175 0.192,-0.426 0.205,-0.611Z" style="fill:#e6fffd;fill-rule:nonzero;"/><path d="M87.969,52.047c-4.331,1.271 -8.844,2.562 -13.355,2.811c-0.408,0.023 -1.046,0.066 -1.705,0.03c1.87,1.322 3.709,2.691 5.544,4.065c1.619,-1.683 3.7,-2.754 5.7,-3.801c2.456,-1.285 4.968,-2.44 7.51,-3.512c1.132,-0.477 11.171,-4.389 19.954,-7.128c0.178,-0.368 0.362,-0.73 0.562,-1.078c0.065,-0.113 0.263,-0.073 0.225,0.081c-0.506,2.047 -1.441,4.008 -2.23,5.949c1.427,0.269 2.017,-2.01 2.431,-3.107c0.474,-1.257 0.941,-2.517 1.441,-3.762c0.115,-0.287 0.503,-0.077 0.402,0.21c-0.109,0.311 -0.217,0.628 -0.324,0.949c5.079,-1.485 9.344,-2.384 10.59,-1.695c0.671,-2.537 1.333,-5.075 2.063,-7.596c-1.171,1.113 -2.771,2.013 -3.53,2.505c-5.204,3.376 -10.879,5.955 -16.521,8.335c-6.137,2.588 -12.396,4.877 -18.757,6.744Z" style="fill:#fff;fill-rule:nonzero;"/><path d="M130.734,111.004c-0.6,0.52 -1.298,0.886 -1.994,1.235c-6.363,3.194 -13.154,5.392 -20.102,6.507c-0.813,0.13 -1.755,0.203 -2.349,-0.425c0.062,0.246 0.212,0.465 0.411,0.601c-0.432,-0.119 -0.968,-0.382 -0.936,-0.866c0.02,-0.303 0.271,-0.517 0.5,-0.688c1.375,-1.023 2.789,-1.983 4.238,-2.876c1.213,-0.748 2.422,-1.326 3.529,-2.279c-1.307,2.014 -3.711,2.81 -5.278,4.587c0.522,-0.344 1.046,-0.689 1.569,-1.033c-0.439,0.367 -0.854,0.768 -1.241,1.199c-0.067,0.076 -0.138,0.159 -0.154,0.263c-0.052,0.338 0.41,0.442 0.72,0.391c7.259,-1.21 14.365,-3.439 21.087,-6.616Zm-12.986,0.794c0.749,-0.859 1.096,-2.066 1.152,-3.256c0.057,-1.19 -0.154,-2.378 -0.394,-3.543c-1.45,-7.032 -4.028,-13.731 -6.593,-20.386c-0.533,-1.382 -1.064,-2.76 -2.139,-3.743c-0.566,-0.517 -1.314,-0.887 -1.815,-1.466c1.526,0.06 2.817,1.017 4.406,0.392c-0.235,0.269 -0.469,0.537 -0.704,0.806c0.4,-0.348 0.801,-0.697 1.202,-1.045c-0.791,1.734 -0.205,3.82 0.39,5.661c0.36,1.115 0.72,2.23 1.08,3.345c1.068,3.308 2.137,6.617 3.317,9.881c1.361,3.764 2.897,7.622 2.752,11.647c-0.018,0.496 -0.056,1.021 0.158,1.462c0.214,0.44 0.659,0.449 1.135,0.38c-0.672,0.246 -1.376,0.388 -2.087,0.423c0.975,0.271 2.005,0.294 2.984,0.066c-1.828,0.721 -3.833,0.911 -5.759,0.548c0.183,-0.478 0.589,-0.797 0.915,-1.172Zm-3.139,-36.969c-0.675,1.485 -1.453,3.448 -2.965,4.11c-1.644,0.719 -3.318,-0.012 -4.805,-0.856c-0.736,-0.417 -1.482,-0.831 -2.227,-1.248c2.407,1.947 4.311,4.063 5.899,6.87c1.639,2.894 2.665,6.12 3.737,9.291c1.198,3.543 2.356,7.112 3.143,10.79c0.551,2.573 1.07,5.465 -0.238,7.841c-0.168,0.305 -0.698,0.186 -0.593,-0.214c0.142,-0.536 0.238,-1.071 0.302,-1.606c-1.271,1.243 -3.307,1.882 -4.705,2.725c-2.07,1.248 -4.133,2.562 -5.951,4.227c-0.347,0.319 -0.9,0.683 -1.101,1.142c-0.63,1.438 1.285,1.601 2.264,1.562c1.681,-0.069 3.417,-0.367 5.07,-0.657c3.758,-0.659 7.418,-1.753 10.993,-3.151c3.595,-1.35 7.06,-3.003 10.367,-5.038c1.461,-0.898 2.962,-1.854 4.314,-2.941c0.921,-0.53 1.375,-1.39 1.364,-2.58c-0.216,-0.099 -0.438,-0.165 -0.669,-0.2c-0.422,-0.159 -0.944,-0.096 -1.382,-0.106c-2.389,-0.053 -4.756,0.332 -7.095,0.774c-1.567,0.297 -3.46,1.162 -5.154,1.095c0.356,0.359 0.735,0.699 1.149,1.01c0.32,0.24 -0.027,0.69 -0.334,0.569c-2.409,-0.951 -3.707,-3.544 -4.792,-5.912c-1.55,-3.386 -2.751,-6.938 -3.905,-10.498c-1.072,-3.307 -2.222,-6.634 -2.614,-10.129c-0.305,-2.725 -0.159,-5.217 0.342,-7.811c-0.135,0.316 -0.272,0.63 -0.414,0.941Z" style="fill:#fff;fill-rule:nonzero;"/><path d="M74.717,53.854c1.589,-0.1 3.169,-0.371 4.731,-0.68c10.168,-2.008 20.154,-5.774 29.691,-9.987c1.113,-0.492 2.225,-0.995 3.332,-1.511c0.727,-2.944 1.55,-5.863 2.394,-8.774c-3.996,1.008 -7.94,2.284 -11.833,3.649c-9.403,3.296 -19.137,7.055 -27.599,12.671c-0.724,0.481 -5.142,3.192 -3.821,4.368c0.681,0.606 2.304,0.315 3.105,0.264Z" style="fill:#fff;fill-rule:nonzero;"/><path d="M121.717,36.781c0.93,-0.572 5.956,-3.239 5.538,-4.95c-0.747,-1.764 -7.046,-0.104 -8.174,0.118c-0.565,0.112 -1.129,0.237 -1.692,0.362c-0.866,2.748 -1.731,5.497 -2.589,8.247c2.354,-1.158 4.673,-2.397 6.917,-3.777Z" style="fill:#fff;fill-rule:nonzero;"/><path d="M112.31,43.372l1.862,-0.906l-0.38,1.499l-2.01,5.07l-0.706,0.68l-1.317,-0.084l2.551,-6.259Z" style="fill:#e1fffd;fill-rule:nonzero;"/><path d="M107.557,61.051c0,0 3.437,2.264 2.686,6.731c-0.216,1.054 -1.566,4.927 -5.672,4.617c-1.352,-0.188 -5.076,-0.968 -6.029,-4.576c-0.354,-1.395 -0.777,-5.998 3.526,-7.973c0.638,-0.304 3.334,-0.484 3.982,-0.026c0.565,0.328 1.507,1.227 1.507,1.227Z" style="fill:#cd2027;fill-rule:nonzero;"/><path d="M106.341,58.947c0,-0 -1.012,2.379 -0.908,3.478c0.104,1.098 1.361,0.214 1.361,0.214l2.801,-6.713c-0,0 0.961,-2.899 1.299,-4.128c-0.882,0.519 -2.204,0.901 -2.204,0.901l-2.349,6.248Z" style="fill:#dcfffd;fill-rule:nonzero;"/><path d="M108.927,117.229c0.016,-0.104 0.087,-0.187 0.154,-0.263c0.387,-0.431 0.802,-0.832 1.241,-1.199c-0.523,0.344 -1.047,0.689 -1.569,1.033c1.567,-1.777 3.971,-2.573 5.278,-4.587c-1.107,0.953 -2.316,1.531 -3.529,2.279c-1.449,0.893 -2.863,1.853 -4.238,2.876c-0.229,0.171 -0.48,0.385 -0.5,0.688c-0.032,0.484 0.504,0.747 0.936,0.866c-0.199,-0.136 -0.349,-0.355 -0.411,-0.601c0.594,0.628 1.536,0.555 2.349,0.425c6.948,-1.115 13.739,-3.313 20.102,-6.507c0.696,-0.349 1.394,-0.715 1.994,-1.235c-6.722,3.177 -13.828,5.406 -21.087,6.616c-0.31,0.051 -0.772,-0.053 -0.72,-0.391Z" style="fill:#221e1f;fill-rule:nonzero;"/><path d="M119.608,112.356c0.711,-0.035 1.415,-0.177 2.087,-0.423c-0.476,0.069 -0.921,0.06 -1.135,-0.38c-0.214,-0.441 -0.176,-0.966 -0.158,-1.462c0.145,-4.025 -1.391,-7.883 -2.752,-11.647c-1.18,-3.264 -2.249,-6.573 -3.317,-9.881c-0.36,-1.115 -0.72,-2.23 -1.08,-3.345c-0.595,-1.841 -1.181,-3.927 -0.39,-5.661c-0.401,0.348 -0.802,0.697 -1.202,1.045c0.235,-0.269 0.469,-0.537 0.704,-0.806c-1.589,0.625 -2.88,-0.332 -4.406,-0.392c0.501,0.579 1.249,0.949 1.815,1.466c1.075,0.983 1.606,2.361 2.139,3.743c2.565,6.655 5.143,13.354 6.593,20.386c0.24,1.165 0.451,2.353 0.394,3.543c-0.056,1.19 -0.403,2.397 -1.152,3.256c-0.326,0.375 -0.732,0.694 -0.915,1.172c1.926,0.363 3.931,0.173 5.759,-0.548c-0.979,0.228 -2.009,0.205 -2.984,-0.066Z" style="fill:#221e1f;fill-rule:nonzero;"/><path d="M118.182,27.725c-1.372,4.397 -2.743,8.795 -4.113,13.193c-0.37,0.178 -0.74,0.353 -1.111,0.527c2.376,-7.355 4.313,-14.912 6.435,-22.358c0.575,-2.02 1.13,-4.047 1.717,-6.063c0.141,-0.486 0.292,-1.207 0.656,-1.583c0.547,-0.564 1.376,-0.613 1.271,0.866c-0.013,0.185 -0.147,0.436 -0.205,0.611c-0.342,1.02 -0.666,2.047 -0.988,3.075c-1.224,3.909 -2.443,7.821 -3.662,11.732Zm0.899,4.224c1.128,-0.222 7.427,-1.882 8.174,-0.118c0.418,1.711 -4.608,4.378 -5.538,4.95c-2.244,1.38 -4.563,2.619 -6.917,3.777c0.858,-2.75 1.723,-5.499 2.589,-8.247c0.563,-0.125 1.127,-0.25 1.692,-0.362Zm2.555,20.734c-1.768,5.25 -3.72,10.467 -5.257,15.818c-0.636,1.713 -1.222,3.447 -1.91,5.137c-0.68,1.673 -1.37,4.299 -3.121,4.916c-1.796,0.633 -3.72,-0.627 -5.303,-1.439c-1.156,-0.592 -2.299,-1.241 -3.458,-1.843c-4.715,-3.509 -9.778,-6.466 -14.692,-9.605c-2.866,-1.831 -5.606,-3.848 -8.331,-5.884c1.888,0.39 4.002,0.029 5.807,-0.252c3.619,-0.565 7.189,-1.53 10.697,-2.616c7.696,-2.383 15.394,-5.373 22.476,-9.432c1.929,-1.106 4.117,-2.331 5.792,-4.005c-0.823,3.089 -1.677,6.171 -2.7,9.205Zm-6.955,29.016c0.392,3.495 1.542,6.822 2.614,10.129c1.154,3.56 2.355,7.112 3.905,10.498c1.085,2.368 2.383,4.961 4.792,5.912c0.307,0.121 0.654,-0.329 0.334,-0.569c-0.414,-0.311 -0.793,-0.651 -1.149,-1.01c1.694,0.067 3.587,-0.798 5.154,-1.095c2.339,-0.442 4.706,-0.827 7.095,-0.774c0.438,0.01 0.96,-0.053 1.382,0.106c0.231,0.035 0.453,0.101 0.669,0.2c0.011,1.19 -0.443,2.05 -1.364,2.58c-1.352,1.087 -2.853,2.043 -4.314,2.941c-3.307,2.035 -6.772,3.688 -10.367,5.038c-3.575,1.398 -7.235,2.492 -10.993,3.151c-1.653,0.29 -3.389,0.588 -5.07,0.657c-0.979,0.039 -2.894,-0.124 -2.264,-1.562c0.201,-0.459 0.754,-0.823 1.101,-1.142c1.818,-1.665 3.881,-2.979 5.951,-4.227c1.398,-0.843 3.434,-1.482 4.705,-2.725c-0.064,0.535 -0.16,1.07 -0.302,1.606c-0.105,0.4 0.425,0.519 0.593,0.214c1.308,-2.376 0.789,-5.268 0.238,-7.841c-0.787,-3.678 -1.945,-7.247 -3.143,-10.79c-1.072,-3.171 -2.098,-6.397 -3.737,-9.291c-1.588,-2.807 -3.492,-4.923 -5.899,-6.87c0.745,0.417 1.491,0.831 2.227,1.248c1.487,0.844 3.161,1.575 4.805,0.856c1.512,-0.662 2.29,-2.625 2.965,-4.11c0.142,-0.311 0.279,-0.625 0.414,-0.941c-0.501,2.594 -0.647,5.086 -0.342,7.811Zm-35.979,-22.56c3.175,-2.944 7.398,-4.668 11.22,-6.354c4.133,-1.823 8.359,-3.39 12.594,-4.912c2.942,-1.056 5.933,-2.126 8.957,-3.061c-0.707,1.526 -1.263,3.173 -1.885,4.716c-0.051,0.124 -0.011,0.321 0.122,0.371c1.07,0.398 1.966,-0.238 2.504,-1.24c0.751,-1.398 1.285,-3.028 1.807,-4.596c2.339,-0.65 4.697,-1.195 7.068,-1.555c0.316,-0.048 3.16,-0.559 3.498,-0.012c-1.452,1.662 -3.451,2.864 -5.247,3.949c-3.193,1.928 -6.552,3.541 -9.941,5.019c-7.253,3.165 -14.877,5.893 -22.613,7.3c-2.55,0.463 -5.33,0.923 -7.937,0.485c-0.049,-0.037 -0.098,-0.073 -0.147,-0.11Zm44.545,-22.171c0.759,-0.492 2.359,-1.392 3.53,-2.505c-0.73,2.521 -1.392,5.059 -2.063,7.596c-1.246,-0.689 -5.511,0.21 -10.59,1.695c0.107,-0.321 0.215,-0.638 0.324,-0.949c0.101,-0.287 -0.287,-0.497 -0.402,-0.21c-0.5,1.245 -0.967,2.505 -1.441,3.762c-0.414,1.097 -1.004,3.376 -2.431,3.107c0.789,-1.941 1.724,-3.902 2.23,-5.949c0.038,-0.154 -0.16,-0.194 -0.225,-0.081c-0.2,0.348 -0.384,0.71 -0.562,1.078c-8.783,2.739 -18.822,6.651 -19.954,7.128c-2.542,1.072 -5.054,2.227 -7.51,3.512c-2,1.047 -4.081,2.118 -5.7,3.801c-1.835,-1.374 -3.674,-2.743 -5.544,-4.065c0.659,0.036 1.297,-0.007 1.705,-0.03c4.511,-0.249 9.024,-1.54 13.355,-2.811c6.361,-1.867 12.62,-4.156 18.757,-6.744c5.642,-2.38 11.317,-4.959 16.521,-8.335Zm-47.814,12.254c8.462,-5.616 18.196,-9.375 27.599,-12.671c3.893,-1.365 7.837,-2.641 11.833,-3.649c-0.844,2.911 -1.667,5.83 -2.394,8.774c-1.107,0.516 -2.219,1.019 -3.332,1.511c-9.537,4.213 -19.523,7.979 -29.691,9.987c-1.562,0.309 -3.142,0.58 -4.731,0.68c-0.801,0.051 -2.424,0.342 -3.105,-0.264c-1.321,-1.176 3.097,-3.887 3.821,-4.368Zm47.402,-38.611c-1.264,-0.373 -1.853,1.043 -2.172,2.097c-1.381,4.571 -2.632,9.194 -3.942,13.791c-0.501,1.76 -1.017,3.518 -1.529,5.277c-2.332,0.59 -4.643,1.283 -6.922,1.994c-11.254,3.511 -22.896,7.847 -32.987,14.386c-1.347,0.872 -4.991,2.822 -4.931,5.015c0.011,0.419 0.158,0.734 0.386,0.979c0.017,0.043 0.041,0.084 0.076,0.119c4.297,4.325 9.61,7.324 14.558,10.654c5.328,3.587 10.673,7.173 15.894,10.944c2.384,1.722 4.594,3.577 6.61,5.795c2.372,2.607 3.58,5.886 4.729,9.277c1.1,3.245 2.194,6.503 3.073,9.826c0.683,2.58 1.346,5.188 1.276,7.811c-1.294,0.695 -2.457,1.694 -3.724,2.455c-1.345,0.808 -2.618,1.714 -3.93,2.574c-1.324,0.869 -4.765,2.717 -5.022,4.709c-0.562,4.365 17.487,-1.039 19.448,-1.77c1.952,-0.77 19.105,-8.864 16.107,-11.861c-1.311,-1.31 -4.919,-0.488 -6.391,-0.277c-1.537,0.221 -3.073,0.397 -4.603,0.684c-1.477,0.276 -3.019,0.309 -4.478,0.656c-1.51,-1.877 -2.494,-4.188 -3.447,-6.528c-1.294,-3.178 -2.366,-6.457 -3.433,-9.729c-1.155,-3.54 -2.201,-6.999 -1.914,-10.778c0.235,-3.086 0.885,-6.04 1.719,-8.985c1.802,-6.36 3.781,-12.668 5.745,-18.967c1.886,-6.047 4.281,-12.089 5.101,-18.455c0.032,-0.192 0.047,-0.385 0.022,-0.581c0.003,-0.068 -0.007,-0.141 -0.041,-0.221c-0.023,-0.095 -0.067,-0.162 -0.117,-0.214c-0.956,-1.614 -4.037,-1.059 -5.387,-0.91c-1.629,0.181 -3.252,0.463 -4.865,0.807c1.824,-5.789 3.641,-11.58 5.371,-17.401c0.279,-0.937 1.088,-2.77 -0.28,-3.173Z" style="fill:#221e1f;fill-rule:nonzero;"/><path d="M110.858,51.836c-0.763,1.57 -1.244,3.321 -1.86,4.967c-0.621,1.657 -1.265,3.306 -1.962,4.925c-0.166,0.386 -0.285,0.945 -0.77,0.99c-0.863,0.079 -0.595,-0.994 -0.465,-1.541c0.224,-0.951 0.708,-1.92 1.039,-2.833c0.587,-1.618 1.512,-3.866 1.895,-5.561c0.021,-0.089 -0.094,-0.118 -0.131,-0.048c-1.183,2.228 -2.157,5.448 -3.042,7.835c-0.208,0.561 -0.685,1.387 -0.37,2.015c0.204,0.408 0.852,0.687 1.262,0.63c0.547,-0.076 0.662,-0.611 0.867,-1.109c0.115,-0.28 0.23,-0.562 0.346,-0.843c0.004,0.005 0.005,0.01 0.009,0.015c1.175,1.32 2.199,2.641 2.429,4.528c0.184,1.508 -0.177,3.06 -1.062,4.23c-1.822,2.408 -5.072,2.69 -7.494,1.175c-2.451,-1.533 -3.731,-4.618 -2.717,-7.545c1.008,-2.907 3.956,-4.357 6.7,-3.899c0.151,0.025 0.188,-0.209 0.043,-0.251c-4.726,-1.371 -9.222,3.995 -7.048,8.985c2.11,4.842 9.366,5.932 11.586,0.69c1.193,-2.819 0.098,-6.423 -2.224,-8.19c-0.034,-0.025 -0.068,-0.034 -0.099,-0.035c0.308,-0.751 0.614,-1.503 0.91,-2.26c0.854,-2.187 1.884,-4.467 2.332,-6.807c0.022,-0.115 -0.126,-0.16 -0.174,-0.063Z" style="fill:#221e1f;fill-rule:nonzero;"/><path d="M70.003,32.064c0.161,0.417 0.268,0.833 0.298,1.284c0.001,0.021 0.029,0.021 0.032,0.001c0.058,-0.459 -0.019,-0.917 -0.255,-1.316c-0.023,-0.039 -0.093,-0.015 -0.075,0.031Z" style="fill:#221e1f;fill-rule:nonzero;"/></g></svg>