<?xml version="1.0" encoding="UTF-8" standalone="no"?><!DOCTYPE svg PUBLIC "-//W3C//DTD SVG 1.1//EN" "http://www.w3.org/Graphics/SVG/1.1/DTD/svg11.dtd"><svg width="100%" height="100%" viewBox="0 0 45 45" version="1.1" xmlns="http://www.w3.org/2000/svg" xmlns:xlink="http://www.w3.org/1999/xlink" xml:space="preserve" xmlns:serif="http://www.serif.com/" style="fill-rule:evenodd;clip-rule:evenodd;stroke-linejoin:round;stroke-miterlimit:2;"><path d="M16.751,6.281c-5.774,0 -10.47,4.698 -10.47,10.47c0,5.773 4.696,10.469 10.47,10.469c5.773,-0 10.469,-4.696 10.469,-10.469c-0,-5.772 -4.696,-10.47 -10.469,-10.47Z" style="fill:#fabb41;fill-rule:nonzero;"/><rect x="16.053" y="0" width="1.396" height="4.885" style="fill:#fabb41;fill-rule:nonzero;"/><rect x="16.053" y="28.616" width="1.396" height="4.885" style="fill:#fabb41;"/><rect x="0" y="16.053" width="4.885" height="1.396" style="fill:#fabb41;fill-rule:nonzero;"/><rect x="28.616" y="16.053" width="4.885" height="1.396" style="fill:#fabb41;"/><path d="M11.423,6.125l-0.611,-1.057l-1.832,-3.173l-1.21,0.698l2.444,4.231l1.209,-0.699Z" style="fill:#fabb41;fill-rule:nonzero;"/><path d="M22.078,27.375l2.443,4.231l1.21,-0.698l-2.444,-4.231l-1.209,0.698Z" style="fill:#fabb41;fill-rule:nonzero;"/><path d="M5.068,22.689l-3.174,1.832l0.699,1.21l3.172,-1.832l1.059,-0.611l-0.699,-1.21l-1.057,0.611Z" style="fill:#fabb41;fill-rule:nonzero;"/><path d="M31.607,8.98l-0.699,-1.21l-4.231,2.444l0.698,1.209l4.232,-2.443Z" style="fill:#fabb41;fill-rule:nonzero;"/><path d="M6.125,11.423l0.699,-1.209l-1.059,-0.612l-3.172,-1.832l-0.699,1.21l3.174,1.832l1.057,0.611Z" style="fill:#fabb41;fill-rule:nonzero;"/><path d="M26.677,23.287l4.231,2.444l0.699,-1.21l-4.232,-2.443l-0.698,1.21Z" style="fill:#fabb41;fill-rule:nonzero;"/><path d="M7.77,30.908l1.21,0.698l1.832,-3.173l0.611,-1.058l-1.209,-0.698l-2.444,4.231Z" style="fill:#fabb41;fill-rule:nonzero;"/><path d="M25.731,2.593l-1.21,-0.698l-2.443,4.23l1.209,0.699l2.444,-4.231Z" style="fill:#fabb41;fill-rule:nonzero;"/><path d="M37.47,13.345c-0.258,-4.471 -4.065,-8.031 -8.71,-8.031c-2.397,-0 -4.661,0.952 -6.305,2.631c-0.834,-0.445 -1.764,-0.678 -2.725,-0.678c-3.151,0 -5.714,2.505 -5.714,5.583c0,0.164 0.007,0.33 0.023,0.494c-2.917,0.738 -5.039,3.355 -5.039,6.346c0,3.619 3.012,6.562 6.717,6.562l20.066,0c3.705,0 6.718,-2.943 6.718,-6.562c0,-3.021 -2.083,-5.605 -5.031,-6.345Z" style="fill:#338fac;fill-rule:nonzero;"/><path d="M38.078,28.424c0.032,-0.263 0.048,-0.527 0.048,-0.786c-0,-3.848 -3.25,-6.979 -7.241,-6.979c-1.271,-0 -2.502,0.318 -3.596,0.924c-2.113,-2.191 -5.062,-3.436 -8.183,-3.436c-5.995,-0 -10.904,4.573 -11.157,10.284c-3.832,0.879 -6.553,4.157 -6.553,8.002c0,4.541 3.835,8.236 8.55,8.236l26.173,0c4.715,0 8.55,-3.695 8.55,-8.236c0,-3.817 -2.787,-7.145 -6.591,-8.009Z" style="fill:#32c4ec;fill-rule:nonzero;"/></svg>