<?xml version="1.0" encoding="UTF-8" standalone="no"?><!DOCTYPE svg PUBLIC "-//W3C//DTD SVG 1.1//EN" "http://www.w3.org/Graphics/SVG/1.1/DTD/svg11.dtd"><svg width="100%" height="100%" viewBox="0 0 45 45" version="1.1" xmlns="http://www.w3.org/2000/svg" xmlns:xlink="http://www.w3.org/1999/xlink" xml:space="preserve" xmlns:serif="http://www.serif.com/" style="fill-rule:evenodd;clip-rule:evenodd;stroke-linejoin:round;stroke-miterlimit:2;"><ellipse cx="26.205" cy="21.035" rx="16.393" ry="14.637" style="fill:#fabb41;"/><path d="M9.74,5.515l-2.257,-4.128l-2.259,4.128l-4.128,2.258l4.128,2.258l2.259,4.129l2.257,-4.129l4.129,-2.258l-4.129,-2.258Z" style="fill:#fff;fill-rule:nonzero;"/><path d="M40.741,7.298c0.02,-0.163 0.029,-0.326 0.029,-0.487c-0,-2.372 -1.942,-4.303 -4.329,-4.303c-0.755,0 -1.488,0.195 -2.138,0.564c-1.261,-1.347 -3.019,-2.112 -4.881,-2.112c-3.581,-0 -6.512,2.82 -6.663,6.342c-2.283,0.545 -3.904,2.564 -3.904,4.93c0,2.799 2.292,5.077 5.109,5.077l15.596,0c2.817,0 5.109,-2.278 5.109,-5.077c0,-2.348 -1.661,-4.397 -3.928,-4.934Z" style="fill:#225e72;fill-rule:nonzero;"/><path d="M28.261,19.13c-0.256,-4.437 -4.036,-7.971 -8.646,-7.971c-2.379,-0 -4.627,0.945 -6.259,2.611c-0.827,-0.441 -1.751,-0.672 -2.706,-0.672c-3.127,-0 -5.671,2.485 -5.671,5.541c0,0.163 0.007,0.327 0.023,0.49c-2.896,0.733 -5.002,3.331 -5.002,6.3c0,3.592 2.99,6.514 6.668,6.514l19.918,0c3.678,0 6.669,-2.922 6.669,-6.514c0,-2.999 -2.069,-5.564 -4.994,-6.299Z" style="fill:#338fac;fill-rule:nonzero;"/><path d="M40.741,34.658c0.02,-0.163 0.029,-0.326 0.029,-0.487c-0,-2.372 -1.942,-4.302 -4.329,-4.302c-0.755,0 -1.488,0.194 -2.138,0.563c-1.261,-1.346 -3.019,-2.111 -4.881,-2.111c-3.581,-0 -6.512,2.819 -6.663,6.342c-2.283,0.544 -3.904,2.563 -3.904,4.929c0,2.799 2.292,5.077 5.109,5.077l15.596,0c2.817,0 5.109,-2.278 5.109,-5.077c0,-2.348 -1.661,-4.397 -3.928,-4.934Z" style="fill:#225e72;fill-rule:nonzero;"/></svg>