<?xml version="1.0" encoding="UTF-8" standalone="no"?><!DOCTYPE svg PUBLIC "-//W3C//DTD SVG 1.1//EN" "http://www.w3.org/Graphics/SVG/1.1/DTD/svg11.dtd"><svg width="100%" height="100%" viewBox="0 0 45 45" version="1.1" xmlns="http://www.w3.org/2000/svg" xmlns:xlink="http://www.w3.org/1999/xlink" xml:space="preserve" xmlns:serif="http://www.serif.com/" style="fill-rule:evenodd;clip-rule:evenodd;stroke-linejoin:round;stroke-miterlimit:2;"><path d="M10.562,41.327l1.209,0.698l3.491,-6.044l-1.21,-0.698l-3.49,6.044Z" style="fill:#fabb41;fill-rule:nonzero;"/><path d="M2.643,32.896l0.698,1.21l6.044,-3.49l-0.697,-1.208l-6.045,3.488Z" style="fill:#fabb41;fill-rule:nonzero;"/><rect x="0" y="21.637" width="6.979" height="1.396" style="fill:#fabb41;"/><path d="M9.385,14.052l-6.044,-3.49l-0.698,1.209l6.045,3.491l0.697,-1.21Z" style="fill:#fabb41;fill-rule:nonzero;"/><rect x="21.637" y="0" width="1.396" height="6.979" style="fill:#fabb41;"/><path d="M15.262,8.688l-3.491,-6.045l-1.209,0.698l3.49,6.044l1.21,-0.697Z" style="fill:#fabb41;fill-rule:nonzero;"/><path d="M22.335,9.073c-7.313,-0 -13.262,5.949 -13.262,13.262c-0,7.311 5.949,13.261 13.262,13.261c7.311,0 13.261,-5.95 13.261,-13.261c0,-7.313 -5.95,-13.262 -13.261,-13.262Z" style="fill:#fabb41;fill-rule:nonzero;"/><rect x="21.637" y="37.69" width="1.396" height="6.979" style="fill:#fabb41;"/><rect x="37.69" y="21.637" width="6.979" height="1.396" style="fill:#fabb41;"/><path d="M29.408,35.981l3.488,6.044l1.21,-0.698l-3.49,-6.044l-1.208,0.698Z" style="fill:#fabb41;fill-rule:nonzero;"/><path d="M42.025,11.771l-0.698,-1.209l-6.044,3.49l0.698,1.21l6.044,-3.491Z" style="fill:#fabb41;fill-rule:nonzero;"/><path d="M35.283,30.616l6.044,3.49l0.698,-1.21l-6.044,-3.488l-0.698,1.208Z" style="fill:#fabb41;fill-rule:nonzero;"/><path d="M34.106,3.341l-1.21,-0.698l-3.489,6.045l1.209,0.697l3.49,-6.044Z" style="fill:#fabb41;fill-rule:nonzero;"/></svg>