<?xml version="1.0" encoding="UTF-8" standalone="no"?><!DOCTYPE svg PUBLIC "-//W3C//DTD SVG 1.1//EN" "http://www.w3.org/Graphics/SVG/1.1/DTD/svg11.dtd"><svg width="100%" height="100%" viewBox="0 0 45 45" version="1.1" xmlns="http://www.w3.org/2000/svg" xmlns:xlink="http://www.w3.org/1999/xlink" xml:space="preserve" xmlns:serif="http://www.serif.com/" style="fill-rule:evenodd;clip-rule:evenodd;stroke-linejoin:round;stroke-miterlimit:2;"><path d="M37.853,10.842c0.036,-0.288 0.054,-0.577 0.054,-0.863c0,-4.04 -3.346,-7.328 -7.459,-7.328c-1.314,0 -2.589,0.338 -3.718,0.978c-2.18,-2.313 -5.227,-3.629 -8.452,-3.629c-6.196,-0 -11.263,4.827 -11.508,10.852c-3.958,0.915 -6.77,4.365 -6.77,8.411c-0,4.772 3.952,8.656 8.812,8.656l27.045,-0c4.859,-0 8.812,-3.884 8.812,-8.656c0,-4.017 -2.883,-7.519 -6.816,-8.421Z" style="fill:#32c4ec;fill-rule:nonzero;"/><path d="M27.392,30.292l-4.148,2.395l-0,-4.79l-1.819,0l0,4.79l-4.148,-2.395l-0.909,1.576l4.147,2.394l-4.147,2.394l0.909,1.577l4.148,-2.396l0,4.791l1.819,0l-0,-4.791l4.148,2.396l0.909,-1.577l-4.148,-2.394l4.148,-2.394l-0.909,-1.576Z" style="fill:#fff;fill-rule:nonzero;"/><path d="M11.025,34.332l-4.149,2.396l-0,-4.79l-1.819,0l0,4.79l-4.148,-2.396l-0.909,1.577l4.148,2.395l-4.148,2.395l0.909,1.575l4.148,-2.395l0,4.79l1.819,0l-0,-4.79l4.149,2.395l0.909,-1.575l-4.149,-2.395l4.149,-2.395l-0.909,-1.577Z" style="fill:#fff;fill-rule:nonzero;"/><path d="M43.76,34.332l-4.148,2.396l-0,-4.79l-1.819,0l0,4.79l-4.149,-2.396l-0.909,1.577l4.149,2.395l-4.149,2.395l0.909,1.575l4.149,-2.395l0,4.79l1.819,0l-0,-4.79l4.148,2.395l0.909,-1.575l-4.148,-2.395l4.148,-2.395l-0.909,-1.577Z" style="fill:#fff;fill-rule:nonzero;"/></svg>