<?xml version="1.0" encoding="UTF-8" standalone="no"?><!DOCTYPE svg PUBLIC "-//W3C//DTD SVG 1.1//EN" "http://www.w3.org/Graphics/SVG/1.1/DTD/svg11.dtd"><svg width="100%" height="100%" viewBox="0 0 45 45" version="1.1" xmlns="http://www.w3.org/2000/svg" xmlns:xlink="http://www.w3.org/1999/xlink" xml:space="preserve" xmlns:serif="http://www.serif.com/" style="fill-rule:evenodd;clip-rule:evenodd;stroke-linejoin:round;stroke-miterlimit:2;"><path d="M10.729,31.234l-3.561,7.001c-0.006,0.011 -0.585,1.029 -0.585,2.175c0,1.133 0.428,2.198 1.205,3.002c0.783,0.81 1.827,1.257 2.941,1.257c1.113,0 2.157,-0.447 2.94,-1.257c0.777,-0.804 1.205,-1.869 1.205,-3.001c-0,-1.094 -0.563,-2.133 -0.565,-2.137l-3.58,-7.04Z" style="fill:#fff;fill-rule:nonzero;"/><path d="M22.335,27.919l-3.561,7.001c-0.006,0.011 -0.585,1.027 -0.585,2.175c0,1.133 0.428,2.197 1.205,3c0.783,0.81 1.827,1.259 2.941,1.259c1.113,-0 2.157,-0.449 2.94,-1.259c0.777,-0.803 1.205,-1.867 1.205,-2.999c-0,-1.096 -0.563,-2.134 -0.565,-2.138l-3.58,-7.039Z" style="fill:#fff;fill-rule:nonzero;"/><path d="M33.941,31.234l-3.561,7.001c-0.006,0.011 -0.585,1.029 -0.585,2.175c0,1.133 0.428,2.198 1.205,3.002c0.783,0.81 1.827,1.257 2.941,1.257c1.113,0 2.157,-0.447 2.94,-1.257c0.777,-0.804 1.205,-1.869 1.205,-3.001c-0,-1.094 -0.563,-2.133 -0.565,-2.137l-3.58,-7.04Z" style="fill:#fff;fill-rule:nonzero;"/><path d="M37.853,10.842c0.036,-0.29 0.054,-0.577 0.054,-0.863c0,-4.039 -3.346,-7.328 -7.459,-7.328c-1.314,0 -2.589,0.338 -3.718,0.978c-2.18,-2.313 -5.227,-3.629 -8.452,-3.629c-6.196,-0 -11.263,4.827 -11.508,10.852c-3.958,0.915 -6.77,4.365 -6.77,8.411c-0,4.772 3.952,8.656 8.812,8.656l27.045,-0c4.859,-0 8.812,-3.884 8.812,-8.656c0,-4.017 -2.883,-7.521 -6.816,-8.421Z" style="fill:#32c4ec;fill-rule:nonzero;"/></svg>