<?xml version="1.0" encoding="UTF-8" standalone="no"?><!DOCTYPE svg PUBLIC "-//W3C//DTD SVG 1.1//EN" "http://www.w3.org/Graphics/SVG/1.1/DTD/svg11.dtd"><svg width="100%" height="100%" viewBox="0 0 45 45" version="1.1" xmlns="http://www.w3.org/2000/svg" xmlns:xlink="http://www.w3.org/1999/xlink" xml:space="preserve" xmlns:serif="http://www.serif.com/" style="fill-rule:evenodd;clip-rule:evenodd;stroke-linejoin:round;stroke-miterlimit:2;"><path d="M43.264,17.01c-1.672,0.879 -3.479,1.325 -5.371,1.325c-6.373,-0 -11.559,-5.186 -11.559,-11.559c0,-1.892 0.446,-3.7 1.324,-5.37l0.74,-1.406l-1.538,0.398c-6.294,1.63 -10.689,7.313 -10.689,13.823c-0,7.873 6.404,14.277 14.278,14.277c6.509,0 12.192,-4.395 13.822,-10.69l0.398,-1.537l-1.405,0.739Z" style="fill:#fabb41;fill-rule:nonzero;"/><path d="M25.16,20.498c0.02,-0.163 0.029,-0.326 0.029,-0.488c0,-2.371 -1.943,-4.301 -4.329,-4.301c-0.754,-0 -1.488,0.193 -2.139,0.562c-1.26,-1.346 -3.019,-2.111 -4.88,-2.111c-3.581,0 -6.511,2.82 -6.662,6.343c-2.283,0.544 -3.905,2.563 -3.905,4.929c0,2.799 2.293,5.077 5.109,5.077l15.597,-0c2.816,-0 5.109,-2.278 5.109,-5.077c-0,-2.348 -1.661,-4.397 -3.929,-4.935Z" style="fill:#225e72;fill-rule:nonzero;"/><path d="M9.991,8.664l-2.258,-4.128l-2.258,4.128l-4.128,2.258l4.128,2.258l2.258,4.129l2.258,-4.129l4.13,-2.258l-4.13,-2.258Z" style="fill:#fff;fill-rule:nonzero;"/><path d="M40.741,34.658c0.02,-0.163 0.029,-0.326 0.029,-0.487c-0,-2.372 -1.942,-4.302 -4.329,-4.302c-0.755,0 -1.488,0.194 -2.138,0.563c-1.261,-1.346 -3.019,-2.111 -4.881,-2.111c-3.581,-0 -6.512,2.819 -6.663,6.342c-2.283,0.544 -3.904,2.563 -3.904,4.929c0,2.799 2.292,5.077 5.109,5.077l15.596,0c2.817,0 5.109,-2.278 5.109,-5.077c0,-2.348 -1.661,-4.397 -3.928,-4.934Z" style="fill:#225e72;fill-rule:nonzero;"/></svg>