<?xml version="1.0" encoding="UTF-8" standalone="no"?><!DOCTYPE svg PUBLIC "-//W3C//DTD SVG 1.1//EN" "http://www.w3.org/Graphics/SVG/1.1/DTD/svg11.dtd"><svg width="100%" height="100%" viewBox="0 0 45 45" version="1.1" xmlns="http://www.w3.org/2000/svg" xmlns:xlink="http://www.w3.org/1999/xlink" xml:space="preserve" xmlns:serif="http://www.serif.com/" style="fill-rule:evenodd;clip-rule:evenodd;stroke-linejoin:round;stroke-miterlimit:2;"><path d="M28.472,8.032c-0.258,-4.47 -4.066,-8.032 -8.712,-8.032c-2.395,0 -4.661,0.952 -6.305,2.631c-0.834,-0.445 -1.764,-0.677 -2.724,-0.677c-3.151,-0 -5.715,2.505 -5.715,5.584c0,0.164 0.008,0.328 0.023,0.493c-2.916,0.739 -5.039,3.354 -5.039,6.346c-0,3.619 3.014,6.561 6.718,6.561l20.066,0c3.704,0 6.717,-2.942 6.717,-6.561c0,-3.022 -2.083,-5.605 -5.029,-6.345Z" style="fill:#338fac;fill-rule:nonzero;"/><path d="M37.161,24.967c0.046,-0.331 0.07,-0.66 0.07,-0.983c-0,-4.058 -3.346,-7.36 -7.46,-7.36c-1.482,-0 -2.935,0.44 -4.159,1.252c-2.195,-2.498 -5.324,-3.917 -8.687,-3.917c-6.35,0 -11.516,5.095 -11.516,11.357c0,0.493 0.035,0.988 0.107,1.5c-3.369,1.527 -5.516,4.803 -5.516,8.493c0,5.162 4.255,9.36 9.487,9.36l25.017,0c5.606,0 10.165,-4.497 10.165,-10.026c0,-4.542 -3.118,-8.507 -7.508,-9.676Z" style="fill:#32c4ec;fill-rule:nonzero;"/></svg>