<?xml version="1.0" encoding="UTF-8" standalone="no"?><!DOCTYPE svg PUBLIC "-//W3C//DTD SVG 1.1//EN" "http://www.w3.org/Graphics/SVG/1.1/DTD/svg11.dtd"><svg width="100%" height="100%" viewBox="0 0 100 80" version="1.1" xmlns="http://www.w3.org/2000/svg" xmlns:xlink="http://www.w3.org/1999/xlink" xml:space="preserve" xmlns:serif="http://www.serif.com/" style="fill-rule:evenodd;clip-rule:evenodd;stroke-linejoin:round;stroke-miterlimit:2;"><rect x="87.141" y="55.51" width="1.579" height="20.224" style="fill:#335863;"/><path d="M76.762,56.425l22.575,-0c-0,-1.447 -1.097,-2.62 -2.45,-2.62l-17.674,-0c-1.353,-0 -2.451,1.173 -2.451,2.62Z" style="fill:#335863;fill-rule:nonzero;"/><path d="M86.397,56.478c-0,0.033 0.62,0.062 1.384,0.062c0.766,-0 1.386,-0.029 1.386,-0.062c-0,-0.035 -0.62,-0.063 -1.386,-0.063c-0.764,-0 -1.384,0.028 -1.384,0.063Z" style="fill:#0c2b34;fill-rule:nonzero;"/><path d="M81.027,77.566l0.223,-0c0,-3.961 3.012,-7.183 6.716,-7.183c3.703,-0 6.715,3.222 6.715,7.183l0.223,-0c0,-4.092 -3.112,-7.422 -6.938,-7.422c-3.827,0 -6.939,3.33 -6.939,7.422Z" style="fill:#335863;fill-rule:nonzero;"/><path d="M93.752,77.934c0,0.615 0.467,1.113 1.041,1.113c0.575,0 1.04,-0.498 1.04,-1.113c0,-0.615 -0.465,-1.112 -1.04,-1.112c-0.574,0 -1.041,0.497 -1.041,1.112Z" style="fill:#0c2b34;fill-rule:nonzero;"/><path d="M80.046,77.78c-0,0.616 0.465,1.114 1.04,1.114c0.575,-0 1.041,-0.498 1.041,-1.114c-0,-0.613 -0.466,-1.111 -1.041,-1.111c-0.575,-0 -1.04,0.498 -1.04,1.111Z" style="fill:#335863;fill-rule:nonzero;"/><path d="M81.093,75.733c0,0.034 3.02,0.063 6.744,0.063c3.725,0 6.744,-0.029 6.744,-0.063c0,-0.034 -3.019,-0.062 -6.744,-0.062c-3.724,0 -6.744,0.028 -6.744,0.062Z" style="fill:#335863;fill-rule:nonzero;"/><path d="M100,35.489l0,14.888c0,1.952 -1.48,3.534 -3.306,3.534l-10.727,0l1.457,-18.422c0,-0.87 0.66,-1.575 1.474,-1.575l9.629,-0c0.813,-0 1.473,0.705 1.473,1.575Z" style="fill:#335863;fill-rule:nonzero;"/><path d="M96.208,53.805c-0.001,-0.002 0.008,-0.015 0.025,-0.043c0.021,-0.034 0.047,-0.073 0.078,-0.123c0.072,-0.104 0.173,-0.263 0.296,-0.473c0.241,-0.417 0.563,-1.051 0.799,-1.896c0.118,-0.421 0.215,-0.893 0.265,-1.408c0.058,-0.513 0.043,-1.067 0.042,-1.653c-0.001,-1.17 -0.002,-2.455 -0.004,-3.806c0.007,-2.695 0.013,-5.134 0.017,-6.914c0.007,-0.876 0.013,-1.588 0.017,-2.095c0.005,-0.239 0.009,-0.429 0.011,-0.569c0.004,-0.131 0.008,-0.2 0.012,-0.2c0.004,0 0.007,0.069 0.011,0.2c0.003,0.14 0.006,0.33 0.011,0.569c0.004,0.506 0.01,1.219 0.018,2.095c0.004,1.78 0.01,4.219 0.015,6.914c-0.001,1.351 -0.002,2.636 -0.003,3.806c-0.004,0.584 0.008,1.145 -0.054,1.664c-0.055,0.522 -0.158,0.997 -0.282,1.422c-0.248,0.851 -0.584,1.484 -0.839,1.898c-0.129,0.205 -0.236,0.36 -0.313,0.46c-0.076,0.103 -0.118,0.154 -0.122,0.152Z" style="fill:#0c2b34;fill-rule:nonzero;"/><path d="M90.368,53.813c-0,-0.008 0.121,-0.016 0.34,-0.021c0.24,-0.002 0.552,-0.007 0.93,-0.012c0.785,-0.004 1.87,-0.003 3.066,0.006c0.599,0.006 1.172,0.007 1.689,0.021c0.518,0.01 0.994,0.039 1.377,0.161c0.386,0.114 0.662,0.308 0.829,0.464c0.084,0.076 0.143,0.143 0.18,0.192c0.038,0.048 0.055,0.073 0.053,0.077c-0.01,0.009 -0.088,-0.093 -0.261,-0.233c-0.171,-0.142 -0.444,-0.318 -0.821,-0.419c-0.376,-0.106 -0.84,-0.127 -1.359,-0.131c-0.521,-0.003 -1.091,-0.008 -1.689,-0.012c-1.196,-0.009 -2.28,-0.024 -3.064,-0.04c-0.378,-0.011 -0.69,-0.021 -0.93,-0.027c-0.219,-0.01 -0.34,-0.018 -0.34,-0.026Z" style="fill:#0c2b34;fill-rule:nonzero;"/><path d="M80.49,19.729c-0.317,1.041 -0.637,2.106 -0.614,3.2c0.011,0.506 0.087,1.049 -0.146,1.489c-0.161,0.306 -0.448,0.509 -0.673,0.765c-0.558,0.634 -0.713,1.638 -0.373,2.431c0.118,0.275 0.296,0.53 0.54,0.687c0.28,0.18 0.619,0.215 0.945,0.236c1.088,0.067 2.18,0.014 3.257,-0.158c0.514,-0.082 1.072,-0.221 1.39,-0.662c0.284,-0.393 0.305,-0.932 0.288,-1.429c-0.065,-1.888 -0.504,-3.76 -1.28,-5.457" style="fill:#0c2b34;fill-rule:nonzero;"/><path d="M87.788,18.601c0.499,-0.169 1.083,0.323 1.046,0.882c-0.037,0.559 -0.682,0.956 -1.153,0.714c0.523,-0.097 1.026,0.327 1.269,0.831c0.242,0.507 0.299,1.086 0.423,1.639c0.125,0.552 0.35,1.124 0.805,1.419c0.432,0.28 1.043,0.293 1.323,0.744c0.291,0.467 0.036,1.107 0.157,1.654c0.122,0.544 0.588,0.905 1,1.248c0.413,0.344 0.838,0.798 0.815,1.356c-0.016,0.449 -0.335,0.834 -0.713,1.03c-0.378,0.195 -0.808,0.234 -1.227,0.254c-2.065,0.098 -4.147,-0.189 -6.123,-0.843c-0.313,-0.104 -0.641,-0.231 -0.847,-0.503c-0.313,-0.416 -0.239,-1.017 -0.149,-1.543c0.288,-1.666 0.577,-3.339 1.087,-4.944c0.51,-1.604 1.253,-3.148 2.35,-4.37" style="fill:#0c2b34;fill-rule:nonzero;"/><path d="M79.98,33.105c-0.01,-0.012 -0.024,-0.043 -0.042,-0.093l0.136,-0.103c0,-0 -0.037,0.072 -0.094,0.196Zm10.899,1.556l2.438,0l-0.866,-4.644c-0.639,-3.803 -5.622,-4.064 -5.622,-4.064l-3.91,-0.067c-0,-0 -2.9,-0.417 -4.689,1.741c-0.368,0.441 -0.752,0.902 -1.131,1.351l-4.242,4.747l-0.45,-5.955l-3.634,0.61l0.508,7.477c0.111,1.205 0.841,2.285 1.92,2.651c0.786,0.267 1.586,0.034 2.382,-0.391c2.117,-1.13 6.085,-4.719 6.388,-4.995c-0.183,0.402 -0.548,1.311 -0.548,2.174c0,1.238 1.188,2.166 1.188,2.166l0.37,3.769l-1.228,6.084l12.771,-0.547c-0.248,-2.206 -0.907,-4.095 -1.882,-5.74l0.237,-6.367Z" style="fill:#f15b66;fill-rule:nonzero;"/><path d="M85.163,45.205c-0.713,0.506 -1.58,1.095 -2.066,1.343c-0.906,0.461 -0.948,0.375 -0.984,0.254c-0.094,-0.325 1.564,-0.876 1.138,-0.975c-0.425,-0.101 -1.948,0.921 -2.033,0.577c-0.112,-0.449 1.634,-0.991 1.779,-1.048c0.14,-0.055 0.065,-0.28 -0.061,-0.22c-0.185,0.085 -2.132,0.927 -2.245,0.489c-0.063,-0.244 0.361,-0.314 0.361,-0.314c0,-0 1.88,-0.646 1.82,-0.852c-0.06,-0.209 -1.178,0.131 -1.545,0.275c-0.365,0.141 -0.579,0.015 -0.508,-0.208c0.048,-0.153 1.165,-0.619 1.533,-0.75c0.368,-0.132 1.382,-0.477 0.742,-0.738c-0.638,-0.26 -1.041,-0.713 -1.071,-0.912c-0.029,-0.202 0.225,-0.312 0.375,-0.152c0.121,0.131 0.384,0.282 0.588,0.387c0.166,0.086 0.345,0.145 0.53,0.168c0.158,0.02 0.301,0.033 0.428,0.042l1.358,0.11l0.685,1.922l-0.824,0.602Z" style="fill:#f9b299;fill-rule:nonzero;"/><path d="M91.112,27.684c0,0 1.109,0.827 1.608,2.57c0.301,1.055 1.166,4.627 1.802,7.284c0.416,1.736 -0.495,3.518 -2.085,4.08l-7.189,4.154l-1.174,-3.249l6.307,-4.432l-1.524,-6.038c-0.251,-0.918 -0.359,-1.851 -0.045,-2.747c0.322,-0.919 0.976,-1.795 2.3,-1.622Z" style="fill:#f15b66;fill-rule:nonzero;"/><path d="M69.013,28.596l-0.435,-1.493c-0.205,-1.069 0.586,-1.241 0.719,-1.4c0.41,-0.491 0.704,-0.609 0.704,-0.609l-0.063,-0.431c-0,0 -0.239,-1.099 -0.228,-1.4c0.01,-0.258 0.44,-0.275 0.503,-0.027c0.141,0.566 0.39,1.521 0.523,1.873c0.175,0.463 0.563,1.677 0.971,0.924c0.409,-0.753 0.366,-1.194 0.435,-1.428c0.075,-0.247 0.586,-0.292 0.486,0.22c-0.041,0.214 -0.067,0.594 -0.192,1.107c-0.056,0.229 -0.175,0.511 -0.235,0.739c-0.069,0.264 -0.1,1.256 -0.138,1.451l-3.05,0.474Z" style="fill:#f9b299;fill-rule:nonzero;"/><path d="M69.241,25.99c0.019,-0.001 0.038,0.173 0.11,0.441c0.036,0.133 0.087,0.291 0.159,0.456c0.034,0.085 0.081,0.18 0.09,0.298c0.009,0.113 -0.033,0.266 -0.164,0.322c-0.132,0.051 -0.248,-0.008 -0.333,-0.069c-0.085,-0.067 -0.149,-0.146 -0.2,-0.231c-0.101,-0.164 -0.146,-0.336 -0.172,-0.476c-0.048,-0.285 -0.041,-0.46 -0.029,-0.462c0.02,-0.003 0.045,0.173 0.11,0.44c0.035,0.134 0.087,0.288 0.182,0.433c0.047,0.072 0.107,0.142 0.176,0.195c0.068,0.05 0.158,0.082 0.221,0.053c0.065,-0.025 0.098,-0.113 0.092,-0.197c-0.004,-0.085 -0.04,-0.171 -0.074,-0.259c-0.069,-0.175 -0.112,-0.341 -0.139,-0.481c-0.053,-0.282 -0.043,-0.462 -0.029,-0.463Z" style="fill:#f79570;fill-rule:nonzero;"/><path d="M69.868,25.495c0.015,-0.004 0.093,0.213 0.208,0.567c0.058,0.192 0.124,0.401 0.193,0.625c0.033,0.119 0.077,0.236 0.107,0.38c0.012,0.069 0.016,0.153 -0.01,0.234c-0.028,0.082 -0.087,0.15 -0.157,0.189c-0.138,0.085 -0.313,0.059 -0.43,-0.023c-0.12,-0.081 -0.2,-0.202 -0.251,-0.319c-0.099,-0.24 -0.136,-0.457 -0.187,-0.636c-0.09,-0.363 -0.139,-0.589 -0.123,-0.594c0.016,-0.004 0.093,0.212 0.204,0.567c0.06,0.175 0.109,0.4 0.204,0.612c0.048,0.103 0.118,0.201 0.214,0.263c0.094,0.064 0.213,0.078 0.312,0.019c0.101,-0.056 0.132,-0.168 0.109,-0.291c-0.023,-0.121 -0.067,-0.249 -0.097,-0.366c-0.061,-0.227 -0.117,-0.439 -0.17,-0.632c-0.092,-0.363 -0.142,-0.588 -0.126,-0.595Z" style="fill:#f79570;fill-rule:nonzero;"/><path d="M72.304,35.114c-0.03,-0.013 0.072,-0.343 0.226,-0.734c0.156,-0.393 0.306,-0.701 0.336,-0.687c0.03,0.014 -0.072,0.342 -0.226,0.736c-0.156,0.391 -0.306,0.698 -0.336,0.685Z" style="fill:#0c2b34;fill-rule:nonzero;"/><path d="M78.022,34.214c-0.004,0.016 -0.249,-0.044 -0.641,-0.159c-0.208,-0.061 -0.438,-0.132 -0.687,-0.206c-0.256,-0.085 -0.542,-0.186 -0.818,-0.354c-0.276,-0.167 -0.506,-0.395 -0.653,-0.649c-0.151,-0.254 -0.194,-0.535 -0.192,-0.751c-0.002,-0.22 0,-0.392 -0.017,-0.51c-0.014,-0.117 -0.034,-0.181 -0.025,-0.184c0.007,-0.005 0.042,0.054 0.071,0.176c0.031,0.119 0.042,0.299 0.054,0.513c0.01,0.215 0.058,0.461 0.202,0.694c0.141,0.23 0.356,0.443 0.618,0.601c0.264,0.161 0.54,0.263 0.794,0.352c0.245,0.084 0.472,0.163 0.678,0.232c0.385,0.137 0.621,0.229 0.616,0.245Z" style="fill:#d7d9d9;fill-rule:nonzero;"/><path d="M88.702,43.67c-0.021,-0.003 0.005,-0.219 -0.058,-0.557c-0.058,-0.339 -0.226,-0.787 -0.503,-1.224c-0.137,-0.221 -0.28,-0.422 -0.411,-0.606c-0.133,-0.182 -0.243,-0.356 -0.36,-0.465c-0.117,-0.111 -0.242,-0.152 -0.328,-0.157c-0.086,-0.006 -0.135,0.016 -0.139,0.007c-0.003,-0.006 0.04,-0.046 0.138,-0.056c0.096,-0.011 0.245,0.022 0.381,0.137c0.139,0.113 0.257,0.284 0.394,0.462c0.136,0.18 0.284,0.383 0.424,0.608c0.284,0.448 0.448,0.922 0.487,1.279c0.043,0.356 -0.014,0.576 -0.025,0.572Z" style="fill:#d7d9d9;fill-rule:nonzero;"/><path d="M92.608,30.418c-0.001,0.005 -0.062,-0.014 -0.177,-0.054c-0.125,-0.042 -0.292,-0.099 -0.502,-0.171c-0.435,-0.136 -1.076,-0.363 -1.889,-0.355c-0.403,0.007 -0.846,0.1 -1.273,0.321c-0.43,0.219 -0.841,0.546 -1.256,0.915c-0.417,0.365 -0.832,0.785 -1.333,1.132c-0.496,0.343 -1.079,0.632 -1.724,0.665c-0.32,0.016 -0.641,-0.055 -0.924,-0.198c-0.287,-0.14 -0.528,-0.352 -0.732,-0.584c-0.41,-0.469 -0.7,-0.998 -1.027,-1.452c-0.637,-0.934 -1.554,-1.422 -2.339,-1.602c-0.795,-0.187 -1.466,-0.092 -1.904,0.03c-0.44,0.124 -0.664,0.259 -0.67,0.244c-0,-0 0.216,-0.15 0.658,-0.294c0.438,-0.135 1.12,-0.247 1.934,-0.069c0.403,0.089 0.837,0.251 1.257,0.516c0.42,0.262 0.825,0.634 1.151,1.103c0.333,0.46 0.625,0.986 1.024,1.437c0.385,0.46 0.955,0.777 1.568,0.743c0.611,-0.031 1.179,-0.309 1.664,-0.643c0.49,-0.337 0.907,-0.753 1.328,-1.117c0.418,-0.37 0.839,-0.7 1.284,-0.921c0.441,-0.225 0.901,-0.315 1.313,-0.316c0.832,0.006 1.472,0.248 1.904,0.397c0.217,0.08 0.384,0.148 0.496,0.195c0.112,0.048 0.17,0.074 0.169,0.078Z" style="fill:#d7d9d9;fill-rule:nonzero;"/><path d="M89.771,36.803c-0.005,0.014 -0.141,-0.071 -0.411,-0.101c-0.27,-0.027 -0.663,0.055 -1.108,0.274c-0.445,0.209 -0.955,0.538 -1.586,0.743c-0.624,0.214 -1.345,0.344 -2.103,0.328c-0.757,-0.015 -1.474,-0.177 -2.087,-0.424c-0.617,-0.242 -1.13,-0.566 -1.532,-0.873c-0.401,-0.313 -0.69,-0.611 -0.877,-0.828c-0.096,-0.105 -0.164,-0.194 -0.209,-0.256c-0.046,-0.06 -0.068,-0.094 -0.065,-0.096c0.009,-0.007 0.109,0.115 0.306,0.319c0.197,0.204 0.492,0.489 0.893,0.787c0.404,0.295 0.912,0.605 1.521,0.838c0.606,0.235 1.308,0.39 2.053,0.405c0.744,0.017 1.452,-0.107 2.067,-0.31c0.62,-0.197 1.127,-0.511 1.586,-0.715c0.454,-0.211 0.868,-0.285 1.145,-0.24c0.279,0.046 0.407,0.149 0.407,0.149Z" style="fill:#d7d9d9;fill-rule:nonzero;"/><path d="M94.087,35.775c0.006,0.002 -0.009,0.07 -0.057,0.183c-0.047,0.115 -0.126,0.276 -0.252,0.453c-0.246,0.355 -0.717,0.789 -1.355,0.931c-0.633,0.147 -1.215,0.039 -1.617,-0.043c-0.405,-0.09 -0.648,-0.169 -0.646,-0.184c0.004,-0.02 0.256,0.028 0.66,0.096c0.402,0.058 0.974,0.149 1.577,0.007c0.606,-0.135 1.06,-0.533 1.315,-0.863c0.26,-0.333 0.355,-0.59 0.375,-0.58Z" style="fill:#d7d9d9;fill-rule:nonzero;"/><path d="M88.743,31.536c0.003,-0.001 0.014,0.039 0.031,0.117c0.02,0.087 0.047,0.201 0.079,0.346c0.071,0.311 0.173,0.753 0.3,1.311c0.263,1.128 0.648,2.738 1.131,4.665l0.009,0.038l-0.03,0.021c-1.541,1.138 -3.364,2.484 -5.313,3.921c-0.284,0.209 -0.564,0.417 -0.842,0.62l0.021,-0.076c0.419,1.124 0.821,2.203 1.195,3.209l-0.076,-0.031c2.204,-1.164 4.061,-2.226 5.366,-2.994c0.647,-0.383 1.163,-0.688 1.525,-0.904c0.171,-0.102 0.307,-0.182 0.405,-0.241c0.094,-0.053 0.143,-0.08 0.144,-0.076c0.002,0.003 -0.045,0.035 -0.134,0.094c-0.097,0.063 -0.23,0.149 -0.397,0.257c-0.348,0.222 -0.859,0.541 -1.508,0.935c-1.298,0.786 -3.149,1.863 -5.352,3.037l-0.054,0.028l-0.023,-0.059c-0.377,-1.006 -0.78,-2.084 -1.201,-3.207l-0.017,-0.048l0.039,-0.029c0.277,-0.203 0.558,-0.409 0.841,-0.618c1.952,-1.434 3.78,-2.775 5.324,-3.907l-0.02,0.059c-0.474,-1.931 -0.845,-3.546 -1.09,-4.679c-0.124,-0.568 -0.214,-1.014 -0.274,-1.319c-0.025,-0.146 -0.048,-0.262 -0.063,-0.349c-0.013,-0.079 -0.019,-0.121 -0.016,-0.121Z" style="fill:#0c2b34;fill-rule:nonzero;"/><path d="M91.969,38.553c-0.021,0.026 -0.345,-0.259 -0.831,-0.416c-0.24,-0.08 -0.466,-0.12 -0.631,-0.128c-0.165,-0.012 -0.268,0.001 -0.273,-0.02c-0.003,-0.014 0.099,-0.058 0.273,-0.071c0.173,-0.014 0.415,0.013 0.666,0.098c0.513,0.165 0.824,0.514 0.796,0.537Z" style="fill:#0c2b34;fill-rule:nonzero;"/><path d="M65.339,64.851l0.943,-2.096l3.681,1.866l-1.35,3.081l-0.235,-0.1c-1.042,-0.454 -5.271,-2.39 -5.852,-2.953c-0.648,-0.63 2.813,0.202 2.813,0.202Z" style="fill:#f15b66;fill-rule:nonzero;"/><path d="M69.108,66.573l0.013,-0.03l-0.013,0.03Z" style="fill:#fff;fill-rule:nonzero;"/><path d="M68.634,67.644l-0.001,-0l0.013,-0.032l-1.327,-0.658c0.199,-0.281 0.492,-0.484 0.814,-0.561c0.106,-0.025 0.213,-0.038 0.319,-0.038c0.234,0 0.464,0.062 0.669,0.188l-0.013,0.03l-0.474,1.071Z" style="fill:#f69fa8;fill-rule:nonzero;"/><path d="M68.613,67.702c-0.913,-0.362 -2.335,-1.028 -3.585,-1.657c1.332,0.652 2.794,1.315 3.35,1.557l0.235,0.1Zm-6.06,-3.029c-0.077,-0.056 -0.122,-0.1 -0.126,-0.126c-0.008,-0.037 0.011,-0.065 0.047,-0.083c-0.05,0.036 -0.04,0.096 0.052,0.185c0.007,0.007 0.017,0.016 0.027,0.024Zm1.067,-0.171c-0.1,-0.016 -0.198,-0.031 -0.292,-0.043c0.156,0.02 0.275,0.041 0.292,0.043Z" style="fill:#fff;fill-rule:nonzero;"/><path d="M68.613,67.702l-0.235,-0.1c-0.556,-0.242 -2.018,-0.905 -3.35,-1.557c-1.137,-0.574 -2.132,-1.117 -2.475,-1.372c-0.01,-0.008 -0.02,-0.017 -0.027,-0.024c-0.092,-0.089 -0.102,-0.149 -0.052,-0.185c0.063,-0.034 0.177,-0.047 0.31,-0.047c0.174,0 0.379,0.021 0.544,0.042c0.094,0.012 0.192,0.027 0.292,0.043l0.001,0c0.21,0.118 0.101,0.672 0.101,0.672l3.597,1.78c-0.009,0.013 -0.018,0.027 -0.027,0.041l1.341,0.649l-0.02,0.058Z" style="fill:#f5909b;fill-rule:nonzero;"/><path d="M68.633,67.644l-1.341,-0.649c0.009,-0.014 0.018,-0.028 0.027,-0.041l1.327,0.658l-0.013,0.032Z" style="fill:#f9c1c6;fill-rule:nonzero;"/><path d="M68.704,67.637c0,0.004 -0.023,-0.006 -0.066,-0.023c-0.056,-0.025 -0.117,-0.051 -0.187,-0.081c-0.185,-0.082 -0.413,-0.187 -0.682,-0.307c-0.576,-0.266 -1.366,-0.641 -2.229,-1.078c-0.863,-0.436 -1.637,-0.85 -2.192,-1.156c-0.259,-0.145 -0.479,-0.269 -0.657,-0.368c-0.065,-0.039 -0.123,-0.073 -0.177,-0.105c-0.04,-0.023 -0.061,-0.037 -0.06,-0.038c0.002,-0.002 0.024,0.009 0.065,0.029c0.054,0.029 0.114,0.06 0.181,0.095c0.18,0.096 0.401,0.215 0.663,0.354c0.559,0.299 1.336,0.705 2.198,1.141c0.863,0.437 1.65,0.817 2.221,1.091c0.267,0.128 0.492,0.235 0.677,0.323c0.068,0.034 0.129,0.063 0.183,0.09c0.041,0.022 0.064,0.032 0.062,0.033Z" style="fill:#0c2b34;fill-rule:nonzero;"/><path d="M63.697,65.236c-0.015,-0.005 0.05,-0.181 0.025,-0.405c-0.02,-0.224 -0.12,-0.381 -0.106,-0.389c0.007,-0.011 0.133,0.143 0.155,0.383c0.027,0.24 -0.065,0.42 -0.074,0.411Z" style="fill:#0c2b34;fill-rule:nonzero;"/><path d="M65.043,65.196c-0.013,0.002 -0.035,-0.093 -0.049,-0.21c-0.013,-0.118 -0.013,-0.214 0,-0.216c0.014,-0.002 0.036,0.092 0.049,0.209c0.014,0.119 0.014,0.216 0,0.217Z" style="fill:#0c2b34;fill-rule:nonzero;"/><path d="M65.417,65.179c-0.013,0.006 -0.053,-0.065 -0.089,-0.159c-0.037,-0.093 -0.057,-0.173 -0.044,-0.179c0.013,-0.005 0.053,0.067 0.089,0.158c0.037,0.094 0.056,0.174 0.044,0.18Z" style="fill:#0c2b34;fill-rule:nonzero;"/><path d="M65.769,64.902c-0.006,0.014 -0.097,-0.019 -0.203,-0.071c-0.107,-0.052 -0.189,-0.105 -0.184,-0.118c0.006,-0.014 0.098,0.018 0.205,0.071c0.106,0.052 0.189,0.106 0.182,0.118Z" style="fill:#0c2b34;fill-rule:nonzero;"/><path d="M65.95,64.673c-0.001,0.014 -0.114,0.012 -0.243,-0.042c-0.13,-0.053 -0.216,-0.133 -0.208,-0.144c0.008,-0.012 0.102,0.045 0.224,0.095c0.124,0.051 0.229,0.075 0.227,0.091Z" style="fill:#0c2b34;fill-rule:nonzero;"/><path d="M65.071,64.789c-0.002,0.006 -0.099,-0.028 -0.237,-0.12c-0.067,-0.047 -0.146,-0.109 -0.225,-0.188c-0.038,-0.042 -0.08,-0.079 -0.116,-0.136c-0.016,-0.029 -0.031,-0.066 -0.024,-0.109c0.008,-0.042 0.045,-0.075 0.081,-0.082c0.281,-0.011 0.448,0.24 0.477,0.407c0.017,0.088 0.011,0.16 0.002,0.207c-0.01,0.049 -0.021,0.073 -0.025,0.071c-0.008,0 0.029,-0.106 -0.012,-0.269c-0.02,-0.08 -0.063,-0.17 -0.139,-0.244c-0.072,-0.068 -0.189,-0.135 -0.292,-0.121c-0.05,0.012 -0.057,0.065 -0.027,0.114c0.027,0.046 0.07,0.087 0.107,0.127c0.075,0.079 0.148,0.143 0.213,0.191c0.13,0.099 0.22,0.145 0.217,0.152Z" style="fill:#0c2b34;fill-rule:nonzero;"/><path d="M65.004,64.771c-0.005,0.001 -0.011,-0.081 0.05,-0.19c0.03,-0.052 0.079,-0.108 0.147,-0.151c0.067,-0.035 0.155,-0.087 0.253,-0.03c0.053,0.035 0.049,0.116 0.022,0.154c-0.024,0.042 -0.059,0.071 -0.09,0.092c-0.064,0.046 -0.126,0.076 -0.179,0.097c-0.109,0.041 -0.181,0.041 -0.181,0.035c-0.002,-0.01 0.067,-0.022 0.167,-0.07c0.05,-0.023 0.108,-0.055 0.167,-0.102c0.056,-0.036 0.12,-0.121 0.067,-0.162c-0.057,-0.037 -0.146,-0.005 -0.204,0.029c-0.061,0.035 -0.109,0.083 -0.14,0.13c-0.063,0.094 -0.071,0.17 -0.079,0.168Z" style="fill:#0c2b34;fill-rule:nonzero;"/><path d="M69.107,66.523c-0.005,0.008 -0.101,-0.063 -0.277,-0.127c-0.173,-0.064 -0.434,-0.108 -0.709,-0.04c-0.274,0.07 -0.491,0.233 -0.619,0.374c-0.131,0.139 -0.186,0.25 -0.194,0.245c-0.004,-0.002 0.008,-0.031 0.034,-0.08c0.027,-0.048 0.07,-0.116 0.135,-0.192c0.125,-0.15 0.346,-0.325 0.633,-0.398c0.286,-0.072 0.557,-0.019 0.732,0.056c0.088,0.036 0.156,0.075 0.2,0.107c0.044,0.031 0.066,0.053 0.065,0.055Z" style="fill:#0c2b34;fill-rule:nonzero;"/><path d="M69.45,64.691c0.012,0.007 -0.133,0.375 -0.326,0.825c-0.193,0.45 -0.358,0.809 -0.371,0.803c-0.013,-0.006 0.134,-0.376 0.326,-0.826c0.192,-0.449 0.359,-0.808 0.371,-0.802Z" style="fill:#0c2b34;fill-rule:nonzero;"/><path d="M66.999,66.377c-0.005,0.012 -0.263,-0.067 -0.563,-0.215c-0.302,-0.149 -0.525,-0.307 -0.518,-0.32c0.006,-0.013 0.241,0.125 0.539,0.271c0.297,0.147 0.546,0.249 0.542,0.264Z" style="fill:#0c2b34;fill-rule:nonzero;"/><path d="M67.72,66.74c0.006,0.014 -0.043,0.045 -0.093,0.092c-0.053,0.046 -0.088,0.092 -0.1,0.084c-0.013,-0.006 0.009,-0.072 0.067,-0.125c0.059,-0.053 0.123,-0.065 0.126,-0.051Z" style="fill:#0c2b34;fill-rule:nonzero;"/><path d="M68.152,66.516c0.006,0.014 -0.036,0.043 -0.093,0.064c-0.057,0.023 -0.106,0.029 -0.11,0.015c-0.006,-0.014 0.037,-0.042 0.093,-0.064c0.057,-0.022 0.106,-0.028 0.11,-0.015Z" style="fill:#0c2b34;fill-rule:nonzero;"/><path d="M68.616,66.548c-0.009,0.012 -0.058,-0.014 -0.122,-0.02c-0.062,-0.009 -0.115,0.003 -0.121,-0.01c-0.006,-0.012 0.049,-0.053 0.127,-0.042c0.079,0.008 0.124,0.062 0.116,0.072Z" style="fill:#0c2b34;fill-rule:nonzero;"/><path d="M68.927,66.61c-0.001,0.014 -0.031,0.025 -0.067,0.021c-0.037,-0.003 -0.066,-0.017 -0.064,-0.03c0.001,-0.015 0.031,-0.026 0.067,-0.022c0.036,0.002 0.065,0.016 0.064,0.031Z" style="fill:#0c2b34;fill-rule:nonzero;"/><path d="M76.297,77.537l-0.045,-2.325l4.072,-0.118l0.098,3.402l-0.251,0.025c-1.122,0.098 -5.712,0.418 -6.469,0.196c-0.844,-0.248 2.595,-1.18 2.595,-1.18Z" style="fill:#f15b66;fill-rule:nonzero;"/><path d="M78.953,78.454c0.058,-0.347 0.234,-0.671 0.489,-0.895c0.249,-0.218 0.555,-0.345 0.875,-0.345c0.023,-0 0.045,0.001 0.069,0.002l0.031,1.216l-0.004,-0.034l-1.46,0.056Z" style="fill:#f69fa8;fill-rule:nonzero;"/><path d="M76.519,78.752c1.464,-0.064 3.053,-0.179 3.652,-0.231l0.127,-0.013c-0,-0 0.001,0.001 0.002,0.001c-0.974,0.113 -2.456,0.201 -3.781,0.243Z" style="fill:#fff;fill-rule:nonzero;"/><path d="M80.3,78.509c-0.001,-0 -0.002,-0.001 -0.002,-0.001l0.124,-0.012c-0.039,0.004 -0.081,0.01 -0.122,0.013Z" style="fill:#80989f;fill-rule:nonzero;"/><path d="M73.739,78.726c-0.095,-0.013 -0.152,-0.031 -0.168,-0.052c-0.022,-0.029 -0.018,-0.061 0.007,-0.096c-0.028,0.057 0.006,0.104 0.124,0.139c0.011,0.003 0.024,0.006 0.037,0.009Zm0.609,-0.569c0.135,-0.054 0.24,-0.09 0.264,-0.099c-0.09,0.033 -0.179,0.065 -0.264,0.099Z" style="fill:#fff;fill-rule:nonzero;"/><path d="M75.018,78.778c-0.584,-0 -1.045,-0.016 -1.279,-0.052c-0.013,-0.003 -0.026,-0.006 -0.037,-0.009c-0.118,-0.035 -0.152,-0.082 -0.124,-0.139c0.093,-0.14 0.494,-0.313 0.77,-0.421c0.085,-0.034 0.174,-0.066 0.264,-0.099c0.004,-0.001 0.006,-0.001 0.006,-0.001c0.236,0.004 0.374,0.55 0.374,0.55l3.961,-0.153c-0.003,0.016 -0.005,0.032 -0.007,0.049l1.471,-0.07l-0,-0.001l0.005,0.064l-0.124,0.012l-0.127,0.013c-0.599,0.052 -2.188,0.167 -3.652,0.231c-0.541,0.016 -1.057,0.026 -1.501,0.026Z" style="fill:#f5909b;fill-rule:nonzero;"/><path d="M78.946,78.503c0.002,-0.017 0.004,-0.033 0.007,-0.049l1.46,-0.056l0.004,0.034l-0,0.001l-1.471,0.07Z" style="fill:#f9c1c6;fill-rule:nonzero;"/><path d="M80.478,78.393c-0,0.003 -0.025,0.005 -0.07,0.01c-0.06,0.007 -0.127,0.013 -0.201,0.018c-0.2,0.017 -0.448,0.036 -0.739,0.057c-0.625,0.043 -1.488,0.088 -2.442,0.117c-0.955,0.029 -1.82,0.035 -2.446,0.03c-0.291,-0.003 -0.539,-0.007 -0.74,-0.011c-0.076,-0.001 -0.141,-0.004 -0.202,-0.006c-0.046,-0.002 -0.07,-0.004 -0.07,-0.006c-0,-0.001 0.024,-0.003 0.07,-0.004c0.061,-0.002 0.126,-0.003 0.202,-0.004c0.201,-0.001 0.449,-0.002 0.74,-0.005c0.626,-0.004 1.49,-0.017 2.444,-0.046c0.954,-0.029 1.817,-0.068 2.443,-0.102c0.291,-0.015 0.537,-0.028 0.739,-0.039c0.075,-0.004 0.141,-0.006 0.201,-0.009c0.046,-0.002 0.071,-0.002 0.071,-0Z" style="fill:#0c2b34;fill-rule:nonzero;"/><path d="M74.994,78.674c-0.014,0.002 -0.031,-0.187 -0.147,-0.373c-0.114,-0.19 -0.268,-0.282 -0.26,-0.296c0.002,-0.014 0.179,0.064 0.302,0.267c0.123,0.201 0.119,0.404 0.105,0.402Z" style="fill:#0c2b34;fill-rule:nonzero;"/><path d="M76.18,77.987c-0.012,0.009 -0.071,-0.064 -0.133,-0.163c-0.063,-0.098 -0.103,-0.185 -0.093,-0.193c0.013,-0.008 0.072,0.065 0.134,0.163c0.062,0.099 0.103,0.186 0.092,0.193Z" style="fill:#0c2b34;fill-rule:nonzero;"/><path d="M76.504,77.791c-0.008,0.011 -0.074,-0.033 -0.145,-0.098c-0.072,-0.065 -0.123,-0.127 -0.115,-0.139c0.009,-0.011 0.074,0.033 0.146,0.099c0.072,0.065 0.123,0.127 0.114,0.138Z" style="fill:#0c2b34;fill-rule:nonzero;"/><path d="M76.702,77.375c0.001,0.014 -0.094,0.03 -0.211,0.034c-0.118,0.005 -0.213,-0.003 -0.214,-0.017c-0,-0.015 0.094,-0.03 0.212,-0.036c0.118,-0.003 0.213,0.004 0.213,0.019Z" style="fill:#0c2b34;fill-rule:nonzero;"/><path d="M76.767,77.083c0.004,0.011 -0.098,0.066 -0.236,0.08c-0.138,0.016 -0.248,-0.014 -0.245,-0.028c0.002,-0.015 0.11,-0.011 0.24,-0.026c0.131,-0.014 0.236,-0.04 0.241,-0.026Z" style="fill:#0c2b34;fill-rule:nonzero;"/><path d="M76.031,77.612c0.001,0.005 -0.099,0.021 -0.261,0.005c-0.081,-0.007 -0.177,-0.024 -0.28,-0.058c-0.052,-0.017 -0.106,-0.029 -0.161,-0.065c-0.027,-0.017 -0.057,-0.042 -0.068,-0.085c-0.011,-0.04 0.008,-0.09 0.037,-0.113c0.246,-0.145 0.501,-0.002 0.598,0.133c0.052,0.07 0.077,0.138 0.09,0.184c0.012,0.048 0.012,0.076 0.008,0.077c-0.008,0.002 -0.021,-0.111 -0.125,-0.237c-0.051,-0.061 -0.129,-0.12 -0.228,-0.148c-0.093,-0.027 -0.224,-0.031 -0.311,0.03c-0.041,0.036 -0.023,0.087 0.024,0.116c0.044,0.027 0.1,0.044 0.149,0.063c0.099,0.033 0.193,0.054 0.271,0.067c0.157,0.024 0.257,0.022 0.257,0.031Z" style="fill:#0c2b34;fill-rule:nonzero;"/><path d="M75.964,77.627c-0.003,0.004 -0.044,-0.068 -0.035,-0.192c0.005,-0.063 0.024,-0.137 0.067,-0.208c0.044,-0.063 0.101,-0.15 0.214,-0.149c0.06,0.007 0.092,0.08 0.083,0.126c-0.003,0.05 -0.023,0.093 -0.041,0.128c-0.036,0.072 -0.08,0.128 -0.119,0.172c-0.08,0.09 -0.144,0.123 -0.146,0.118c-0.006,-0.006 0.05,-0.051 0.12,-0.143c0.034,-0.044 0.072,-0.102 0.105,-0.17c0.035,-0.061 0.056,-0.168 -0.01,-0.178c-0.065,-0.005 -0.131,0.066 -0.169,0.123c-0.04,0.062 -0.061,0.128 -0.07,0.184c-0.016,0.115 0.009,0.188 0.001,0.189Z" style="fill:#0c2b34;fill-rule:nonzero;"/><path d="M80.364,77.204c-0.001,0.011 -0.117,-0.008 -0.301,0.021c-0.181,0.027 -0.433,0.115 -0.649,0.308c-0.215,0.195 -0.338,0.445 -0.394,0.632c-0.057,0.188 -0.06,0.314 -0.069,0.313c-0.003,-0 -0.005,-0.031 -0.002,-0.088c0.002,-0.056 0.013,-0.138 0.038,-0.235c0.049,-0.196 0.171,-0.459 0.396,-0.662c0.225,-0.202 0.488,-0.287 0.676,-0.306c0.094,-0.009 0.172,-0.006 0.224,0c0.053,0.007 0.081,0.014 0.081,0.017Z" style="fill:#0c2b34;fill-rule:nonzero;"/><path d="M79.896,75.404c0.013,-0 0.04,0.4 0.057,0.894c0.019,0.495 0.024,0.896 0.009,0.896c-0.013,0.001 -0.04,-0.399 -0.058,-0.894c-0.018,-0.494 -0.022,-0.895 -0.008,-0.896Z" style="fill:#0c2b34;fill-rule:nonzero;"/><path d="M78.422,78.094c0.002,0.013 -0.262,0.068 -0.593,0.08c-0.33,0.014 -0.598,-0.019 -0.597,-0.033c0.001,-0.015 0.268,-0.006 0.596,-0.019c0.328,-0.012 0.592,-0.044 0.594,-0.028Z" style="fill:#0c2b34;fill-rule:nonzero;"/><path d="M79.22,78.069c0.01,0.01 -0.02,0.061 -0.046,0.128c-0.026,0.064 -0.038,0.123 -0.053,0.123c-0.012,-0 -0.022,-0.068 0.008,-0.144c0.03,-0.077 0.082,-0.116 0.091,-0.107Z" style="fill:#0c2b34;fill-rule:nonzero;"/><path d="M79.511,77.66c0.01,0.009 -0.015,0.055 -0.057,0.103c-0.041,0.048 -0.082,0.076 -0.092,0.066c-0.01,-0.008 0.016,-0.056 0.057,-0.102c0.041,-0.047 0.081,-0.078 0.092,-0.067Z" style="fill:#0c2b34;fill-rule:nonzero;"/><path d="M79.937,77.465c-0.003,0.014 -0.057,0.016 -0.116,0.039c-0.06,0.023 -0.102,0.061 -0.113,0.05c-0.011,-0.007 0.022,-0.07 0.095,-0.098c0.074,-0.03 0.137,-0.005 0.134,0.009Z" style="fill:#0c2b34;fill-rule:nonzero;"/><path d="M80.24,77.37c0.006,0.013 -0.017,0.036 -0.05,0.051c-0.034,0.015 -0.066,0.016 -0.071,0.002c-0.005,-0.014 0.018,-0.036 0.051,-0.051c0.033,-0.015 0.066,-0.016 0.07,-0.002Z" style="fill:#0c2b34;fill-rule:nonzero;"/><path d="M79.499,34.793c-0.017,-0.007 0.047,-0.244 0.153,-0.628c0.055,-0.192 0.12,-0.419 0.201,-0.671c0.041,-0.125 0.087,-0.256 0.139,-0.391c0.029,-0.073 0.065,-0.134 0.082,-0.194c0.018,-0.062 0.025,-0.13 0.024,-0.201c-0.004,-0.142 -0.038,-0.287 -0.061,-0.429c-0.025,-0.14 -0.048,-0.275 -0.071,-0.408c-0.04,-0.248 -0.078,-0.48 -0.113,-0.692c-0.061,-0.395 -0.09,-0.641 -0.072,-0.645c0.017,-0.004 0.077,0.236 0.159,0.627c0.043,0.211 0.09,0.44 0.14,0.686c0.026,0.132 0.051,0.267 0.078,0.407c0.025,0.141 0.061,0.286 0.065,0.451c0.003,0.082 -0.005,0.164 -0.03,0.246c-0.025,0.082 -0.064,0.143 -0.087,0.203c-0.053,0.131 -0.099,0.26 -0.143,0.383c-0.081,0.236 -0.156,0.457 -0.226,0.658c-0.128,0.376 -0.221,0.604 -0.238,0.598Z" style="fill:#0c2b34;fill-rule:nonzero;"/><path d="M88.974,38.849c-0.013,-0.686 -0.041,-1.392 -0.076,-2.108c0.131,-0.03 0.251,-0.043 0.356,-0.043c0.037,-0 0.073,0.001 0.106,0.004c0.249,0.028 0.384,0.102 0.408,0.102c0.002,0 0.003,0 0.003,-0.001c0,0 -0.128,-0.103 -0.407,-0.149c-0.051,-0.01 -0.107,-0.013 -0.167,-0.013c-0.093,0 -0.194,0.01 -0.303,0.029c-0.096,-1.947 -0.254,-3.963 -0.367,-5.815c0.243,1.231 0.604,2.764 0.932,4.093c0.201,0.876 0.442,1.893 0.718,3.019c-0.385,0.282 -0.786,0.576 -1.203,0.882Zm0.196,-0.007c0.298,-0.22 0.589,-0.435 0.87,-0.643c-0.223,0.196 -0.594,0.473 -0.87,0.643Z" style="fill:#ba3d48;fill-rule:nonzero;"/><path d="M89.768,36.804c-0.024,0 -0.159,-0.074 -0.408,-0.102c-0.033,-0.003 -0.069,-0.004 -0.106,-0.004c-0.105,-0 -0.225,0.013 -0.356,0.043c-0.001,-0.024 -0.002,-0.048 -0.004,-0.071c0.109,-0.019 0.21,-0.029 0.303,-0.029c0.06,0 0.116,0.003 0.167,0.013c0.279,0.046 0.407,0.149 0.407,0.149c0,0.001 -0.001,0.001 -0.003,0.001Z" style="fill:#929596;fill-rule:nonzero;"/><path d="M88.977,38.951c-0.001,-0.035 -0.001,-0.068 -0.003,-0.102c0.417,-0.306 0.818,-0.6 1.203,-0.882c-0.276,-1.126 -0.517,-2.143 -0.718,-3.019c0.414,1.685 0.775,3.041 0.775,3.041c0,0.029 -0.076,0.109 -0.194,0.21c-0.281,0.208 -0.572,0.423 -0.87,0.643c-0.073,0.045 -0.139,0.082 -0.193,0.109Z" style="fill:#011721;fill-rule:nonzero;"/><path d="M92.563,46.158c0,-0 -16.7,-3.741 -18.316,-2.923c-1.618,0.82 -9.074,20.529 -9.074,20.529l5.029,1.976l6.828,-16.354c0,-0 12.299,4.96 14.341,4.506c2.043,-0.454 1.192,-7.734 1.192,-7.734Z" style="fill:#00a6d7;fill-rule:nonzero;"/><path d="M85.099,47.209c-0.256,0.09 -9.916,4.338 -10.596,5.702c-0.681,1.365 0.991,24.032 0.991,24.032l5.495,-0l-0.34,-20.146l10.722,-2.905l-6.272,-6.683Z" style="fill:#00a6d7;fill-rule:nonzero;"/><path d="M91.428,53.938c-0.001,0.005 -0.056,-0.002 -0.159,-0.021c-0.116,-0.022 -0.265,-0.05 -0.449,-0.086c-0.39,-0.075 -0.953,-0.194 -1.647,-0.352c-1.386,-0.313 -3.295,-0.787 -5.375,-1.424c-1.04,-0.323 -2.022,-0.658 -2.909,-0.983c-0.883,-0.337 -1.676,-0.652 -2.328,-0.95c-0.329,-0.142 -0.621,-0.283 -0.878,-0.408c-0.257,-0.123 -0.476,-0.232 -0.653,-0.328c-0.168,-0.09 -0.303,-0.164 -0.408,-0.22c-0.093,-0.051 -0.14,-0.081 -0.139,-0.085c0.003,-0.004 0.054,0.018 0.15,0.06c0.107,0.052 0.246,0.117 0.417,0.198c0.18,0.088 0.402,0.191 0.662,0.307c0.258,0.117 0.552,0.253 0.884,0.388c0.654,0.286 1.447,0.59 2.331,0.92c0.887,0.319 1.869,0.65 2.906,0.972c2.076,0.636 3.979,1.124 5.36,1.46c0.679,0.165 1.235,0.297 1.637,0.394c0.182,0.046 0.33,0.082 0.444,0.11c0.102,0.027 0.154,0.043 0.154,0.048Z" style="fill:#335863;fill-rule:nonzero;"/><path d="M74.506,58.118c-0.009,0.001 -0.027,-0.12 -0.052,-0.339c-0.024,-0.246 -0.055,-0.558 -0.092,-0.929c-0.034,-0.403 -0.075,-0.869 -0.12,-1.38c-0.039,-0.517 -0.108,-1.101 -0.002,-1.709c0.102,-0.616 0.437,-1.125 0.802,-1.478c0.367,-0.361 0.764,-0.589 1.099,-0.756c0.338,-0.166 0.62,-0.272 0.816,-0.343c0.195,-0.071 0.305,-0.105 0.309,-0.096c0.008,0.023 -0.425,0.185 -1.086,0.525c-0.327,0.176 -0.71,0.408 -1.059,0.76c-0.349,0.349 -0.66,0.83 -0.758,1.413c-0.101,0.58 -0.039,1.155 -0.005,1.673c0.034,0.513 0.066,0.979 0.093,1.384c0.021,0.372 0.039,0.684 0.052,0.932c0.009,0.221 0.01,0.343 0.003,0.343Z" style="fill:#335863;fill-rule:nonzero;"/><path d="M79.324,56.171c0.015,-0.033 0.317,0.075 0.676,0.244c0.36,0.17 0.639,0.335 0.626,0.369c-0.015,0.033 -0.317,-0.077 -0.676,-0.245c-0.359,-0.169 -0.639,-0.334 -0.626,-0.368Z" style="fill:#0c2b34;fill-rule:nonzero;"/><path d="M79.809,55.551c0.034,-0.015 0.187,0.31 0.438,0.663c0.249,0.356 0.5,0.601 0.477,0.632c-0.018,0.029 -0.317,-0.18 -0.577,-0.549c-0.264,-0.371 -0.368,-0.734 -0.338,-0.746Z" style="fill:#0c2b34;fill-rule:nonzero;"/><path d="M81.919,56.481c0.003,0.004 -0.017,0.049 -0.086,0.093c-0.066,0.046 -0.182,0.077 -0.317,0.081c-0.136,0.006 -0.298,-0.016 -0.457,0.013c-0.165,0.022 -0.275,0.162 -0.273,0.373c-0.006,0.861 -0.033,1.57 -0.069,1.568c-0.034,-0.001 -0.064,-0.7 -0.057,-1.575c0.006,-0.113 0.028,-0.24 0.103,-0.334c0.073,-0.097 0.184,-0.141 0.277,-0.155c0.19,-0.026 0.346,0.01 0.477,0.015c0.263,0.029 0.389,-0.093 0.402,-0.079Z" style="fill:#0c2b34;fill-rule:nonzero;"/><path d="M80.894,15.001c-0.834,0.288 -1.804,0.882 -1.324,3.674c0.212,1.23 0.48,2.483 1.251,3.423c0.118,0.143 0.271,0.291 0.447,0.264c0.125,-0.019 0.223,-0.124 0.309,-0.224c0.876,-1.021 1.622,-2.227 1.859,-3.589c0.236,-1.362 -0.119,-2.898 -1.122,-3.775" style="fill:#0c2b34;fill-rule:nonzero;"/><path d="M82.496,27.135c-0.028,-1.285 -0.079,-2.666 -0.079,-2.666c-0,0 -1.829,-0.245 -1.908,-2.242c-0.079,-1.996 -0.098,-5.492 -0.098,-5.492l3.571,-2.829l2.508,3.69l0.062,9.473c0.008,1.205 -0.903,2.184 -2.029,2.184c-1.102,0 -2.002,-0.939 -2.027,-2.118Z" style="fill:#f9b299;fill-rule:nonzero;"/><path d="M82.417,24.469c-0,0 1.223,0.039 2.422,-0.847c-0,0 -0.57,1.454 -2.391,1.338l-0.031,-0.491Z" style="fill:#f79570;fill-rule:nonzero;"/><path d="M82.582,22.144c-0.033,-0.075 -0.024,-0.167 0.021,-0.235c0.045,-0.066 0.125,-0.104 0.201,-0.096c0.012,-0.182 0.179,-0.334 0.35,-0.327c0.172,0.007 0.324,0.16 0.354,0.341c0.03,0.179 -0.056,0.372 -0.199,0.473c-0.143,0.099 -0.335,0.11 -0.492,0.038c-0.125,-0.056 -0.234,-0.172 -0.249,-0.313" style="fill:#f79570;fill-rule:nonzero;"/><path d="M80.788,19.155c-0.005,0.145 0.106,0.269 0.248,0.276c0.14,0.009 0.258,-0.101 0.263,-0.246c0.005,-0.145 -0.106,-0.269 -0.247,-0.276c-0.141,-0.009 -0.26,0.101 -0.264,0.246Z" style="fill:#0c2b34;fill-rule:nonzero;"/><path d="M80.8,18.93c0.031,0.036 0.226,-0.117 0.501,-0.117c0.276,-0.003 0.478,0.148 0.508,0.112c0.014,-0.016 -0.018,-0.079 -0.106,-0.148c-0.086,-0.069 -0.234,-0.135 -0.406,-0.135c-0.171,0.001 -0.316,0.068 -0.399,0.139c-0.085,0.068 -0.114,0.133 -0.098,0.149Z" style="fill:#0c2b34;fill-rule:nonzero;"/><path d="M83.556,19.183c-0.005,0.145 0.105,0.269 0.246,0.277c0.141,0.008 0.26,-0.102 0.265,-0.247c0.004,-0.145 -0.106,-0.269 -0.247,-0.276c-0.141,-0.009 -0.26,0.102 -0.264,0.246Z" style="fill:#0c2b34;fill-rule:nonzero;"/><path d="M83.51,18.986c0.031,0.036 0.226,-0.118 0.501,-0.118c0.276,-0.003 0.478,0.149 0.508,0.112c0.014,-0.016 -0.018,-0.08 -0.106,-0.148c-0.086,-0.069 -0.234,-0.135 -0.406,-0.135c-0.171,0.001 -0.317,0.069 -0.399,0.138c-0.085,0.07 -0.114,0.134 -0.098,0.151Z" style="fill:#0c2b34;fill-rule:nonzero;"/><path d="M82.509,21.172c0.002,-0.018 -0.17,-0.049 -0.448,-0.087c-0.07,-0.008 -0.137,-0.023 -0.149,-0.074c-0.016,-0.054 0.014,-0.135 0.048,-0.223c0.066,-0.182 0.134,-0.373 0.208,-0.574c0.289,-0.816 0.499,-1.487 0.468,-1.498c-0.032,-0.013 -0.292,0.639 -0.58,1.455c-0.069,0.201 -0.136,0.392 -0.199,0.577c-0.027,0.085 -0.073,0.182 -0.037,0.295c0.019,0.057 0.071,0.098 0.116,0.11c0.045,0.015 0.084,0.015 0.12,0.018c0.278,0.016 0.452,0.017 0.453,0.001Z" style="fill:#0c2b34;fill-rule:nonzero;"/><path d="M83.32,21.376c-0.044,-0.003 -0.044,0.317 -0.301,0.545c-0.256,0.227 -0.575,0.191 -0.577,0.236c-0.004,0.02 0.071,0.063 0.206,0.066c0.132,0.005 0.324,-0.042 0.481,-0.18c0.157,-0.139 0.223,-0.325 0.234,-0.456c0.011,-0.134 -0.022,-0.212 -0.043,-0.211Z" style="fill:#0c2b34;fill-rule:nonzero;"/><path d="M83.386,18.326c0.027,0.08 0.302,0.043 0.625,0.086c0.325,0.034 0.586,0.135 0.629,0.064c0.019,-0.035 -0.027,-0.11 -0.132,-0.188c-0.105,-0.078 -0.271,-0.151 -0.466,-0.175c-0.194,-0.022 -0.372,0.01 -0.49,0.061c-0.119,0.051 -0.178,0.115 -0.166,0.152Z" style="fill:#0c2b34;fill-rule:nonzero;"/><path d="M80.901,18.077c0.049,0.067 0.239,-0.002 0.467,-0.006c0.229,-0.011 0.422,0.044 0.466,-0.025c0.019,-0.034 -0.011,-0.1 -0.095,-0.164c-0.083,-0.063 -0.222,-0.115 -0.379,-0.11c-0.158,0.005 -0.293,0.066 -0.373,0.135c-0.08,0.068 -0.107,0.138 -0.086,0.17Z" style="fill:#0c2b34;fill-rule:nonzero;"/><path d="M84.832,18.165c0.334,-0.008 0.656,-0.115 0.909,-0.345c0.165,0.47 0.162,0.993 0.313,1.469c0.152,0.476 0.3,5.066 0.766,4.99c0.427,-0.068 0.937,-4.674 1.046,-5.122c0.301,-1.234 -0.076,-2.595 -0.844,-3.572c-0.911,-1.159 -2.431,-2.149 -3.843,-2.042c-0.627,0.047 -1.259,0.243 -1.751,0.66c-0,-0 -0.762,0.629 -0.699,1.431c0.089,1.117 1.612,1.837 2.661,1.803l0.149,0.154c0.347,0.362 0.81,0.587 1.293,0.574Z" style="fill:#0c2b34;fill-rule:nonzero;"/><path d="M80.401,17.799c0.266,-0.216 0.432,-0.548 0.52,-0.893c0.089,-0.346 0.106,-0.707 0.122,-1.064c0.005,-0.103 -0.01,-0.236 -0.103,-0.263c-0.09,-0.026 -0.166,0.073 -0.21,0.161c-0.326,0.658 -0.443,1.43 -0.33,2.162l-0.042,0.037" style="fill:#0c2b34;fill-rule:nonzero;"/><path d="M54.519,77.888l0.013,-2.391l-4.189,-0.054l-0.053,3.498l0.26,0.02c1.154,0.084 5.878,0.339 6.653,0.098c0.865,-0.269 -2.684,-1.171 -2.684,-1.171Z" style="fill:#f15b66;fill-rule:nonzero;"/><path d="M50.296,78.877l0.014,-1.249l-0,-0.003c0.03,-0.002 0.06,-0.003 0.09,-0.003c0.322,0 0.632,0.125 0.886,0.341c0.265,0.226 0.451,0.556 0.515,0.913l-1.503,-0.035l-0.002,0.036Z" style="fill:#9e303c;fill-rule:nonzero;"/><path d="M54.317,79.14c-1.425,-0.021 -3.027,-0.093 -4.027,-0.199l0.26,0.02c0.618,0.046 2.257,0.14 3.767,0.179Zm2.849,-0.07c0.013,-0.003 0.026,-0.008 0.037,-0.011c0.119,-0.036 0.155,-0.085 0.128,-0.142c0.023,0.034 0.028,0.069 0.006,0.097c-0.015,0.022 -0.075,0.04 -0.171,0.056Z" style="fill:#909394;fill-rule:nonzero;"/><path d="M57.331,78.917c0,-0.001 -0.001,-0.001 -0.001,-0.002c0,0.001 0.001,0.001 0.001,0.002Z" style="fill:#000c19;fill-rule:nonzero;"/><path d="M56.528,78.492c-0.086,-0.031 -0.177,-0.063 -0.268,-0.094c0.027,0.008 0.132,0.044 0.268,0.094Z" style="fill:#909394;fill-rule:nonzero;"/><path d="M55.203,79.148c-0.282,-0 -0.58,-0.002 -0.886,-0.008c-1.51,-0.039 -3.149,-0.133 -3.767,-0.179l-0.26,-0.02l0.006,-0.064l1.513,0.049c-0.002,-0.018 -0.006,-0.034 -0.008,-0.05l4.075,0.091c-0,0 0.133,-0.564 0.376,-0.571c0,-0 0.002,0.001 0.008,0.002c0.091,0.031 0.182,0.063 0.268,0.094c0.285,0.106 0.704,0.281 0.802,0.423c0,0.001 0.001,0.001 0.001,0.002c0.027,0.057 -0.009,0.106 -0.128,0.142c-0.011,0.003 -0.024,0.008 -0.037,0.011c-0.323,0.053 -1.062,0.078 -1.963,0.078Z" style="fill:#9e303c;fill-rule:nonzero;"/><path d="M51.809,78.926l-1.513,-0.049l0.002,-0.036l1.503,0.035c0.002,0.016 0.006,0.032 0.008,0.05Z" style="fill:#5a0b1b;fill-rule:nonzero;"/><path d="M50.232,78.836c0,0.003 0.025,0.006 0.072,0.011c0.063,0.004 0.13,0.01 0.207,0.016c0.207,0.013 0.461,0.028 0.761,0.045c0.642,0.034 1.531,0.067 2.512,0.081c0.983,0.014 1.872,0.006 2.515,-0.009c0.3,-0.009 0.554,-0.017 0.761,-0.023c0.078,-0.004 0.146,-0.008 0.208,-0.011c0.046,-0.002 0.072,-0.004 0.072,-0.007c-0.001,-0.001 -0.026,-0.002 -0.072,-0.004l-0.208,0c-0.207,0.003 -0.461,0.004 -0.761,0.007c-0.643,0.004 -1.532,0.007 -2.513,-0.007c-0.982,-0.014 -1.87,-0.042 -2.513,-0.066c-0.3,-0.011 -0.554,-0.02 -0.761,-0.027c-0.076,-0.003 -0.145,-0.005 -0.208,-0.007c-0.046,-0.001 -0.072,0 -0.072,0.001Z" style="fill:#0c2b34;fill-rule:nonzero;"/><path d="M55.873,79.037c0.016,0.002 0.03,-0.191 0.147,-0.386c0.114,-0.198 0.272,-0.296 0.263,-0.31c-0.002,-0.012 -0.183,0.07 -0.306,0.281c-0.125,0.208 -0.116,0.418 -0.104,0.415Z" style="fill:#0c2b34;fill-rule:nonzero;"/><path d="M54.646,78.349c0.011,0.009 0.072,-0.067 0.134,-0.17c0.062,-0.102 0.103,-0.191 0.091,-0.199c-0.011,-0.008 -0.071,0.068 -0.133,0.169c-0.062,0.103 -0.104,0.192 -0.092,0.2Z" style="fill:#0c2b34;fill-rule:nonzero;"/><path d="M54.309,78.154c0.009,0.01 0.075,-0.036 0.149,-0.105c0.073,-0.067 0.124,-0.132 0.115,-0.143c-0.01,-0.012 -0.076,0.034 -0.149,0.104c-0.073,0.067 -0.124,0.132 -0.115,0.144Z" style="fill:#0c2b34;fill-rule:nonzero;"/><path d="M54.099,77.727c-0,0.015 0.098,0.03 0.219,0.034c0.12,0.002 0.219,-0.007 0.219,-0.021c-0,-0.016 -0.097,-0.03 -0.218,-0.034c-0.121,-0.003 -0.219,0.006 -0.22,0.021Z" style="fill:#0c2b34;fill-rule:nonzero;"/><path d="M54.029,77.428c-0.005,0.014 0.101,0.066 0.243,0.079c0.142,0.014 0.255,-0.018 0.252,-0.031c-0.002,-0.017 -0.113,-0.009 -0.247,-0.023c-0.135,-0.012 -0.243,-0.04 -0.248,-0.025Z" style="fill:#0c2b34;fill-rule:nonzero;"/><path d="M54.792,77.961c0,0.006 0.104,0.021 0.269,0.002c0.083,-0.01 0.182,-0.03 0.288,-0.063c0.052,-0.021 0.108,-0.034 0.164,-0.071c0.027,-0.018 0.057,-0.044 0.068,-0.088c0.012,-0.044 -0.009,-0.093 -0.039,-0.116c-0.255,-0.147 -0.515,0.005 -0.612,0.146c-0.053,0.072 -0.079,0.143 -0.09,0.191c-0.012,0.049 -0.011,0.077 -0.008,0.077c0.009,0.004 0.019,-0.113 0.126,-0.244c0.052,-0.064 0.13,-0.126 0.231,-0.156c0.095,-0.029 0.231,-0.036 0.321,0.028c0.042,0.033 0.024,0.088 -0.023,0.118c-0.045,0.029 -0.103,0.046 -0.153,0.066c-0.102,0.036 -0.196,0.059 -0.277,0.073c-0.161,0.029 -0.265,0.028 -0.265,0.037Z" style="fill:#0c2b34;fill-rule:nonzero;"/><path d="M54.862,77.975c0.004,0.005 0.045,-0.069 0.034,-0.198c-0.006,-0.064 -0.027,-0.14 -0.072,-0.211c-0.046,-0.065 -0.106,-0.154 -0.222,-0.151c-0.062,0.008 -0.094,0.084 -0.084,0.132c0.004,0.051 0.024,0.094 0.043,0.13c0.04,0.072 0.085,0.131 0.126,0.175c0.083,0.09 0.15,0.123 0.152,0.118c0.005,-0.005 -0.052,-0.052 -0.126,-0.143c-0.036,-0.047 -0.075,-0.105 -0.111,-0.175c-0.035,-0.062 -0.06,-0.171 0.008,-0.182c0.068,-0.007 0.136,0.066 0.176,0.124c0.042,0.063 0.064,0.131 0.074,0.188c0.019,0.118 -0.007,0.192 0.002,0.193Z" style="fill:#0c2b34;fill-rule:nonzero;"/><path d="M50.332,77.612c0.001,0.011 0.12,-0.01 0.309,0.016c0.188,0.025 0.448,0.112 0.672,0.308c0.225,0.196 0.355,0.451 0.415,0.642c0.061,0.193 0.065,0.322 0.075,0.321c0.004,0 0.005,-0.033 0.001,-0.089c-0.003,-0.06 -0.015,-0.143 -0.042,-0.244c-0.053,-0.198 -0.183,-0.468 -0.416,-0.673c-0.235,-0.203 -0.507,-0.288 -0.7,-0.303c-0.098,-0.008 -0.177,-0.004 -0.23,0.004c-0.055,0.007 -0.084,0.016 -0.084,0.018Z" style="fill:#0c2b34;fill-rule:nonzero;"/><path d="M50.789,75.755c-0.015,-0.001 -0.036,0.411 -0.048,0.918c-0.011,0.509 -0.01,0.922 0.005,0.922c0.013,0.001 0.034,-0.412 0.046,-0.92c0.012,-0.508 0.01,-0.92 -0.003,-0.92Z" style="fill:#0c2b34;fill-rule:nonzero;"/><path d="M52.341,78.496c-0.002,0.013 0.271,0.066 0.611,0.074c0.34,0.008 0.615,-0.03 0.614,-0.046c-0.002,-0.015 -0.276,-0.001 -0.613,-0.01c-0.337,-0.007 -0.61,-0.034 -0.612,-0.018Z" style="fill:#0c2b34;fill-rule:nonzero;"/><path d="M51.52,78.483c-0.01,0.011 0.022,0.062 0.049,0.13c0.029,0.068 0.042,0.127 0.057,0.126c0.013,0 0.022,-0.07 -0.01,-0.147c-0.032,-0.079 -0.086,-0.121 -0.096,-0.109Z" style="fill:#0c2b34;fill-rule:nonzero;"/><path d="M51.216,78.067c-0.009,0.01 0.016,0.058 0.06,0.105c0.042,0.048 0.085,0.078 0.095,0.067c0.01,-0.01 -0.017,-0.058 -0.059,-0.105c-0.043,-0.048 -0.085,-0.077 -0.096,-0.067Z" style="fill:#0c2b34;fill-rule:nonzero;"/><path d="M50.776,77.873c0.003,0.015 0.058,0.015 0.12,0.041c0.061,0.02 0.104,0.058 0.116,0.048c0.011,-0.008 -0.023,-0.073 -0.1,-0.102c-0.076,-0.029 -0.141,-0.001 -0.136,0.013Z" style="fill:#0c2b34;fill-rule:nonzero;"/><path d="M50.461,77.78c-0.004,0.013 0.019,0.037 0.053,0.051c0.035,0.015 0.067,0.018 0.073,0.003c0.005,-0.013 -0.018,-0.037 -0.054,-0.052c-0.034,-0.015 -0.066,-0.017 -0.072,-0.002Z" style="fill:#0c2b34;fill-rule:nonzero;"/><path d="M38.252,77.888l-0.012,-2.391l4.189,-0.054l0.053,3.498l-0.26,0.02c-1.155,0.084 -5.878,0.339 -6.653,0.098c-0.866,-0.269 2.683,-1.171 2.683,-1.171Z" style="fill:#f15b66;fill-rule:nonzero;"/><path d="M42.477,78.877l-0.003,-0.031l0.003,-0l-0,0.031Zm-1.5,-0.001c0.004,-0.027 0.011,-0.072 0.023,-0.13c0.023,-0.088 0.054,-0.173 0.091,-0.254c0.031,-0.017 0.05,-0.032 0.057,-0.046c0.011,-0.023 0.01,-0.046 -0,-0.065c0.089,-0.16 0.203,-0.303 0.339,-0.418c0.253,-0.216 0.563,-0.341 0.884,-0.341c0.03,0 0.06,0.001 0.09,0.003l0.015,1.21l-0.009,0c-0.063,0.002 -0.13,0.004 -0.207,0.007c-0.09,0.004 -0.188,0.006 -0.296,0.011l-0.987,0.023Zm0.17,-0.137c0.014,0 0.027,-0.06 0.055,-0.126c0.028,-0.068 0.059,-0.119 0.049,-0.13c-0.001,-0.001 -0.002,-0.001 -0.004,-0.001c-0.016,0 -0.063,0.04 -0.091,0.11c-0.032,0.077 -0.023,0.147 -0.009,0.147Z" style="fill:#9e303c;fill-rule:nonzero;"/><path d="M38.676,79.136c0.005,-0.001 0.01,-0.001 0.015,-0.002c1.441,-0.044 2.946,-0.13 3.531,-0.173l0.26,-0.02c-0.949,0.102 -2.439,0.17 -3.806,0.195Z" style="fill:#909394;fill-rule:nonzero;"/><path d="M38.691,79.134c0.251,-0.051 0.493,-0.103 0.722,-0.153c0.811,-0.016 1.539,-0.044 2.087,-0.073l0.001,-0l0.976,-0.031l0.005,0.064l-0.26,0.02c-0.585,0.043 -2.09,0.129 -3.531,0.173Z" style="fill:#9e303c;fill-rule:nonzero;"/><path d="M41.501,78.908c0.3,-0.017 0.553,-0.032 0.76,-0.045c0.077,-0.006 0.145,-0.012 0.207,-0.016c0.002,-0.001 0.004,-0.001 0.006,-0.001l0.003,0.031l-0.976,0.031Z" style="fill:#5a0b1b;fill-rule:nonzero;"/><path d="M39.676,78.923c0.03,-0.008 0.058,-0.014 0.087,-0.021l1.203,-0.026l-0,0.011c-0.384,0.013 -0.82,0.026 -1.29,0.036Z" style="fill:#9e303c;fill-rule:nonzero;"/><path d="M40.973,78.887c0.001,-0.003 0.003,-0.007 0.004,-0.011l0.987,-0.023c-0.14,0.005 -0.295,0.01 -0.465,0.016c-0.161,0.007 -0.337,0.012 -0.526,0.018Z" style="fill:#5a0b1b;fill-rule:nonzero;"/><path d="M42.539,78.836c0.001,0.003 -0.025,0.006 -0.071,0.011c-0.062,0.004 -0.13,0.01 -0.207,0.016c-0.207,0.013 -0.461,0.028 -0.761,0.045c-0.642,0.034 -1.531,0.067 -2.513,0.081c-0.981,0.014 -1.87,0.006 -2.514,-0.009c-0.301,-0.009 -0.554,-0.017 -0.762,-0.023c-0.077,-0.004 -0.144,-0.008 -0.207,-0.011c-0.047,-0.002 -0.072,-0.004 -0.072,-0.007c0,-0.001 0.025,-0.002 0.072,-0.004l0.208,0c0.207,0.003 0.461,0.004 0.761,0.007c0.644,0.004 1.533,0.007 2.514,-0.007c0.981,-0.014 1.869,-0.042 2.512,-0.066c0.3,-0.011 0.554,-0.02 0.761,-0.027c0.077,-0.003 0.144,-0.005 0.207,-0.007c0.047,-0.001 0.072,0 0.072,0.001Z" style="fill:#0c2b34;fill-rule:nonzero;"/><path d="M36.899,79.037c-0.016,0.002 -0.03,-0.191 -0.148,-0.386c-0.113,-0.198 -0.271,-0.296 -0.263,-0.31c0.003,-0.012 0.184,0.07 0.306,0.281c0.125,0.208 0.117,0.418 0.105,0.415Z" style="fill:#0c2b34;fill-rule:nonzero;"/><path d="M38.127,78.349c-0.013,0.009 -0.073,-0.067 -0.135,-0.17c-0.062,-0.102 -0.103,-0.191 -0.091,-0.199c0.011,-0.008 0.071,0.068 0.133,0.169c0.063,0.103 0.104,0.192 0.093,0.2Z" style="fill:#0c2b34;fill-rule:nonzero;"/><path d="M38.463,78.154c-0.01,0.01 -0.076,-0.036 -0.149,-0.105c-0.073,-0.067 -0.124,-0.132 -0.115,-0.143c0.009,-0.012 0.075,0.034 0.149,0.104c0.073,0.067 0.124,0.132 0.115,0.144Z" style="fill:#0c2b34;fill-rule:nonzero;"/><path d="M38.672,77.727c0,0.015 -0.096,0.03 -0.218,0.034c-0.121,0.002 -0.218,-0.007 -0.22,-0.021c0,-0.016 0.098,-0.03 0.219,-0.034c0.12,-0.003 0.219,0.006 0.219,0.021Z" style="fill:#0c2b34;fill-rule:nonzero;"/><path d="M38.742,77.428c0.006,0.014 -0.101,0.066 -0.242,0.079c-0.142,0.014 -0.256,-0.018 -0.252,-0.031c0.001,-0.017 0.112,-0.009 0.248,-0.023c0.134,-0.012 0.242,-0.04 0.246,-0.025Z" style="fill:#0c2b34;fill-rule:nonzero;"/><path d="M37.98,77.961c0,0.006 -0.103,0.021 -0.27,0.002c-0.082,-0.01 -0.181,-0.03 -0.287,-0.063c-0.053,-0.021 -0.107,-0.034 -0.165,-0.071c-0.027,-0.018 -0.057,-0.044 -0.068,-0.088c-0.011,-0.044 0.01,-0.093 0.04,-0.116c0.256,-0.147 0.514,0.005 0.612,0.146c0.054,0.072 0.078,0.143 0.09,0.191c0.011,0.049 0.011,0.077 0.008,0.077c-0.01,0.004 -0.02,-0.113 -0.126,-0.244c-0.052,-0.064 -0.131,-0.126 -0.232,-0.156c-0.094,-0.029 -0.23,-0.036 -0.32,0.028c-0.042,0.033 -0.025,0.088 0.024,0.118c0.044,0.029 0.101,0.046 0.151,0.066c0.103,0.036 0.197,0.059 0.279,0.073c0.161,0.029 0.264,0.028 0.264,0.037Z" style="fill:#0c2b34;fill-rule:nonzero;"/><path d="M37.91,77.975c-0.003,0.005 -0.044,-0.069 -0.033,-0.198c0.005,-0.064 0.026,-0.14 0.071,-0.211c0.046,-0.065 0.106,-0.154 0.222,-0.151c0.062,0.008 0.093,0.084 0.084,0.132c-0.004,0.051 -0.025,0.094 -0.044,0.13c-0.039,0.072 -0.083,0.131 -0.124,0.175c-0.085,0.09 -0.15,0.123 -0.154,0.118c-0.004,-0.005 0.054,-0.052 0.127,-0.143c0.035,-0.047 0.075,-0.105 0.11,-0.175c0.037,-0.062 0.061,-0.171 -0.007,-0.182c-0.068,-0.007 -0.135,0.066 -0.176,0.124c-0.042,0.063 -0.065,0.131 -0.074,0.188c-0.019,0.118 0.007,0.192 -0.002,0.193Z" style="fill:#0c2b34;fill-rule:nonzero;"/><path d="M42.439,77.612c-0,0.005 -0.019,0.004 -0.053,0.003c-0.053,-0.002 -0.142,-0.003 -0.256,0.013c-0.187,0.025 -0.447,0.112 -0.671,0.308c-0.225,0.196 -0.355,0.451 -0.415,0.642c-0.062,0.193 -0.066,0.322 -0.075,0.321c-0.003,0 -0.006,-0.033 -0.001,-0.089c0.003,-0.06 0.015,-0.143 0.042,-0.244c0.053,-0.198 0.182,-0.468 0.417,-0.673c0.234,-0.204 0.506,-0.288 0.7,-0.303c0.096,-0.008 0.176,-0.004 0.23,0.004c0.054,0.007 0.083,0.016 0.082,0.018Z" style="fill:#0c2b34;fill-rule:nonzero;"/><path d="M41.983,75.755c0.015,-0.001 0.035,0.411 0.048,0.918c0.011,0.509 0.01,0.922 -0.004,0.922c-0.014,0.001 -0.035,-0.412 -0.047,-0.92c-0.012,-0.508 -0.011,-0.92 0.003,-0.92Z" style="fill:#0c2b34;fill-rule:nonzero;"/><path d="M40.43,78.496c0.002,0.013 -0.27,0.066 -0.61,0.074c-0.341,0.008 -0.614,-0.03 -0.613,-0.046c0.001,-0.009 0.09,-0.008 0.229,-0.008c0.105,0.002 0.237,0.002 0.383,-0.002c0.337,-0.007 0.61,-0.034 0.611,-0.018Z" style="fill:#0c2b34;fill-rule:nonzero;"/><path d="M41.251,78.483c0.01,0.011 -0.021,0.062 -0.049,0.13c-0.028,0.068 -0.041,0.127 -0.055,0.126c-0.014,0 -0.023,-0.07 0.009,-0.147c0.032,-0.079 0.086,-0.121 0.095,-0.109Z" style="fill:#0c2b34;fill-rule:nonzero;"/><path d="M41.556,78.067c0.01,0.01 -0.017,0.058 -0.059,0.105c-0.044,0.048 -0.086,0.078 -0.096,0.067c-0.01,-0.01 0.017,-0.058 0.059,-0.105c0.043,-0.048 0.086,-0.077 0.096,-0.067Z" style="fill:#0c2b34;fill-rule:nonzero;"/><path d="M41.997,77.873c-0.004,0.015 -0.059,0.015 -0.12,0.041c-0.063,0.02 -0.106,0.058 -0.117,0.048c-0.011,-0.008 0.023,-0.073 0.1,-0.102c0.076,-0.029 0.14,-0.001 0.137,0.013Z" style="fill:#0c2b34;fill-rule:nonzero;"/><path d="M42.31,77.78c0.006,0.013 -0.018,0.037 -0.053,0.051c-0.035,0.015 -0.067,0.018 -0.073,0.003c-0.004,-0.013 0.019,-0.037 0.054,-0.052c0.035,-0.015 0.066,-0.017 0.072,-0.002Z" style="fill:#0c2b34;fill-rule:nonzero;"/><path d="M57.344,32.09l-1.605,44.892l-6.523,0.147l1.083,-38.899l-7.337,39.196l-6.201,0l7.989,-45.245l12.594,-0.091Z" style="fill:#00a6d7;fill-rule:nonzero;"/><path d="M51.802,33.724c0.016,0.002 -0.014,0.285 -0.075,0.739c-0.061,0.454 -0.153,1.08 -0.261,1.772c-0.058,0.343 -0.095,0.677 -0.186,0.975c-0.088,0.297 -0.248,0.541 -0.427,0.684c-0.174,0.149 -0.352,0.209 -0.473,0.227c-0.122,0.017 -0.19,0.004 -0.19,-0.003c-0.008,-0.025 0.289,0.005 0.612,-0.29c0.16,-0.143 0.298,-0.369 0.377,-0.654c0.081,-0.28 0.115,-0.614 0.173,-0.96c0.109,-0.69 0.214,-1.315 0.295,-1.765c0.082,-0.451 0.14,-0.728 0.155,-0.725Z" style="fill:#0c2b34;fill-rule:nonzero;"/><path d="M50.446,33.938c0.013,0.012 -0.04,0.083 -0.009,0.203c0.014,0.056 0.051,0.12 0.109,0.149c0.055,0.03 0.134,0.015 0.194,-0.04c0.06,-0.057 0.084,-0.138 0.063,-0.202c-0.02,-0.065 -0.074,-0.112 -0.125,-0.134c-0.106,-0.048 -0.179,-0 -0.188,-0.019c-0.013,-0.006 0.06,-0.101 0.213,-0.065c0.07,0.02 0.157,0.071 0.199,0.18c0.046,0.108 0.004,0.25 -0.086,0.331c-0.086,0.085 -0.224,0.112 -0.319,0.049c-0.096,-0.058 -0.133,-0.159 -0.14,-0.234c-0.015,-0.167 0.083,-0.233 0.089,-0.218Z" style="fill:#0c2b34;fill-rule:nonzero;"/><path d="M46.942,34.579c-0.029,0.01 -0.123,-0.276 -0.085,-0.64c0.034,-0.365 0.184,-0.622 0.21,-0.606c0.03,0.015 -0.064,0.279 -0.096,0.619c-0.037,0.34 0.003,0.619 -0.029,0.627Z" style="fill:#0c2b34;fill-rule:nonzero;"/><path d="M47.727,34.526c-0.029,0.008 -0.12,-0.285 -0.095,-0.66c0.024,-0.375 0.151,-0.652 0.179,-0.64c0.031,0.012 -0.042,0.294 -0.063,0.648c-0.026,0.354 0.011,0.644 -0.021,0.652Z" style="fill:#0c2b34;fill-rule:nonzero;"/><path d="M54.468,34.708c-0.032,-0.009 0.02,-0.306 0.036,-0.674c0.019,-0.368 -0.004,-0.669 0.028,-0.674c0.03,-0.006 0.107,0.297 0.087,0.681c-0.017,0.384 -0.122,0.677 -0.151,0.667Z" style="fill:#0c2b34;fill-rule:nonzero;"/><path d="M55.32,34.658c-0.032,-0.015 0.07,-0.307 0.092,-0.685c0.027,-0.376 -0.035,-0.682 -0.003,-0.691c0.028,-0.013 0.145,0.298 0.118,0.7c-0.025,0.402 -0.183,0.692 -0.207,0.676Z" style="fill:#0c2b34;fill-rule:nonzero;"/><path d="M48.258,13.413l4.026,-0.343c0.026,-0.503 -0.008,-2.448 -0.008,-2.448c-0,-0 1.675,-0.279 1.696,-2.071c0.02,-1.79 -0.27,-5.905 -0.27,-5.905c-1.939,-0.89 -4.178,-0.591 -5.85,0.787l-0.248,0.204l0.654,9.776Z" style="fill:#f9b299;fill-rule:nonzero;"/><path d="M52.279,10.595c-0,0 -1.059,0.093 -2.185,-0.663c0,-0 0.517,1.289 2.188,1.128l-0.003,-0.465Z" style="fill:#f79570;fill-rule:nonzero;"/><path d="M47.81,5.493c-0.028,-0.014 -1.151,-0.364 -1.114,0.86c0.036,1.225 1.18,0.933 1.18,0.898c0.001,-0.035 -0.066,-1.758 -0.066,-1.758Z" style="fill:#f9b299;fill-rule:nonzero;"/><path d="M47.512,6.799c-0.005,-0.003 -0.02,0.016 -0.052,0.034c-0.033,0.016 -0.089,0.03 -0.15,0.008c-0.122,-0.043 -0.23,-0.246 -0.242,-0.467c-0.007,-0.111 0.012,-0.217 0.046,-0.307c0.033,-0.09 0.085,-0.156 0.146,-0.168c0.06,-0.017 0.104,0.02 0.119,0.054c0.017,0.034 0.01,0.059 0.017,0.06c0.003,0.004 0.023,-0.022 0.013,-0.071c-0.006,-0.024 -0.02,-0.053 -0.048,-0.075c-0.028,-0.024 -0.069,-0.033 -0.111,-0.028c-0.089,0.01 -0.166,0.099 -0.203,0.196c-0.043,0.099 -0.066,0.219 -0.059,0.345c0.015,0.246 0.14,0.473 0.308,0.519c0.081,0.02 0.146,-0.008 0.181,-0.038c0.034,-0.032 0.04,-0.059 0.035,-0.062Z" style="fill:#f79570;fill-rule:nonzero;"/><path d="M53.333,5.455c0.005,0.134 -0.099,0.25 -0.231,0.257c-0.131,0.007 -0.242,-0.095 -0.246,-0.23c-0.005,-0.135 0.098,-0.251 0.231,-0.259c0.131,-0.007 0.242,0.096 0.246,0.232Z" style="fill:#0c2b34;fill-rule:nonzero;"/><path d="M53.386,5.166c-0.03,0.034 -0.212,-0.11 -0.469,-0.109c-0.257,-0.003 -0.446,0.139 -0.474,0.105c-0.014,-0.015 0.017,-0.075 0.099,-0.14c0.08,-0.063 0.219,-0.125 0.379,-0.125c0.16,0.001 0.296,0.065 0.372,0.129c0.08,0.065 0.107,0.125 0.093,0.14Z" style="fill:#0c2b34;fill-rule:nonzero;"/><path d="M50.812,5.518c0.005,0.136 -0.099,0.252 -0.231,0.259c-0.131,0.008 -0.242,-0.096 -0.247,-0.231c-0.004,-0.135 0.099,-0.25 0.232,-0.257c0.131,-0.008 0.242,0.094 0.246,0.229Z" style="fill:#0c2b34;fill-rule:nonzero;"/><path d="M50.854,5.218c-0.028,0.033 -0.211,-0.11 -0.467,-0.11c-0.258,-0.002 -0.447,0.139 -0.475,0.106c-0.013,-0.016 0.017,-0.076 0.099,-0.141c0.081,-0.063 0.219,-0.125 0.38,-0.125c0.16,0.001 0.295,0.065 0.372,0.129c0.079,0.065 0.106,0.126 0.091,0.141Z" style="fill:#0c2b34;fill-rule:nonzero;"/><path d="M51.789,7.259c-0.001,-0.015 0.159,-0.045 0.419,-0.08c0.065,-0.008 0.128,-0.022 0.139,-0.069c0.015,-0.051 -0.013,-0.128 -0.045,-0.209c-0.061,-0.169 -0.126,-0.348 -0.194,-0.535c-0.27,-0.763 -0.466,-1.389 -0.437,-1.4c0.029,-0.011 0.271,0.598 0.541,1.359c0.066,0.188 0.127,0.366 0.187,0.539c0.024,0.079 0.068,0.17 0.033,0.275c-0.018,0.052 -0.065,0.091 -0.108,0.104c-0.042,0.014 -0.078,0.014 -0.111,0.016c-0.261,0.015 -0.423,0.017 -0.424,-0Z" style="fill:#0c2b34;fill-rule:nonzero;"/><path d="M51.031,7.451c0.042,-0.004 0.043,0.295 0.282,0.507c0.239,0.213 0.537,0.18 0.539,0.221c0.004,0.019 -0.066,0.059 -0.192,0.062c-0.123,0.004 -0.303,-0.037 -0.45,-0.167c-0.146,-0.131 -0.209,-0.304 -0.218,-0.426c-0.011,-0.126 0.02,-0.201 0.039,-0.197Z" style="fill:#0c2b34;fill-rule:nonzero;"/><path d="M50.921,4.139c-0.025,0.074 -0.282,0.04 -0.584,0.079c-0.303,0.032 -0.547,0.127 -0.586,0.059c-0.019,-0.032 0.025,-0.102 0.122,-0.175c0.098,-0.072 0.254,-0.14 0.435,-0.162c0.182,-0.021 0.348,0.009 0.458,0.056c0.111,0.049 0.166,0.107 0.155,0.143Z" style="fill:#0c2b34;fill-rule:nonzero;"/><path d="M53.291,4.37c-0.045,0.062 -0.223,-0.003 -0.437,-0.005c-0.213,-0.011 -0.393,0.041 -0.434,-0.024c-0.019,-0.033 0.01,-0.095 0.089,-0.153c0.078,-0.059 0.208,-0.108 0.354,-0.103c0.147,0.005 0.274,0.061 0.348,0.125c0.075,0.065 0.099,0.13 0.08,0.16Z" style="fill:#0c2b34;fill-rule:nonzero;"/><path d="M54.519,1.516c0.018,-0.223 -0.06,-0.461 -0.229,-0.591c-0.169,-0.131 -0.431,-0.123 -0.568,0.045c0.078,-0.299 -0.15,-0.644 -0.44,-0.664c-0.273,-0.019 -0.506,0.203 -0.771,0.28c-0.258,0.075 -0.534,0.01 -0.782,-0.097c-0.248,-0.107 -0.479,-0.254 -0.73,-0.351c-0.523,-0.205 -1.122,-0.181 -1.629,0.069c-0.507,0.247 -0.914,0.718 -1.111,1.275c-0.366,-0.122 -0.782,0.076 -1.009,0.408c-0.226,0.332 -0.283,0.768 -0.239,1.177c0.031,0.275 0.106,0.54 0.192,0.803c0,0.022 -0.002,0.045 -0.002,0.069c0.018,0.985 0.122,2.142 0.515,2.147c0.685,0.012 0.522,-1.367 0.522,-1.367c0.84,-0.348 0.528,-1.695 0.738,-1.9c0.21,-0.204 0.65,-0.678 2.41,0.284c0.683,0.373 1.591,0.36 2.087,0.241l0.044,-0.01l0.01,-0.003l0.014,-0.006c0.159,-0.044 0.311,-0.109 0.451,-0.204c0.16,-0.109 0.305,-0.255 0.372,-0.442c0.068,-0.188 0.044,-0.423 -0.095,-0.561c0.13,-0.175 0.231,-0.381 0.25,-0.602Z" style="fill:#0c2b34;fill-rule:nonzero;"/><path d="M46.32,12.738c0.564,-0.114 1.114,-0.333 1.778,-0.364c1.431,0.473 2.862,0.474 4.293,0.004c0.175,0.023 0.417,0.047 0.721,0.086c1.866,0.236 2.581,0.657 3.92,2.064l-0.145,8.074c-0,-0 0.449,9.186 0.415,10.671l-12.744,-0l-0.01,-6.23l0.002,-1.696l-4.196,1.628l0.383,-2.354c-0,-0 1.877,-7.803 2.171,-8.855c0.355,-1.279 1.634,-2.663 3.412,-3.028Z" style="fill:#f15b66;fill-rule:nonzero;"/><path d="M42.276,24.755l6.282,-0.954l1.194,2.288l-5.84,2.814c-0.325,0.156 -0.679,0.238 -1.036,0.238c-1.023,0 -1.944,-0.66 -2.333,-1.672l-0.189,-0.494l1.922,-2.22Z" style="fill:#f15b66;fill-rule:nonzero;"/><path d="M54.217,22.701l-0.137,-0.109c-0.707,-0.567 -1.604,-0.789 -2.472,-0.611c-0.707,0.145 -1.369,0.477 -1.925,0.965l-1.076,0.949l1.145,2.194l0.778,-1.166c0,-0 0.727,1.054 0.857,0.943c0.13,-0.111 0.285,-0.445 0.285,-0.445l-0.519,-0.778l1.246,0.28l1.818,-0.889l-0.779,-1.056l0.779,0.279l-0,-0.556Z" style="fill:#f9b299;fill-rule:nonzero;"/><path d="M55.111,12.977c0,0 1.776,0.648 2.52,2.474c0.487,1.191 1.202,6.924 1.202,6.924l0.901,1.86c0.217,0.446 0.329,0.94 0.329,1.443l0,0.284c0,0.721 -0.231,1.419 -0.656,1.978c-0.5,0.657 -1.227,1.07 -2.016,1.145c-0.9,0.086 -1.988,0.125 -2.221,-0.16c-0.41,-0.502 -1.026,-1.849 -1.026,-1.849l2.625,-1.492l-1.13,-2.237l-0.528,-10.37Z" style="fill:#f15b66;fill-rule:nonzero;"/><path d="M44.35,28.692c-0.001,-0.004 0.033,-0.023 0.101,-0.061c0.079,-0.041 0.178,-0.092 0.301,-0.156c0.276,-0.138 0.657,-0.329 1.127,-0.564c0.975,-0.474 2.318,-1.13 3.85,-1.878l-0.027,0.084c-0.238,-0.455 -0.484,-0.927 -0.736,-1.41c-0.157,-0.3 -0.312,-0.596 -0.458,-0.877l0.055,0.031c-1.819,0.191 -3.43,0.36 -4.602,0.482c-0.57,0.056 -1.032,0.101 -1.368,0.132c-0.151,0.012 -0.273,0.022 -0.369,0.03c-0.084,0.005 -0.128,0.006 -0.13,0.003c0,-0.005 0.044,-0.013 0.128,-0.026c0.095,-0.014 0.217,-0.03 0.367,-0.051c0.334,-0.041 0.795,-0.098 1.364,-0.169c1.173,-0.132 2.781,-0.315 4.599,-0.522l0.037,-0.005l0.018,0.037c0.147,0.279 0.302,0.576 0.459,0.875c0.252,0.484 0.497,0.956 0.735,1.411l0.03,0.057l-0.057,0.028c-1.537,0.733 -2.886,1.374 -3.865,1.84c-0.476,0.221 -0.861,0.401 -1.14,0.53c-0.127,0.057 -0.229,0.101 -0.309,0.138c-0.071,0.03 -0.109,0.046 -0.11,0.041Z" style="fill:#0c2b34;fill-rule:nonzero;"/><path d="M45.464,24.092c-0.031,-0 -0.056,-1.201 -0.056,-2.683c-0,-1.482 0.025,-2.683 0.056,-2.683c0.033,0 0.058,1.201 0.058,2.683c0,1.482 -0.025,2.683 -0.058,2.683Z" style="fill:#0c2b34;fill-rule:nonzero;"/><path d="M56.277,25.885c-0,-0.008 0.067,-0.022 0.191,-0.033c0.123,-0.008 0.305,-0.022 0.53,0.035c0.11,0.029 0.236,0.082 0.332,0.202c0.089,0.118 0.148,0.263 0.173,0.426c0.026,0.163 0.018,0.342 -0.042,0.511c-0.059,0.173 -0.174,0.325 -0.318,0.436c-0.295,0.22 -0.625,0.283 -0.91,0.348c-0.29,0.06 -0.555,0.081 -0.779,0.081c-0.448,0.006 -0.715,-0.116 -0.706,-0.132c0.004,-0.015 0.266,0.072 0.705,0.045c0.217,-0.01 0.477,-0.04 0.759,-0.105c0.28,-0.069 0.6,-0.137 0.864,-0.335c0.266,-0.196 0.37,-0.539 0.323,-0.831c-0.019,-0.144 -0.072,-0.281 -0.142,-0.38c-0.073,-0.096 -0.18,-0.151 -0.281,-0.183c-0.205,-0.062 -0.385,-0.063 -0.507,-0.069c-0.122,-0.006 -0.191,-0.008 -0.192,-0.016Z" style="fill:#0c2b34;fill-rule:nonzero;"/><path d="M57.319,29.132c0.001,0.015 -0.17,0.051 -0.451,0.057c-0.28,0.006 -0.678,-0.023 -1.086,-0.192c-0.2,-0.086 -0.386,-0.183 -0.54,-0.307c-0.153,-0.124 -0.262,-0.273 -0.333,-0.404c-0.142,-0.266 -0.172,-0.452 -0.161,-0.458c0.018,-0.007 0.078,0.17 0.229,0.412c0.077,0.118 0.183,0.249 0.327,0.358c0.145,0.109 0.326,0.202 0.52,0.284c0.388,0.162 0.77,0.204 1.045,0.22c0.275,0.016 0.449,0.012 0.45,0.03Z" style="fill:#0c2b34;fill-rule:nonzero;"/><path d="M58.573,23.313c0.013,0.009 -0.107,0.162 -0.31,0.398c-0.201,0.237 -0.485,0.558 -0.804,0.908c-0.319,0.35 -0.612,0.662 -0.829,0.883c-0.217,0.223 -0.356,0.354 -0.367,0.341c-0.012,-0.012 0.107,-0.164 0.309,-0.401c0.201,-0.238 0.486,-0.56 0.805,-0.909c0.636,-0.699 1.174,-1.249 1.196,-1.22Z" style="fill:#0c2b34;fill-rule:nonzero;"/><path d="M55.713,22.061c-0.032,-0 -0.057,-0.688 -0.057,-1.534c-0,-0.847 0.025,-1.534 0.057,-1.534c0.031,0 0.057,0.687 0.057,1.534c0,0.846 -0.026,1.534 -0.057,1.534Z" style="fill:#0c2b34;fill-rule:nonzero;"/><path d="M57.442,15.478c0,0.035 -3.216,0.062 -7.184,0.062c-3.969,0 -7.185,-0.027 -7.185,-0.062c0,-0.033 3.216,-0.06 7.185,-0.06c3.968,-0 7.184,0.027 7.184,0.06Z" style="fill:#d7d9d9;fill-rule:nonzero;"/><path d="M57.812,16.702c0,0.034 -3.39,0.062 -7.571,0.062c-4.182,-0 -7.572,-0.028 -7.572,-0.062c-0,-0.033 3.39,-0.061 7.572,-0.061c4.181,0 7.571,0.028 7.571,0.061Z" style="fill:#d7d9d9;fill-rule:nonzero;"/><path d="M56.87,14.363c0,0.035 -2.953,0.063 -6.596,0.063c-3.643,-0 -6.595,-0.028 -6.595,-0.063c-0,-0.033 2.952,-0.061 6.595,-0.061c3.643,-0 6.596,0.028 6.596,0.061Z" style="fill:#d7d9d9;fill-rule:nonzero;"/><path d="M57.474,32.833c0,0.035 -2.891,0.062 -6.456,0.062c-3.566,-0 -6.457,-0.027 -6.457,-0.062c0,-0.033 2.891,-0.061 6.457,-0.061c3.565,0 6.456,0.028 6.456,0.061Z" style="fill:#d7d9d9;fill-rule:nonzero;"/><path d="M57.388,32.049c-0,0.033 -2.852,0.061 -6.37,0.061c-3.519,-0 -6.37,-0.028 -6.37,-0.061c-0,-0.034 2.851,-0.062 6.37,-0.062c3.518,0 6.37,0.028 6.37,0.062Z" style="fill:#d7d9d9;fill-rule:nonzero;"/><path d="M57.258,31.033c-0,0.034 -2.842,0.061 -6.348,0.061c-3.507,0 -6.349,-0.027 -6.349,-0.061c0,-0.034 2.842,-0.061 6.349,-0.061c3.506,-0 6.348,0.027 6.348,0.061Z" style="fill:#d7d9d9;fill-rule:nonzero;"/><path d="M47.993,26.829c-0.009,0.01 -0.145,-0.098 -0.322,-0.321c-0.177,-0.222 -0.383,-0.568 -0.523,-0.99c-0.14,-0.424 -0.181,-0.831 -0.175,-1.122c0.007,-0.293 0.049,-0.469 0.063,-0.466c0.037,-0 -0.058,0.725 0.22,1.547c0.266,0.826 0.767,1.326 0.737,1.352Z" style="fill:#d7d9d9;fill-rule:nonzero;"/><path d="M47.403,27.205c-0.009,0.01 -0.156,-0.11 -0.349,-0.355c-0.191,-0.243 -0.415,-0.621 -0.566,-1.083c-0.149,-0.462 -0.194,-0.908 -0.185,-1.226c0.009,-0.32 0.056,-0.511 0.068,-0.509c0.038,-0.001 -0.075,0.793 0.226,1.695c0.287,0.906 0.836,1.453 0.806,1.478Z" style="fill:#d7d9d9;fill-rule:nonzero;"/><path d="M46.838,27.511c-0.008,0.01 -0.176,-0.102 -0.391,-0.354c-0.216,-0.248 -0.465,-0.649 -0.618,-1.146c-0.151,-0.497 -0.171,-0.978 -0.135,-1.317c0.035,-0.338 0.108,-0.535 0.119,-0.532c0.02,0.005 -0.024,0.209 -0.037,0.539c-0.016,0.332 0.016,0.791 0.162,1.272c0.148,0.478 0.376,0.871 0.571,1.129c0.193,0.258 0.341,0.393 0.329,0.409Z" style="fill:#d7d9d9;fill-rule:nonzero;"/><path d="M54.934,28.004c0.007,-0.009 0.066,0.055 0.194,0.128c0.125,0.077 0.33,0.144 0.59,0.159c0.259,0.016 0.574,-0.014 0.918,-0.064c0.337,-0.051 0.72,-0.17 0.962,-0.503c0.245,-0.322 0.332,-0.742 0.286,-1.096c-0.047,-0.359 -0.221,-0.648 -0.397,-0.846c-0.369,-0.4 -0.717,-0.465 -0.704,-0.49c0.001,-0.007 0.085,0.004 0.226,0.061c0.139,0.056 0.338,0.165 0.535,0.366c0.194,0.2 0.387,0.504 0.445,0.892c0.055,0.384 -0.033,0.838 -0.301,1.192c-0.135,0.175 -0.308,0.309 -0.491,0.389c-0.184,0.083 -0.37,0.123 -0.546,0.148c-0.352,0.044 -0.67,0.066 -0.94,0.038c-0.269,-0.027 -0.481,-0.11 -0.607,-0.204c-0.126,-0.092 -0.174,-0.167 -0.17,-0.17Z" style="fill:#d7d9d9;fill-rule:nonzero;"/><path d="M57.222,24.905c0,-0.004 0.025,-0.007 0.07,-0.007c0.047,0 0.116,0.011 0.2,0.036c0.17,0.056 0.396,0.209 0.589,0.475c0.196,0.267 0.371,0.623 0.491,1.049c0.057,0.214 0.092,0.45 0.072,0.697c-0.02,0.246 -0.098,0.496 -0.234,0.714c-0.273,0.437 -0.689,0.707 -1.084,0.84c-0.399,0.134 -0.778,0.146 -1.087,0.135c-0.311,-0.014 -0.559,-0.055 -0.73,-0.083c-0.171,-0.031 -0.265,-0.054 -0.263,-0.062c0.002,-0.023 0.382,0.043 0.994,0.058c0.306,0.001 0.673,-0.022 1.053,-0.154c0.375,-0.135 0.768,-0.396 1.02,-0.801c0.127,-0.203 0.199,-0.431 0.219,-0.657c0.02,-0.229 -0.01,-0.452 -0.062,-0.658c-0.11,-0.41 -0.274,-0.765 -0.453,-1.024c-0.178,-0.262 -0.384,-0.419 -0.539,-0.484c-0.158,-0.063 -0.256,-0.062 -0.256,-0.074Z" style="fill:#d7d9d9;fill-rule:nonzero;"/><path d="M52.298,22.5l-3.998,5.178l0.307,0.354l6.487,-1.057l3.218,-5.178l-0.299,-0.288l-5.715,0.991Z" style="fill:#0c2b34;fill-rule:nonzero;"/><path d="M56.539,23.867c-0.255,-0 -0.486,0.165 -0.577,0.42c-0.096,0.269 -0.236,0.581 -0.393,0.673c-0.288,0.169 -0.786,0.302 -1.048,0.164c-0.262,-0.137 -1.311,-1.145 -1.494,-1.032c-0.184,0.111 -0.341,0.362 -0.158,0.587c0.184,0.224 1.153,0.896 0.97,1.122c-0.183,0.224 -2.228,-0.762 -2.542,-0.677c-0.315,0.088 -0.498,0.295 -0.315,0.429c0.184,0.136 1.574,0.697 1.651,0.893c0,-0 -2.096,-0.589 -2.175,-0.449c-0.079,0.14 -0.209,0.365 -0,0.449c0.21,0.083 2.019,0.588 2.175,0.672c0.158,0.083 0.7,0.253 0.809,0.253c0.057,-0 0.468,0.147 0.845,0.286c0.424,0.156 0.887,0.145 1.304,-0.038l0.212,-0.093c0.33,-0.144 0.538,-0.496 0.517,-0.876l-0.043,-0.765l0.229,-0.632l0.033,-1.386Z" style="fill:#f9b299;fill-rule:nonzero;"/><path d="M58.321,21.823c0,0.004 -0.041,0.015 -0.12,0.032c-0.092,0.017 -0.207,0.038 -0.347,0.066c-0.317,0.053 -0.751,0.128 -1.278,0.22c-0.546,0.088 -1.188,0.193 -1.899,0.309c-0.358,0.058 -0.733,0.117 -1.12,0.181c-0.383,0.07 -0.779,0.183 -1.086,0.471c-0.308,0.284 -0.54,0.648 -0.791,0.972c-0.247,0.327 -0.483,0.643 -0.71,0.946c-0.451,0.598 -0.86,1.139 -1.207,1.598c-0.339,0.442 -0.616,0.805 -0.821,1.071c-0.092,0.116 -0.168,0.211 -0.228,0.288c-0.053,0.065 -0.083,0.097 -0.085,0.094c-0.003,-0.003 0.02,-0.041 0.067,-0.11c0.056,-0.08 0.125,-0.18 0.211,-0.302c0.197,-0.272 0.465,-0.644 0.793,-1.095c0.341,-0.464 0.742,-1.011 1.187,-1.615c0.225,-0.303 0.461,-0.622 0.705,-0.95c0.249,-0.324 0.479,-0.689 0.805,-0.991c0.329,-0.309 0.754,-0.428 1.141,-0.495c0.389,-0.062 0.765,-0.118 1.123,-0.175c0.712,-0.107 1.356,-0.203 1.902,-0.284c0.53,-0.074 0.965,-0.136 1.285,-0.181c0.141,-0.017 0.256,-0.031 0.35,-0.043c0.08,-0.008 0.122,-0.01 0.123,-0.007Z" style="fill:#335863;fill-rule:nonzero;"/><path d="M55.286,22.958c-0.067,0.043 -0.136,0.087 -0.18,0.156c-0.044,0.069 -0.056,0.167 -0.008,0.232c0.062,0.083 0.189,0.068 0.268,0.005c0.051,-0.041 0.092,-0.099 0.104,-0.166c0.012,-0.066 -0.008,-0.141 -0.056,-0.184c-0.048,-0.044 -0.126,-0.051 -0.176,-0.008" style="fill:#f9f9f9;fill-rule:nonzero;"/><rect x="1.981" y="28.85" width="10.473" height="22.591" style="fill:#335863;"/><path d="M2.468,51.387c-0.902,-0 -1.635,-0.783 -1.635,-1.748l0,-19.041c0,-0.966 0.733,-1.748 1.635,-1.748c0.902,0 1.634,0.782 1.634,1.748l0,19.041c0,0.965 -0.732,1.748 -1.634,1.748Z" style="fill:#335863;fill-rule:nonzero;"/><path d="M3.321,29.758c0.002,-0 0.006,0.019 0.01,0.056c0.005,0.045 0.009,0.1 0.016,0.166c0.012,0.155 0.027,0.368 0.049,0.637c0.037,0.565 0.091,1.362 0.156,2.343c0.122,1.989 0.29,4.718 0.475,7.733c0.174,3.022 0.341,5.755 0.431,7.738c0.034,0.995 -0.078,1.81 -0.272,2.33c-0.089,0.262 -0.194,0.451 -0.265,0.574c-0.037,0.055 -0.065,0.1 -0.09,0.136c-0.021,0.032 -0.032,0.047 -0.033,0.046c-0.017,-0.011 0.176,-0.251 0.345,-0.772c0.177,-0.52 0.276,-1.322 0.231,-2.31c-0.12,-1.989 -0.284,-4.719 -0.466,-7.734c-0.171,-3.016 -0.326,-5.745 -0.439,-7.737c-0.05,-0.98 -0.091,-1.779 -0.12,-2.345c-0.011,-0.268 -0.02,-0.481 -0.026,-0.637c-0.002,-0.067 -0.003,-0.122 -0.004,-0.167c-0,-0.037 -0,-0.057 0.002,-0.057Z" style="fill:#0c2b34;fill-rule:nonzero;"/><rect x="11.516" y="54.244" width="1.688" height="21.632" style="fill:#335863;"/><path d="M24.147,54.244l-24.147,0c0,-1.547 1.173,-2.803 2.621,-2.803l18.905,0c1.447,0 2.621,1.256 2.621,2.803Z" style="fill:#335863;fill-rule:nonzero;"/><path d="M13.841,54.3c0,0.037 -0.663,0.067 -1.481,0.067c-0.818,-0 -1.481,-0.03 -1.481,-0.067c-0,-0.037 0.663,-0.067 1.481,-0.067c0.818,-0 1.481,0.03 1.481,0.067Z" style="fill:#0c2b34;fill-rule:nonzero;"/><path d="M19.744,77.837l-0.237,-0c-0,-4.236 -3.224,-7.682 -7.185,-7.682c-3.961,-0 -7.183,3.446 -7.183,7.682l-0.239,-0c-0,-4.378 3.33,-7.938 7.422,-7.938c4.094,-0 7.422,3.56 7.422,7.938Z" style="fill:#335863;fill-rule:nonzero;"/><path d="M6.132,77.692c0,0.659 -0.499,1.191 -1.113,1.191c-0.615,0 -1.112,-0.532 -1.112,-1.191c-0,-0.657 0.497,-1.19 1.112,-1.19c0.614,0 1.113,0.533 1.113,1.19Z" style="fill:#0c2b34;fill-rule:nonzero;"/><path d="M20.787,77.747c-0,0.657 -0.499,1.191 -1.114,1.191c-0.614,-0 -1.113,-0.534 -1.113,-1.191c0,-0.657 0.499,-1.19 1.113,-1.19c0.615,-0 1.114,0.533 1.114,1.19Z" style="fill:#335863;fill-rule:nonzero;"/><path d="M19.673,75.877c0,0.037 -3.23,0.066 -7.213,0.066c-3.986,0 -7.214,-0.029 -7.214,-0.066c-0,-0.037 3.228,-0.067 7.214,-0.067c3.983,0 7.213,0.03 7.213,0.067Z" style="fill:#335863;fill-rule:nonzero;"/><path d="M9.753,51.394c0,0.009 -0.13,0.018 -0.364,0.028c-0.257,0.007 -0.591,0.017 -0.995,0.027c-0.838,0.019 -1.997,0.035 -3.278,0.045c-0.639,0.004 -1.248,0.009 -1.806,0.012c-0.554,0.004 -1.052,0.027 -1.453,0.142c-0.404,0.107 -0.696,0.295 -0.879,0.447c-0.186,0.15 -0.269,0.259 -0.279,0.247c-0.003,-0.002 0.017,-0.029 0.057,-0.081c0.04,-0.051 0.102,-0.123 0.193,-0.204c0.178,-0.167 0.473,-0.376 0.885,-0.499c0.41,-0.128 0.92,-0.161 1.474,-0.17c0.553,-0.015 1.164,-0.016 1.805,-0.023c1.281,-0.01 2.441,-0.011 3.281,-0.006c0.404,0.005 0.738,0.008 0.995,0.013c0.234,0.006 0.364,0.014 0.364,0.022Z" style="fill:#0c2b34;fill-rule:nonzero;"/><path d="M9.041,27.767c1.257,0 2.301,-0.876 2.318,-4.961c0.003,-0.822 -0.021,-1.532 -0.021,-1.532c-0,-0 1.813,-0.176 1.946,-2.058c0.133,-1.878 0.033,-6.244 0.033,-6.244c-2.025,-1.071 -4.399,-0.887 -6.278,0.443l-0.279,0.198l0.087,9.244c0.012,1.297 0.957,4.91 2.194,4.91Z" style="fill:#c18573;fill-rule:nonzero;"/><path d="M11.342,21.247c0,-0 -1.141,0.023 -2.301,-0.848c0,-0 0.475,1.389 2.277,1.335l0.024,-0.487Z" style="fill:#b96653;fill-rule:nonzero;"/><path d="M12.887,16.005c0.004,0.14 -0.105,0.258 -0.244,0.266c-0.137,0.008 -0.254,-0.098 -0.259,-0.237c-0.005,-0.139 0.104,-0.259 0.243,-0.267c0.139,-0.007 0.254,0.1 0.26,0.238Z" style="fill:#0c2b34;fill-rule:nonzero;"/><path d="M12.941,15.709c-0.031,0.035 -0.221,-0.114 -0.492,-0.112c-0.271,-0.004 -0.47,0.142 -0.499,0.106c-0.014,-0.014 0.017,-0.076 0.103,-0.141c0.086,-0.067 0.231,-0.131 0.4,-0.131c0.168,0.002 0.31,0.067 0.393,0.134c0.083,0.066 0.111,0.129 0.095,0.144Z" style="fill:#0c2b34;fill-rule:nonzero;"/><path d="M10.233,16.073c0.005,0.138 -0.104,0.257 -0.243,0.265c-0.138,0.008 -0.254,-0.098 -0.259,-0.238c-0.004,-0.138 0.105,-0.258 0.242,-0.266c0.139,-0.008 0.256,0.099 0.26,0.239Z" style="fill:#0c2b34;fill-rule:nonzero;"/><path d="M10.279,15.762c-0.032,0.034 -0.223,-0.113 -0.493,-0.113c-0.272,-0.003 -0.47,0.142 -0.499,0.109c-0.015,-0.017 0.016,-0.078 0.104,-0.144c0.085,-0.066 0.23,-0.13 0.399,-0.13c0.169,0.001 0.311,0.066 0.392,0.134c0.084,0.066 0.111,0.128 0.097,0.144Z" style="fill:#0c2b34;fill-rule:nonzero;"/><path d="M11.261,17.867c-0.001,-0.016 0.168,-0.046 0.44,-0.084c0.07,-0.006 0.136,-0.021 0.147,-0.071c0.016,-0.052 -0.012,-0.13 -0.047,-0.215c-0.064,-0.175 -0.132,-0.359 -0.204,-0.551c-0.284,-0.786 -0.489,-1.432 -0.459,-1.444c0.03,-0.012 0.285,0.615 0.569,1.401c0.069,0.195 0.134,0.379 0.196,0.555c0.026,0.082 0.071,0.176 0.036,0.285c-0.019,0.054 -0.07,0.094 -0.113,0.107c-0.045,0.013 -0.084,0.015 -0.118,0.017c-0.275,0.015 -0.446,0.016 -0.447,-0Z" style="fill:#0c2b34;fill-rule:nonzero;"/><path d="M10.464,18.063c0.045,-0.002 0.045,0.306 0.297,0.525c0.251,0.218 0.565,0.185 0.567,0.227c0.004,0.02 -0.07,0.061 -0.202,0.064c-0.13,0.005 -0.319,-0.038 -0.474,-0.173c-0.153,-0.134 -0.22,-0.313 -0.23,-0.439c-0.011,-0.129 0.022,-0.205 0.042,-0.204Z" style="fill:#0c2b34;fill-rule:nonzero;"/><path d="M10.348,14.65c-0.027,0.076 -0.297,0.04 -0.615,0.081c-0.319,0.033 -0.574,0.131 -0.616,0.06c-0.019,-0.032 0.025,-0.104 0.129,-0.18c0.103,-0.074 0.266,-0.144 0.457,-0.167c0.19,-0.023 0.366,0.01 0.481,0.059c0.117,0.048 0.176,0.11 0.164,0.147Z" style="fill:#0c2b34;fill-rule:nonzero;"/><path d="M12.842,14.887c-0.048,0.064 -0.234,-0.002 -0.459,-0.006c-0.224,-0.011 -0.414,0.044 -0.459,-0.023c-0.018,-0.032 0.012,-0.097 0.095,-0.159c0.081,-0.06 0.219,-0.11 0.372,-0.105c0.155,0.005 0.288,0.064 0.367,0.129c0.079,0.066 0.104,0.132 0.084,0.164Z" style="fill:#0c2b34;fill-rule:nonzero;"/><path d="M13.372,12.607c-0.026,-0.292 -0.13,-0.573 -0.273,-0.82c0.11,-0.274 0.089,-0.615 -0.095,-0.844c-0.257,-0.322 -0.768,-0.34 -1.062,-0.062l-0.014,-0.004c0.088,-0.166 0.021,-0.412 -0.128,-0.534c-0.171,-0.142 -0.404,-0.162 -0.621,-0.157c-0.405,0.007 -1.358,0.349 -2.091,0.642c-0.046,0.009 -0.095,0.018 -0.14,0.027c-0.57,0.123 -1.229,0.367 -1.671,0.772c-0.55,0.502 -0.858,1.228 -1.046,1.976c-0.187,0.749 -0.189,1.533 -0.047,2.803c0.22,-0.208 0.992,-0.729 1.107,-0.441c0.065,0.164 0.043,0.35 0.059,0.528c0.014,0.177 0.091,0.376 0.251,0.423c0.131,0.039 0.271,-0.043 0.348,-0.163c0.075,-0.118 0.099,-0.267 0.11,-0.41c0.043,-0.585 -0.093,-1.179 -0.006,-1.758c0.086,-0.573 0.397,-1.103 0.841,-1.433c0.445,-0.33 1.018,-0.458 1.548,-0.343c0.329,0.07 0.648,0.228 0.982,0.214c0.482,-0.019 0.974,-0.389 1.408,-0.168c0.087,0.046 0.172,0.088 0.255,0.14c0.164,0.103 0.245,0.205 0.285,0.112c0.029,-0.066 0.015,-0.336 0,-0.5Z" style="fill:#0c2b34;fill-rule:nonzero;"/><path d="M7.224,15.693c-0.033,-0.013 -1.136,-0.164 -1.032,1.201c0.104,1.365 1.385,0.803 1.385,0.765c-0.001,-0.041 -0.353,-1.966 -0.353,-1.966Z" style="fill:#c18573;fill-rule:nonzero;"/><path d="M7.141,17.212c-0.007,-0.003 -0.022,0.019 -0.059,0.04c-0.035,0.022 -0.099,0.039 -0.169,0.018c-0.142,-0.04 -0.275,-0.26 -0.3,-0.505c-0.013,-0.125 0.003,-0.246 0.037,-0.347c0.032,-0.102 0.089,-0.177 0.157,-0.195c0.069,-0.024 0.12,0.016 0.139,0.053c0.021,0.037 0.014,0.064 0.022,0.066c0.003,0.003 0.025,-0.024 0.011,-0.081c-0.008,-0.026 -0.026,-0.057 -0.058,-0.081c-0.033,-0.024 -0.08,-0.034 -0.128,-0.024c-0.1,0.017 -0.183,0.12 -0.221,0.231c-0.043,0.113 -0.064,0.248 -0.05,0.387c0.03,0.275 0.184,0.521 0.377,0.561c0.093,0.019 0.167,-0.017 0.204,-0.052c0.038,-0.037 0.043,-0.068 0.038,-0.071Z" style="fill:#b96653;fill-rule:nonzero;"/><path d="M19.354,73.206l0.995,-1.491l-3.827,-2.865l-1.584,2.299l0.219,0.202c0.982,0.887 5.053,4.437 5.892,4.773c0.935,0.373 -1.695,-2.918 -1.695,-2.918Z" style="fill:#f15b66;fill-rule:nonzero;"/><path d="M15.723,70.009l0.011,-0.015l-0.011,0.015Z" style="fill:#fff;fill-rule:nonzero;"/><path d="M16.323,72.153l-1.319,-1.085l-0.023,0.029l0.742,-1.088l0.011,-0.015c0.016,0.009 0.032,0.019 0.047,0.027c0.023,0.024 0.13,0.091 0.262,0.225c0.144,0.145 0.311,0.382 0.4,0.684c0.006,0.02 0.01,0.04 0.016,0.059c0.029,0.117 0.043,0.232 0.047,0.342c0.004,0.2 -0.029,0.4 -0.088,0.59c-0.039,0.115 -0.077,0.193 -0.095,0.232Z" style="fill:#f69fa8;fill-rule:nonzero;"/><path d="M21.186,76.18c-0.032,0 -0.092,-0.025 -0.175,-0.072c0.013,0.006 0.026,0.01 0.038,0.016c0.05,0.02 0.09,0.03 0.121,0.03c0.049,-0 0.073,-0.025 0.079,-0.068c0.001,0.049 -0.016,0.081 -0.053,0.091c-0.003,0.002 -0.007,0.003 -0.01,0.003Zm-0.397,-1.027c-0.06,-0.091 -0.122,-0.182 -0.187,-0.276c0.017,0.023 0.092,0.131 0.187,0.276Zm-2.381,-0.999c-1.259,-1.022 -2.644,-2.207 -3.47,-3.005l0.219,0.202c0.524,0.473 1.927,1.705 3.251,2.803Z" style="fill:#fff;fill-rule:nonzero;"/><path d="M21.17,76.154c-0.031,-0 -0.071,-0.01 -0.121,-0.03c-0.012,-0.006 -0.025,-0.01 -0.038,-0.016c-0.421,-0.237 -1.46,-1.027 -2.603,-1.954c-1.324,-1.098 -2.727,-2.33 -3.251,-2.803l-0.219,-0.202l0.043,-0.052l1.325,1.109c0.004,-0.01 0.008,-0.018 0.013,-0.029c0.003,-0.002 0.008,-0.008 0.014,-0.017l3.584,2.948c-0,0 0.315,-0.276 0.551,-0.276c0.048,0 0.093,0.011 0.131,0.039c-0,0 0.001,0.003 0.003,0.006c0.065,0.094 0.127,0.185 0.187,0.276c0.19,0.293 0.458,0.738 0.46,0.933c-0.006,0.043 -0.03,0.068 -0.079,0.068Z" style="fill:#f69fa8;fill-rule:nonzero;"/><path d="M16.306,72.206l-1.325,-1.109l0.023,-0.029l1.319,1.085c-0.006,0.016 -0.01,0.024 -0.007,0.027l0.001,0c-0,0 0.001,-0.001 0.002,-0.003c-0.005,0.011 -0.009,0.019 -0.013,0.029Z" style="fill:#facacd;fill-rule:nonzero;"/><path d="M14.948,71.018c-0.001,0.001 0.02,0.022 0.059,0.058c0.053,0.049 0.11,0.102 0.175,0.16c0.178,0.157 0.396,0.349 0.654,0.576c0.554,0.481 1.328,1.137 2.197,1.842c0.87,0.704 1.67,1.323 2.255,1.763c0.274,0.203 0.506,0.376 0.695,0.516c0.071,0.051 0.134,0.096 0.191,0.137c0.045,0.031 0.068,0.046 0.069,0.045c0.001,-0.003 -0.021,-0.021 -0.062,-0.055c-0.055,-0.044 -0.117,-0.091 -0.185,-0.146c-0.187,-0.144 -0.416,-0.321 -0.686,-0.532c-0.578,-0.448 -1.373,-1.072 -2.243,-1.775c-0.869,-0.704 -1.647,-1.353 -2.207,-1.827c-0.262,-0.222 -0.483,-0.408 -0.664,-0.561c-0.068,-0.056 -0.127,-0.106 -0.182,-0.151c-0.042,-0.034 -0.064,-0.051 -0.066,-0.05Z" style="fill:#0c2b34;fill-rule:nonzero;"/><path d="M19.873,75.167c0.013,0.013 0.143,-0.148 0.365,-0.236c0.22,-0.092 0.42,-0.066 0.421,-0.084c0.005,-0.014 -0.206,-0.069 -0.442,0.029c-0.238,0.096 -0.357,0.285 -0.344,0.291Z" style="fill:#0c2b34;fill-rule:nonzero;"/><path d="M19.189,73.699c0.007,0.016 0.105,-0.008 0.223,-0.054c0.117,-0.045 0.208,-0.095 0.202,-0.11c-0.005,-0.015 -0.105,0.008 -0.222,0.054c-0.118,0.045 -0.209,0.095 -0.203,0.11Z" style="fill:#0c2b34;fill-rule:nonzero;"/><path d="M19.007,73.291c0.001,0.016 0.089,0.022 0.195,0.014c0.107,-0.009 0.191,-0.029 0.19,-0.045c-0.001,-0.016 -0.089,-0.023 -0.195,-0.015c-0.107,0.008 -0.191,0.029 -0.19,0.046Z" style="fill:#0c2b34;fill-rule:nonzero;"/><path d="M19.077,72.77c-0.01,0.012 0.069,0.094 0.174,0.183c0.107,0.087 0.2,0.148 0.209,0.134c0.01,-0.013 -0.068,-0.094 -0.174,-0.182c-0.107,-0.088 -0.2,-0.148 -0.209,-0.135Z" style="fill:#0c2b34;fill-rule:nonzero;"/><path d="M19.194,72.458c-0.013,0.008 0.05,0.13 0.169,0.241c0.119,0.112 0.239,0.163 0.246,0.148c0.007,-0.015 -0.097,-0.086 -0.209,-0.192c-0.113,-0.107 -0.193,-0.206 -0.206,-0.197Z" style="fill:#0c2b34;fill-rule:nonzero;"/><path d="M19.556,73.462c-0.005,0.005 0.078,0.091 0.238,0.191c0.08,0.05 0.18,0.103 0.296,0.146c0.059,0.021 0.117,0.047 0.19,0.056c0.036,0.002 0.078,0.001 0.113,-0.031c0.037,-0.029 0.048,-0.085 0.035,-0.128c-0.14,-0.307 -0.464,-0.358 -0.636,-0.304c-0.091,0.027 -0.155,0.07 -0.195,0.103c-0.039,0.037 -0.056,0.061 -0.054,0.063c0.006,0.011 0.086,-0.085 0.259,-0.124c0.086,-0.02 0.194,-0.019 0.302,0.025c0.103,0.043 0.228,0.134 0.27,0.251c0.017,0.06 -0.031,0.095 -0.092,0.087c-0.058,-0.005 -0.12,-0.03 -0.175,-0.049c-0.114,-0.04 -0.213,-0.087 -0.294,-0.131c-0.161,-0.088 -0.253,-0.162 -0.257,-0.155Z" style="fill:#0c2b34;fill-rule:nonzero;"/><path d="M19.608,73.524c0.002,0.006 0.082,-0.03 0.151,-0.151c0.032,-0.06 0.06,-0.141 0.063,-0.235c-0.003,-0.089 -0.003,-0.21 -0.109,-0.288c-0.06,-0.036 -0.133,0.008 -0.154,0.056c-0.027,0.048 -0.035,0.1 -0.039,0.145c-0.008,0.091 -0.003,0.174 0.007,0.241c0.02,0.137 0.059,0.215 0.064,0.212c0.008,-0.002 -0.015,-0.083 -0.025,-0.215c-0.005,-0.067 -0.005,-0.146 0.005,-0.231c0.006,-0.08 0.05,-0.192 0.118,-0.156c0.063,0.043 0.081,0.155 0.082,0.234c-0.001,0.085 -0.021,0.16 -0.048,0.217c-0.053,0.117 -0.121,0.163 -0.115,0.171Z" style="fill:#0c2b34;fill-rule:nonzero;"/><path d="M15.777,70.016c-0.006,0.009 0.113,0.075 0.266,0.23c0.153,0.154 0.334,0.413 0.416,0.743c0.082,0.33 0.044,0.646 -0.018,0.856c-0.061,0.213 -0.134,0.329 -0.125,0.335c0.003,0.001 0.024,-0.026 0.055,-0.079c0.032,-0.053 0.071,-0.135 0.108,-0.242c0.073,-0.213 0.12,-0.54 0.034,-0.885c-0.086,-0.344 -0.28,-0.608 -0.443,-0.757c-0.082,-0.076 -0.156,-0.128 -0.208,-0.16c-0.053,-0.031 -0.084,-0.045 -0.085,-0.041Z" style="fill:#0c2b34;fill-rule:nonzero;"/><path d="M17.041,72.205c-0.011,0.009 0.202,0.247 0.501,0.494c0.3,0.247 0.568,0.407 0.576,0.393c0.008,-0.015 -0.245,-0.195 -0.541,-0.439c-0.298,-0.246 -0.525,-0.461 -0.536,-0.448Z" style="fill:#0c2b34;fill-rule:nonzero;"/><path d="M16.314,71.615c-0.016,0.003 -0.018,0.07 -0.035,0.149c-0.015,0.078 -0.039,0.14 -0.026,0.15c0.013,0.01 0.063,-0.046 0.081,-0.137c0.018,-0.091 -0.005,-0.164 -0.02,-0.162Z" style="fill:#0c2b34;fill-rule:nonzero;"/><path d="M16.292,71.037c-0.015,0.001 -0.02,0.061 -0.01,0.133c0.01,0.072 0.03,0.129 0.046,0.126c0.014,-0.002 0.019,-0.061 0.01,-0.133c-0.01,-0.072 -0.03,-0.129 -0.046,-0.126Z" style="fill:#0c2b34;fill-rule:nonzero;"/><path d="M16.016,70.556c-0.007,0.016 0.043,0.054 0.083,0.119c0.042,0.063 0.058,0.127 0.074,0.125c0.015,0.002 0.023,-0.08 -0.029,-0.158c-0.05,-0.079 -0.123,-0.101 -0.128,-0.086Z" style="fill:#0c2b34;fill-rule:nonzero;"/><path d="M15.791,70.253c-0.013,0.008 -0.005,0.047 0.016,0.083c0.022,0.037 0.051,0.061 0.063,0.052c0.013,-0.007 0.007,-0.045 -0.016,-0.083c-0.022,-0.037 -0.05,-0.061 -0.063,-0.052Z" style="fill:#0c2b34;fill-rule:nonzero;"/><path d="M19.754,72.625l-0.007,-0.006l0.109,-0.162l0.011,0.008l-0.113,0.16Zm-3.867,-2.852l0.22,-0.332l0.005,0.004l-0.225,0.328Z" style="fill:#a8abab;fill-rule:nonzero;"/><path d="M19.747,72.619l-3.86,-2.846l0.225,-0.328l3.744,3.012l-0.109,0.162Z" style="fill:#ba3d48;fill-rule:nonzero;"/><path d="M37.929,77.925l-0.358,-1.745l-4.447,1.087l0.52,2.733l0.28,-0.037c1.245,-0.181 6.314,-1.009 7.09,-1.439c0.866,-0.479 -3.085,-0.599 -3.085,-0.599Z" style="fill:#f15b66;fill-rule:nonzero;"/><path d="M33.638,79.933l-0.254,-1.3l-0.001,-0.008c0.017,-0.006 0.034,-0.011 0.05,-0.016c0.03,-0.003 0.147,-0.043 0.325,-0.056c0.033,-0.003 0.07,-0.005 0.108,-0.005c0.178,0 0.4,0.037 0.616,0.142c0.017,0.009 0.034,0.018 0.05,0.027c0.099,0.054 0.187,0.119 0.264,0.19c0.135,0.126 0.248,0.281 0.338,0.449c0.054,0.105 0.082,0.187 0.097,0.227l-1.598,0.31l0.005,0.04Z" style="fill:#f69fa8;fill-rule:nonzero;"/><path d="M33.644,80l0.28,-0.037c0.666,-0.098 2.425,-0.379 4.036,-0.686c-1.517,0.307 -3.232,0.604 -4.316,0.723Z" style="fill:#fff;fill-rule:nonzero;"/><path d="M40.977,78.544c0.013,-0.007 0.025,-0.014 0.037,-0.02c0.004,-0.002 0.007,-0.003 0.01,-0.006c-0.001,0.003 -0.002,0.005 -0.002,0.008c-0.014,0.005 -0.029,0.011 -0.045,0.018Zm0.094,-0.041c0.002,-0.007 0.005,-0.013 0.008,-0.02c0.011,-0.01 0.021,-0.019 0.03,-0.028c-0.007,0.013 -0.012,0.024 -0.018,0.037c-0.007,0.004 -0.013,0.007 -0.02,0.011Zm0.067,-0.105c0.001,-0.011 -0.001,-0.024 -0.006,-0.035c0,-0.001 0.001,-0.002 0.002,-0.004c0.006,0.008 0.01,0.014 0.014,0.022c-0.004,0.004 -0.007,0.01 -0.01,0.017Z" style="fill:#f69fa8;fill-rule:nonzero;"/><path d="M41.091,78.492c0.006,-0.013 0.011,-0.024 0.018,-0.037c0.018,-0.02 0.028,-0.038 0.029,-0.057c0.003,-0.007 0.006,-0.013 0.01,-0.017c0.01,0.019 0.011,0.042 -0,0.065c-0.007,0.014 -0.026,0.029 -0.057,0.046Z" style="fill:#ce9397;fill-rule:nonzero;"/><path d="M41.022,78.526c0,-0.003 0.001,-0.005 0.002,-0.008c0.022,-0.011 0.039,-0.024 0.055,-0.035c-0.003,0.007 -0.006,0.013 -0.008,0.02c-0.014,0.006 -0.031,0.013 -0.049,0.023Zm0.11,-0.163c-0.003,-0.007 -0.008,-0.012 -0.012,-0.018c0.006,0.004 0.01,0.009 0.014,0.014c-0.001,0.002 -0.002,0.003 -0.002,0.004Z" style="fill:#879397;fill-rule:nonzero;"/><path d="M40.208,78.093c-0.108,-0.015 -0.221,-0.029 -0.336,-0.04c0,0 0.144,0.013 0.336,0.04Z" style="fill:#f69fa8;fill-rule:nonzero;"/><path d="M33.644,80l-0.006,-0.067l1.618,-0.3c-0.004,-0.011 -0.007,-0.02 -0.012,-0.031c0.002,-0.003 0,-0.011 -0.002,-0.022l4.344,-0.845c-0,-0 0.028,-0.618 0.286,-0.682c0.115,0.011 0.228,0.025 0.336,0.04c0.323,0.045 0.781,0.129 0.912,0.252c0.004,0.006 0.009,0.011 0.012,0.018c0.005,0.011 0.007,0.024 0.006,0.035c-0.001,0.019 -0.011,0.037 -0.029,0.057c-0.009,0.009 -0.019,0.018 -0.03,0.028c-0.016,0.011 -0.033,0.024 -0.055,0.035c-0.003,0.003 -0.006,0.004 -0.01,0.006c-0.012,0.006 -0.024,0.013 -0.037,0.02c-0.438,0.172 -1.647,0.457 -3.017,0.733c-1.611,0.307 -3.37,0.588 -4.036,0.686l-0.28,0.037Z" style="fill:#f69fa8;fill-rule:nonzero;"/><path d="M33.638,79.933l-0.005,-0.04l1.598,-0.31c0.007,0.016 0.01,0.023 0.012,0.023l0.001,0l0,-0.004c0.005,0.011 0.008,0.02 0.012,0.031l-1.618,0.3Z" style="fill:#facacd;fill-rule:nonzero;"/><path d="M33.562,79.905c0,0.002 0.028,0 0.079,-0.006c0.067,-0.01 0.14,-0.021 0.222,-0.031c0.223,-0.035 0.496,-0.078 0.818,-0.129c0.69,-0.113 1.64,-0.285 2.687,-0.496c1.045,-0.214 1.989,-0.428 2.67,-0.592c0.316,-0.079 0.585,-0.146 0.804,-0.201c0.081,-0.022 0.152,-0.04 0.218,-0.059c0.05,-0.013 0.076,-0.022 0.076,-0.023c-0,-0.002 -0.027,0.002 -0.078,0.013c-0.067,0.014 -0.139,0.03 -0.22,0.047c-0.22,0.05 -0.49,0.112 -0.808,0.183c-0.683,0.155 -1.627,0.362 -2.672,0.574c-1.046,0.212 -1.996,0.389 -2.682,0.514c-0.322,0.058 -0.594,0.106 -0.816,0.146c-0.082,0.016 -0.154,0.03 -0.221,0.043c-0.05,0.01 -0.077,0.016 -0.077,0.017Z" style="fill:#0c2b34;fill-rule:nonzero;"/><path d="M39.597,78.807c0.016,0 -0.007,-0.205 0.079,-0.435c0.082,-0.231 0.231,-0.369 0.218,-0.382c-0.005,-0.013 -0.181,0.115 -0.27,0.362c-0.091,0.246 -0.041,0.462 -0.027,0.455Z" style="fill:#0c2b34;fill-rule:nonzero;"/><path d="M38.156,78.377c0.014,0.006 0.063,-0.088 0.108,-0.208c0.046,-0.121 0.072,-0.223 0.058,-0.23c-0.014,-0.006 -0.063,0.088 -0.109,0.209c-0.046,0.12 -0.072,0.222 -0.057,0.229Z" style="fill:#0c2b34;fill-rule:nonzero;"/><path d="M37.759,78.251c0.012,0.008 0.073,-0.054 0.138,-0.143c0.063,-0.088 0.105,-0.168 0.093,-0.176c-0.012,-0.01 -0.073,0.054 -0.138,0.142c-0.063,0.088 -0.105,0.167 -0.093,0.177Z" style="fill:#0c2b34;fill-rule:nonzero;"/><path d="M37.451,77.856c0.003,0.016 0.11,0.009 0.239,-0.017c0.129,-0.025 0.231,-0.057 0.229,-0.074c-0.003,-0.015 -0.11,-0.007 -0.239,0.017c-0.129,0.025 -0.231,0.059 -0.229,0.074Z" style="fill:#0c2b34;fill-rule:nonzero;"/><path d="M37.318,77.561c-0.002,0.014 0.12,0.044 0.273,0.026c0.153,-0.019 0.268,-0.079 0.262,-0.093c-0.005,-0.016 -0.122,0.019 -0.267,0.036c-0.146,0.017 -0.267,0.015 -0.268,0.031Z" style="fill:#0c2b34;fill-rule:nonzero;"/><path d="M38.234,77.938c0,0.007 0.114,-0.002 0.286,-0.06c0.087,-0.029 0.188,-0.072 0.293,-0.134c0.053,-0.031 0.108,-0.059 0.161,-0.11c0.025,-0.025 0.052,-0.06 0.055,-0.109c0.003,-0.047 -0.028,-0.091 -0.065,-0.111c-0.301,-0.092 -0.546,0.125 -0.622,0.294c-0.042,0.087 -0.054,0.166 -0.058,0.221c-0.002,0.053 0.005,0.082 0.007,0.082c0.011,0.002 -0.001,-0.123 0.086,-0.283c0.042,-0.079 0.114,-0.161 0.215,-0.218c0.096,-0.051 0.238,-0.089 0.346,-0.044c0.052,0.026 0.044,0.086 -0.001,0.128c-0.041,0.042 -0.099,0.073 -0.148,0.104c-0.102,0.063 -0.199,0.108 -0.281,0.141c-0.166,0.067 -0.276,0.091 -0.274,0.099Z" style="fill:#0c2b34;fill-rule:nonzero;"/><path d="M38.311,77.938c0.005,0.002 0.033,-0.083 -0.004,-0.216c-0.019,-0.065 -0.056,-0.139 -0.117,-0.204c-0.063,-0.055 -0.144,-0.133 -0.267,-0.104c-0.064,0.023 -0.083,0.109 -0.063,0.157c0.014,0.052 0.046,0.092 0.072,0.125c0.057,0.066 0.116,0.117 0.168,0.154c0.107,0.073 0.184,0.095 0.186,0.088c0.004,-0.008 -0.066,-0.043 -0.163,-0.121c-0.047,-0.04 -0.101,-0.091 -0.152,-0.156c-0.051,-0.056 -0.098,-0.164 -0.028,-0.192c0.07,-0.022 0.157,0.038 0.211,0.088c0.057,0.056 0.095,0.121 0.116,0.18c0.044,0.118 0.031,0.2 0.041,0.201Z" style="fill:#0c2b34;fill-rule:nonzero;"/><path d="M33.426,78.608c0.003,0.01 0.125,-0.038 0.332,-0.055c0.203,-0.018 0.496,0.011 0.774,0.164c0.277,0.152 0.466,0.388 0.568,0.574c0.103,0.185 0.134,0.319 0.144,0.315c0.004,0 -0.001,-0.035 -0.016,-0.093c-0.016,-0.06 -0.046,-0.144 -0.094,-0.243c-0.096,-0.195 -0.287,-0.444 -0.576,-0.604c-0.29,-0.159 -0.596,-0.183 -0.805,-0.154c-0.104,0.014 -0.187,0.036 -0.243,0.058c-0.057,0.019 -0.086,0.034 -0.084,0.038Z" style="fill:#0c2b34;fill-rule:nonzero;"/><path d="M35.736,79.061c0.001,0.015 0.301,0.007 0.663,-0.065c0.363,-0.068 0.648,-0.171 0.643,-0.186c-0.004,-0.017 -0.292,0.06 -0.652,0.131c-0.36,0.069 -0.656,0.104 -0.654,0.12Z" style="fill:#0c2b34;fill-rule:nonzero;"/><path d="M34.861,79.239c-0.009,0.013 0.036,0.06 0.078,0.124c0.043,0.063 0.069,0.122 0.084,0.119c0.015,-0.004 0.01,-0.079 -0.04,-0.153c-0.049,-0.074 -0.114,-0.103 -0.122,-0.09Z" style="fill:#0c2b34;fill-rule:nonzero;"/><path d="M34.456,78.877c-0.009,0.013 0.027,0.056 0.083,0.095c0.054,0.039 0.107,0.061 0.114,0.049c0.009,-0.014 -0.027,-0.057 -0.083,-0.097c-0.054,-0.039 -0.107,-0.061 -0.114,-0.047Z" style="fill:#0c2b34;fill-rule:nonzero;"/><path d="M33.948,78.777c0.006,0.014 0.065,0.002 0.135,0.012c0.07,0.01 0.124,0.039 0.134,0.025c0.011,-0.011 -0.039,-0.069 -0.126,-0.081c-0.087,-0.014 -0.15,0.03 -0.143,0.044Z" style="fill:#0c2b34;fill-rule:nonzero;"/><path d="M33.597,78.752c-0.004,0.016 0.026,0.034 0.066,0.042c0.039,0.008 0.074,0.002 0.077,-0.015c0.003,-0.015 -0.027,-0.033 -0.067,-0.042c-0.04,-0.007 -0.074,0 -0.076,0.015Z" style="fill:#0c2b34;fill-rule:nonzero;"/><path d="M33.333,78.362l-0.08,-0.387l0.007,-0.001l0.073,0.388Z" style="fill:#a8abab;fill-rule:nonzero;"/><path d="M37.789,77.237l-0.04,-0.19l0.013,-0.003l0.036,0.192l-0.009,0.001Z" style="fill:#011721;fill-rule:nonzero;"/><path d="M33.333,78.364l0,-0.002l-0.073,-0.388l4.489,-0.927l0.04,0.19l-4.456,1.127Z" style="fill:#ba3d48;fill-rule:nonzero;"/><path d="M26.353,35.572c0,-0.087 0.765,-0.862 0.889,-0.905c0.124,-0.044 2.357,-1.04 2.398,-0.928c0.041,0.11 0.31,0.654 -0.144,0.913l-0.353,0.125l1.283,0.11c-0,0 1.426,1.128 1.406,1.371c-0.021,0.244 -0.206,0.398 -0.331,0.288c-0.124,-0.111 0.331,0.773 0.331,0.773c0,0 0,0.377 -0.186,0.311c-0.186,-0.066 -0.476,-0.42 -0.476,-0.42c0,-0 0.269,0.464 0.187,0.552c-0.084,0.089 -0.497,0.111 -0.538,0c-0.041,-0.111 -0.103,-0.31 -0.103,-0.31l-0.248,0.022l-0,0.363l-3.785,0.124l-0.33,-2.389Z" style="fill:#b96653;fill-rule:nonzero;"/><path d="M11.688,24.407l1.155,1.463l4.621,8.649l9.013,0.952l0.197,2.789l-10.38,1.049l-5.794,-11.215l1.188,-3.687Z" style="fill:#d7d9d9;fill-rule:nonzero;"/><path d="M12.601,28.626l-0.893,-3.608l-0.02,-1.176l-5.016,-2.436l-0.964,1.282l0.116,0.065c-0.394,0.445 -3.314,3.819 -3.14,6.306c0.157,2.243 4.575,16.376 4.575,16.376l10.065,-3.147l-4.723,-13.662Z" style="fill:#e5e5e4;fill-rule:nonzero;"/><path d="M11.598,25.066l-0.282,1.478l0.735,1.478l0,1.095l5.273,13.171l1.56,0.561l0.264,-1.128c-0,-0 -4.39,-8.014 -5.149,-10.274c-0.76,-2.259 -1.881,-5.507 -1.881,-5.507l-0.52,-0.874Z" style="fill:#f15b66;fill-rule:nonzero;"/><path d="M3.592,31.703c0,0.141 9.091,9.535 9.091,9.535l12.281,-2.57l-0.393,-2.805l-8.385,0.245c-0.917,0.038 -1.646,-0.288 -2.206,-1.067c-1.799,-2.497 -5.698,-7.915 -5.799,-8.059c-0.131,-0.186 -4.589,4.721 -4.589,4.721Z" style="fill:#e5e5e4;fill-rule:nonzero;"/><path d="M24.571,35.863c0,0 0.012,0.058 0.03,0.176c0.019,0.124 0.046,0.302 0.081,0.534c0.07,0.478 0.174,1.181 0.308,2.092l0.003,0.024l-0.023,0.005c-2.139,0.442 -5.557,1.148 -9.804,2.027c-0.267,0.053 -0.536,0.11 -0.808,0.165c-0.274,0.059 -0.56,0.092 -0.848,0.08c-0.574,-0.019 -1.159,-0.2 -1.67,-0.535c-0.257,-0.169 -0.494,-0.373 -0.703,-0.612c-0.207,-0.24 -0.4,-0.488 -0.604,-0.734c-0.402,-0.494 -0.811,-0.996 -1.226,-1.508c-1.661,-2.044 -3.424,-4.212 -5.25,-6.458l-0.007,-0.008l-0.003,-0.009c-0.011,-0.032 -0.024,-0.066 -0.037,-0.101c-0.177,-0.483 -0.292,-0.997 -0.294,-1.514c-0.008,-0.515 0.102,-1.037 0.35,-1.478c0.244,-0.445 0.613,-0.787 1.01,-1.048c0.404,-0.253 0.853,-0.424 1.314,-0.466c0.46,-0.049 0.93,0.042 1.339,0.255c0.41,0.214 0.751,0.539 1.044,0.887c0.294,0.35 0.546,0.729 0.79,1.101c0.248,0.371 0.493,0.738 0.735,1.099c0.976,1.44 1.945,2.776 2.88,4.002c0.235,0.305 0.466,0.605 0.694,0.899c0.234,0.287 0.444,0.593 0.698,0.827c0.252,0.238 0.576,0.35 0.897,0.391c0.322,0.043 0.643,0.032 0.96,0.028c2.517,-0.042 4.556,-0.074 5.971,-0.098c0.699,-0.009 1.242,-0.016 1.615,-0.021c0.181,-0.002 0.32,-0.003 0.418,-0.004c0.095,0 0.14,0.002 0.14,0.002c0,0 -0.051,0.005 -0.147,0.008c-0.1,0.004 -0.241,0.007 -0.425,0.014c-0.376,0.01 -0.922,0.025 -1.625,0.044c-1.408,0.035 -3.44,0.084 -5.948,0.145c-0.313,0.007 -0.638,0.018 -0.97,-0.024c-0.329,-0.041 -0.677,-0.159 -0.945,-0.409c-0.269,-0.247 -0.478,-0.551 -0.712,-0.838c-0.228,-0.294 -0.461,-0.593 -0.698,-0.897c-0.939,-1.225 -1.911,-2.561 -2.892,-4c-0.242,-0.361 -0.488,-0.727 -0.737,-1.099c-0.245,-0.371 -0.494,-0.746 -0.783,-1.089c-0.288,-0.34 -0.618,-0.653 -1.01,-0.857c-0.391,-0.203 -0.837,-0.289 -1.279,-0.242c-0.877,0.091 -1.752,0.623 -2.232,1.454c-0.236,0.42 -0.341,0.917 -0.334,1.413c0.003,0.498 0.114,0.997 0.287,1.468c0.012,0.034 0.025,0.068 0.036,0.099l-0.01,-0.016c1.824,2.246 3.585,4.416 5.245,6.46c0.415,0.513 0.824,1.015 1.226,1.511c0.201,0.244 0.398,0.497 0.599,0.731c0.202,0.231 0.431,0.431 0.679,0.594c0.495,0.325 1.061,0.503 1.618,0.522c0.28,0.012 0.554,-0.019 0.825,-0.075c0.272,-0.056 0.541,-0.11 0.808,-0.163c4.252,-0.857 7.673,-1.544 9.813,-1.975l-0.02,0.03c-0.121,-0.908 -0.214,-1.605 -0.278,-2.082c-0.03,-0.235 -0.053,-0.414 -0.07,-0.54c-0.015,-0.121 -0.021,-0.187 -0.021,-0.187Z" style="fill:#335863;fill-rule:nonzero;"/><path d="M11.688,23.842c0.012,0.003 -0.035,0.24 -0.079,0.66c-0.053,0.419 -0.076,1.023 -0.217,1.74l-0.013,0.074l-0.063,-0.04c-0.53,-0.325 -1.143,-0.703 -1.794,-1.104c-1.034,-0.642 -1.968,-1.23 -2.64,-1.659c-0.32,-0.21 -0.586,-0.382 -0.793,-0.517c-0.186,-0.123 -0.287,-0.196 -0.282,-0.203c0.003,-0.008 0.112,0.05 0.305,0.161c0.211,0.125 0.485,0.287 0.812,0.481c0.684,0.41 1.623,0.985 2.657,1.627c0.649,0.407 1.259,0.788 1.787,1.118l-0.077,0.035c0.149,-0.697 0.187,-1.304 0.257,-1.721c0.032,-0.21 0.063,-0.375 0.09,-0.485c0.026,-0.11 0.045,-0.169 0.05,-0.167Z" style="fill:#335863;fill-rule:nonzero;"/><path d="M29.839,35.869l-2.192,-0.641l-1.819,0.971l-1.034,0l-0.165,0.073l0.294,2.1l0.26,0.04c0,-0 0.294,0.219 0.873,0.354c0.578,0.132 1.426,-0.267 1.426,-0.267l1.158,-0.685l0.827,-0.252l0.62,0.385c-0,-0 0.062,0.265 0.062,0.354c-0,0.088 0.228,0.198 0.351,0.198c0.124,0 0.166,-0.308 0.166,-0.308l-0.145,-0.662l0.29,0.285l0.723,0l0,-0.486l-1.695,-1.459Z" style="fill:#c18573;fill-rule:nonzero;"/><path d="M24.964,51.263l-9.444,17.982l5.048,3.661l8.346,-15.845l-1.405,-5.798l-2.545,-0Z" style="fill:#00a6d7;fill-rule:nonzero;"/><path d="M7.259,45.435c-0,-0 -1.085,4.885 1.858,5.879c2.942,0.993 18.247,1.511 18.247,1.511l5.689,25.127l4.87,-0.74l-4.201,-26.929c-0.31,-1.884 -1.685,-3.361 -3.448,-3.698c-4.537,-0.868 -12.761,-2.461 -12.873,-2.64c-0.154,-0.249 -0.774,-1.657 -0.774,-1.657l-9.368,3.147Z" style="fill:#00a6d7;fill-rule:nonzero;"/><path d="M29.193,60.505c-0.004,0.001 -0.021,-0.044 -0.049,-0.131c-0.03,-0.085 -0.068,-0.213 -0.112,-0.38c-0.091,-0.334 -0.202,-0.823 -0.322,-1.429c-0.118,-0.612 -0.256,-1.333 -0.408,-2.131c-0.165,-0.796 -0.333,-1.687 -0.709,-2.532c-0.192,-0.411 -0.447,-0.807 -0.836,-0.939c-0.386,-0.143 -0.785,-0.211 -1.16,-0.272c-0.756,-0.111 -1.445,-0.165 -2.021,-0.202c-0.578,-0.038 -1.047,-0.058 -1.37,-0.072c-0.152,-0.006 -0.275,-0.012 -0.373,-0.016c-0.085,-0.005 -0.13,-0.008 -0.13,-0.014c0,-0.003 0.045,-0.008 0.13,-0.013c0.086,-0.003 0.211,-0.005 0.374,-0.007c0.324,-0.001 0.793,0.005 1.373,0.032c0.579,0.027 1.269,0.07 2.032,0.177c0.38,0.059 0.78,0.123 1.185,0.271c0.1,0.045 0.202,0.087 0.294,0.158c0.091,0.069 0.173,0.151 0.247,0.241c0.146,0.179 0.261,0.386 0.362,0.599c0.386,0.871 0.548,1.765 0.709,2.565c0.152,0.804 0.272,1.53 0.383,2.138c0.109,0.607 0.208,1.097 0.285,1.433c0.074,0.337 0.126,0.52 0.116,0.524Z" style="fill:#335863;fill-rule:nonzero;"/><path d="M84.783,39.447l-60.786,-0.233l-0.006,1.931l3.608,0.013l-0.127,37.594l1.275,0.004l0.126,-37.592l50.227,0.192l-0.127,37.593l1.275,0.005l0.126,-37.593l4.403,0.016l0.006,-1.93Z" style="fill:#335863;fill-rule:nonzero;"/><path d="M63.904,28.782l3.373,10.537l15.267,0l-0.113,-0.542l-6.173,-0.205l-2.844,-9.797l-9.51,0.007Z" style="fill:#d7d9d9;fill-rule:nonzero;"/><path d="M70.67,33.731c0.101,0.432 -0.072,0.855 -0.386,0.944c-0.314,0.091 -0.651,-0.188 -0.751,-0.618c-0.101,-0.432 0.071,-0.855 0.386,-0.944c0.314,-0.091 0.651,0.186 0.751,0.618Z" style="fill:#fff;fill-rule:nonzero;"/><path d="M48.881,28.486l-3.371,10.538l-15.268,0l0.112,-0.544l6.174,-0.204l2.844,-9.795l9.509,0.005Z" style="fill:#d7d9d9;fill-rule:nonzero;"/><path d="M42.116,33.436c-0.1,0.431 0.072,0.854 0.386,0.945c0.315,0.089 0.65,-0.188 0.751,-0.62c0.101,-0.432 -0.072,-0.853 -0.386,-0.944c-0.314,-0.09 -0.65,0.187 -0.751,0.619Z" style="fill:#fff;fill-rule:nonzero;"/><path d="M56.946,35.337c-0,1.102 -0.837,1.997 -1.869,1.997c-1.033,0 -1.869,-0.895 -1.869,-1.997c-0,-1.106 0.836,-1.999 1.869,-1.999c1.032,-0 1.869,0.893 1.869,1.999Z" style="fill:#335863;fill-rule:nonzero;"/><rect x="48.973" y="34.547" width="12.208" height="4.772" style="fill:#d7d9d9;"/><path d="M53.667,35.863c-0,0.036 -0.893,0.064 -1.993,0.064c-1.1,0 -1.991,-0.028 -1.991,-0.064c0,-0.035 0.891,-0.062 1.991,-0.062c1.1,-0 1.993,0.027 1.993,0.062Z" style="fill:#0c2b34;fill-rule:nonzero;"/><path d="M53.667,36.548c-0,0.035 -0.893,0.064 -1.993,0.064c-1.1,0 -1.991,-0.029 -1.991,-0.064c0,-0.035 0.891,-0.063 1.991,-0.063c1.1,0 1.993,0.028 1.993,0.063Z" style="fill:#0c2b34;fill-rule:nonzero;"/><path d="M53.667,37.233c-0,0.035 -0.893,0.064 -1.993,0.064c-1.1,0 -1.991,-0.029 -1.991,-0.064c0,-0.035 0.891,-0.063 1.991,-0.063c1.1,0 1.993,0.028 1.993,0.063Z" style="fill:#0c2b34;fill-rule:nonzero;"/><path d="M53.667,37.919c-0,0.035 -0.893,0.063 -1.993,0.063c-1.1,-0 -1.991,-0.028 -1.991,-0.063c0,-0.034 0.891,-0.063 1.991,-0.063c1.1,0 1.993,0.029 1.993,0.063Z" style="fill:#0c2b34;fill-rule:nonzero;"/><path d="M55.893,39.207c-0.032,0 -0.059,-1.027 -0.059,-2.292c0,-1.266 0.027,-2.292 0.059,-2.292c0.034,-0 0.059,1.026 0.059,2.292c0,1.265 -0.025,2.292 -0.059,2.292Z" style="fill:#0c2b34;fill-rule:nonzero;"/></svg>